ISO-10303-21;
HEADER;
FILE_DESCRIPTION(('Open CASCADE Model'),'2;1');
FILE_NAME('Open CASCADE Shape Model','2026-09-02T22:19:26',('Author'),(
    'Open CASCADE'),'Open CASCADE STEP processor 7.9','Open CASCADE 7.9'
  ,'Unknown');
FILE_SCHEMA(('AUTOMOTIVE_DESIGN { 1 0 10303 214 1 1 1 1 }'));
ENDSEC;
DATA;
#1 = APPLICATION_PROTOCOL_DEFINITION('international standard',
  'automotive_design',2000,#2);
#2 = APPLICATION_CONTEXT(
  'core data for automotive mechanical design processes');
#3 = SHAPE_DEFINITION_REPRESENTATION(#4,#10);
#4 = PRODUCT_DEFINITION_SHAPE('','',#5);
#5 = PRODUCT_DEFINITION('design','',#6,#9);
#6 = PRODUCT_DEFINITION_FORMATION('','',#7);
#7 = PRODUCT('Open CASCADE STEP translator 7.9 3',
  'Open CASCADE STEP translator 7.9 3','',(#8));
#8 = PRODUCT_CONTEXT('',#2,'mechanical');
#9 = PRODUCT_DEFINITION_CONTEXT('part definition',#2,'design');
#10 = ADVANCED_BREP_SHAPE_REPRESENTATION('',(#11,#15),#987);
#11 = AXIS2_PLACEMENT_3D('',#12,#13,#14);
#12 = CARTESIAN_POINT('',(0.,0.,0.));
#13 = DIRECTION('',(0.,0.,1.));
#14 = DIRECTION('',(1.,0.,-0.));
#15 = MANIFOLD_SOLID_BREP('',#16);
#16 = CLOSED_SHELL('',(#17,#838,#898,#925,#960));
#17 = ADVANCED_FACE('',(#18),#150,.T.);
#18 = FACE_BOUND('',#19,.T.);
#19 = EDGE_LOOP('',(#20,#529,#555,#819));
#20 = ORIENTED_EDGE('',*,*,#21,.T.);
#21 = EDGE_CURVE('',#22,#24,#26,.T.);
#22 = VERTEX_POINT('',#23);
#23 = CARTESIAN_POINT('',(35.,2.1E-02,0.));
#24 = VERTEX_POINT('',#25);
#25 = CARTESIAN_POINT('',(35.,-2.1E-02,0.));
#26 = SURFACE_CURVE('',#27,(#149,#399),.PCURVE_S1.);
#27 = B_SPLINE_CURVE_WITH_KNOTS('',3,(#28,#29,#30,#31,#32,#33,#34,#35,
    #36,#37,#38,#39,#40,#41,#42,#43,#44,#45,#46,#47,#48,#49,#50,#51,#52,
    #53,#54,#55,#56,#57,#58,#59,#60,#61,#62,#63,#64,#65,#66,#67,#68,#69,
    #70,#71,#72,#73,#74,#75,#76,#77,#78,#79,#80,#81,#82,#83,#84,#85,#86,
    #87,#88,#89,#90,#91,#92,#93,#94,#95,#96,#97,#98,#99,#100,#101,#102,
    #103,#104,#105,#106,#107,#108,#109,#110,#111,#112,#113,#114,#115,
    #116,#117,#118,#119,#120,#121,#122,#123,#124,#125,#126,#127,#128,
    #129,#130,#131,#132,#133,#134,#135,#136,#137,#138,#139,#140,#141,
    #142,#143,#144,#145,#146,#147,#148),.UNSPECIFIED.,.F.,.F.,(4,1,1,1,1
    ,1,1,1,1,1,1,1,1,1,1,1,1,1,1,1,1,1,1,1,1,1,1,1,1,1,1,1,1,1,1,1,1,1,1
    ,1,1,1,1,1,1,1,1,1,1,1,1,1,1,1,1,1,1,1,1,1,1,1,1,1,1,1,1,1,1,1,1,1,1
    ,1,1,1,1,1,1,1,1,1,1,1,1,1,1,1,1,1,1,1,1,1,1,1,1,1,1,1,1,1,1,1,1,1,1
    ,1,1,1,1,1,1,1,1,1,1,1,4),(0.,3.029555671839E-02,0.105411315626,
    0.230358243143,0.404768409449,0.628128840381,0.899783589078,
    1.218936324046,1.584653384396,1.995867249374,2.451380368946,
    2.949869305007,3.489889138159,4.069878102505,4.688162419675,
    5.342961312697,6.032392189671,6.754475995829,7.50714274017,
    8.288237208981,9.095524883147,9.926698079034,10.779382333862,
    11.65114305596,12.539492457893,13.441896786299,14.355783856225,
    15.278550889816,16.207572649449,17.140209844031,18.073817774588,
    19.005755172127,19.933393167912,20.854124324957,21.765371650993,
    22.664597508885,23.549312341984,24.41708314052,25.265541592281,
    26.092391887415,26.895418184472,27.672491793686,28.421578195896,
    29.140744094408,29.828164798349,30.482132370356,31.101065158406,
    31.683519606269,32.22820566248,32.734007797661,33.200014803084,
    33.625563568281,34.010305655798,34.354312085049,34.65824376799,
    34.923636104254,35.153377201477,35.352474447699,35.529066766948,
    35.695028106645,35.860989446342,36.037581765591,36.236679011813,
    36.466420109036,36.7318124453,37.035744128241,37.379750557492,
    37.764492645009,38.190041410206,38.656048415629,39.16185055081,
    39.706536607021,40.288991054884,40.907923842934,41.561891414941,
    42.249312118882,42.968478017394,43.717564419604,44.494638028818,
    45.297664325875,46.124514621009,46.97297307277,47.840743871307,
    48.725458704405,49.624684562297,50.535931888333,51.456663045378,
    52.384301041163,53.316238438702,54.249846369259,55.182483563841,
    56.111505323474,57.034272357065,57.948159426991,58.850563755397,
    59.73891315733,60.610673879428,61.463358134256,62.294531330143,
    63.10181900431,63.88291347312,64.635580217461,65.357664023619,
    66.047094900593,66.701893793615,67.320178110785,67.900167075131,
    68.440186908283,68.938675844344,69.394188963917,69.805402828894,
    70.171119889244,70.490272624212,70.761927372909,70.985287803841,
    71.159697970147,71.284644897664,71.359760656572,71.39005621329),
  .UNSPECIFIED.);
#28 = CARTESIAN_POINT('',(35.,2.1E-02,0.));
#29 = CARTESIAN_POINT('',(34.992455547997,1.216440352651E-02,0.));
#30 = CARTESIAN_POINT('',(34.963626252161,-7.748841949289E-03,0.));
#31 = CARTESIAN_POINT('',(34.882446352219,2.50690420617E-02,0.));
#32 = CARTESIAN_POINT('',(34.761789273588,3.080158849159E-02,0.));
#33 = CARTESIAN_POINT('',(34.588050947876,6.092249894463E-02,0.));
#34 = CARTESIAN_POINT('',(34.367638528482,9.036596204662E-02,0.));
#35 = CARTESIAN_POINT('',(34.098744530803,0.129101994931,0.));
#36 = CARTESIAN_POINT('',(33.783037787214,0.173019465594,0.));
#37 = CARTESIAN_POINT('',(33.421095366738,0.223113083451,0.));
#38 = CARTESIAN_POINT('',(33.014049392765,0.278560082742,0.));
#39 = CARTESIAN_POINT('',(32.563018938619,0.339100458683,0.));
#40 = CARTESIAN_POINT('',(32.069293222908,0.404259304694,0.));
#41 = CARTESIAN_POINT('',(31.534268241277,0.473603128302,0.));
#42 = CARTESIAN_POINT('',(30.959461522078,0.54666595327,0.));
#43 = CARTESIAN_POINT('',(30.346502073513,0.622977507227,0.));
#44 = CARTESIAN_POINT('',(29.697127504975,0.702059057783,0.));
#45 = CARTESIAN_POINT('',(29.01317857489,0.783427826682,0.));
#46 = CARTESIAN_POINT('',(28.29659411724,0.866597617963,0.));
#47 = CARTESIAN_POINT('',(27.549405488748,0.951079363436,0.));
#48 = CARTESIAN_POINT('',(26.773730809766,1.036380595781,0.));
#49 = CARTESIAN_POINT('',(25.971768940986,1.12200430452,0.));
#50 = CARTESIAN_POINT('',(25.145793235237,1.207447269473,0.));
#51 = CARTESIAN_POINT('',(24.298145076464,1.292198118834,0.));
#52 = CARTESIAN_POINT('',(23.431227226558,1.375735350172,0.));
#53 = CARTESIAN_POINT('',(22.547496999033,1.457525574318,0.));
#54 = CARTESIAN_POINT('',(21.649459279689,1.537022238291,0.));
#55 = CARTESIAN_POINT('',(20.739659414721,1.613665069325,0.));
#56 = CARTESIAN_POINT('',(19.820675987132,1.686880453924,0.));
#57 = CARTESIAN_POINT('',(18.895113502608,1.756082925742,0.));
#58 = CARTESIAN_POINT('',(17.965595006094,1.820677885341,0.));
#59 = CARTESIAN_POINT('',(17.034754650291,1.880065615824,0.));
#60 = CARTESIAN_POINT('',(16.10523023707,1.933646593432,0.));
#61 = CARTESIAN_POINT('',(15.17965575237,1.980828024434,0.));
#62 = CARTESIAN_POINT('',(14.260653914556,2.021031472169,0.));
#63 = CARTESIAN_POINT('',(13.350828755466,2.053701373975,0.));
#64 = CARTESIAN_POINT('',(12.452758252492,2.078314190189,0.));
#65 = CARTESIAN_POINT('',(11.56898702901,2.094387879156,0.));
#66 = CARTESIAN_POINT('',(10.702019139398,2.10149135581,0.));
#67 = CARTESIAN_POINT('',(9.85431095361,2.099253568924,0.));
#68 = CARTESIAN_POINT('',(9.028264154808,2.087371824971,0.));
#69 = CARTESIAN_POINT('',(8.226218861682,2.065618995593,0.));
#70 = CARTESIAN_POINT('',(7.450446884456,2.033849271017,0.));
#71 = CARTESIAN_POINT('',(6.703145119642,1.992002162786,0.));
#72 = CARTESIAN_POINT('',(5.986429082337,1.940104514475,0.));
#73 = CARTESIAN_POINT('',(5.302326564688,1.87827034632,0.));
#74 = CARTESIAN_POINT('',(4.652771392262,1.80669843551,0.));
#75 = CARTESIAN_POINT('',(4.039597221948,1.725667612829,0.));
#76 = CARTESIAN_POINT('',(3.464531276979,1.635529830663,0.));
#77 = CARTESIAN_POINT('',(2.929187834844,1.536701108153,0.));
#78 = CARTESIAN_POINT('',(2.435061141104,1.429650465057,0.));
#79 = CARTESIAN_POINT('',(1.983517202299,1.314886806402,0.));
#80 = CARTESIAN_POINT('',(1.575783483158,1.192943369475,0.));
#81 = CARTESIAN_POINT('',(1.212935150705,1.064357964513,0.));
#82 = CARTESIAN_POINT('',(0.895875592722,0.929645187349,0.));
#83 = CARTESIAN_POINT('',(0.62531204061,0.789247531524,0.));
#84 = CARTESIAN_POINT('',(0.401733184817,0.643446194689,0.));
#85 = CARTESIAN_POINT('',(0.225460001562,0.492171174349,0.));
#86 = CARTESIAN_POINT('',(9.694238675427E-02,0.334779891983,0.));
#87 = CARTESIAN_POINT('',(1.777443048462E-02,0.17010528297,0.));
#88 = CARTESIAN_POINT('',(-8.611405012169E-03,5.533606966742E-18,0.));
#89 = CARTESIAN_POINT('',(1.777443048462E-02,-0.17010528297,0.));
#90 = CARTESIAN_POINT('',(9.694238675427E-02,-0.334779891983,0.));
#91 = CARTESIAN_POINT('',(0.225460001562,-0.492171174349,0.));
#92 = CARTESIAN_POINT('',(0.401733184817,-0.643446194689,0.));
#93 = CARTESIAN_POINT('',(0.62531204061,-0.789247531524,0.));
#94 = CARTESIAN_POINT('',(0.895875592722,-0.929645187349,0.));
#95 = CARTESIAN_POINT('',(1.212935150705,-1.064357964513,0.));
#96 = CARTESIAN_POINT('',(1.575783483158,-1.192943369475,0.));
#97 = CARTESIAN_POINT('',(1.983517202299,-1.314886806402,0.));
#98 = CARTESIAN_POINT('',(2.435061141104,-1.429650465057,0.));
#99 = CARTESIAN_POINT('',(2.929187834844,-1.536701108153,0.));
#100 = CARTESIAN_POINT('',(3.464531276979,-1.635529830663,0.));
#101 = CARTESIAN_POINT('',(4.039597221948,-1.725667612829,0.));
#102 = CARTESIAN_POINT('',(4.652771392262,-1.80669843551,0.));
#103 = CARTESIAN_POINT('',(5.302326564688,-1.87827034632,0.));
#104 = CARTESIAN_POINT('',(5.986429082337,-1.940104514475,0.));
#105 = CARTESIAN_POINT('',(6.703145119642,-1.992002162786,0.));
#106 = CARTESIAN_POINT('',(7.450446884456,-2.033849271017,0.));
#107 = CARTESIAN_POINT('',(8.226218861682,-2.065618995593,0.));
#108 = CARTESIAN_POINT('',(9.028264154808,-2.087371824971,0.));
#109 = CARTESIAN_POINT('',(9.85431095361,-2.099253568924,0.));
#110 = CARTESIAN_POINT('',(10.702019139398,-2.10149135581,0.));
#111 = CARTESIAN_POINT('',(11.56898702901,-2.094387879156,0.));
#112 = CARTESIAN_POINT('',(12.452758252492,-2.078314190189,0.));
#113 = CARTESIAN_POINT('',(13.350828755466,-2.053701373975,0.));
#114 = CARTESIAN_POINT('',(14.260653914556,-2.021031472169,0.));
#115 = CARTESIAN_POINT('',(15.17965575237,-1.980828024434,0.));
#116 = CARTESIAN_POINT('',(16.10523023707,-1.933646593432,0.));
#117 = CARTESIAN_POINT('',(17.034754650291,-1.880065615824,0.));
#118 = CARTESIAN_POINT('',(17.965595006094,-1.820677885341,0.));
#119 = CARTESIAN_POINT('',(18.895113502608,-1.756082925742,0.));
#120 = CARTESIAN_POINT('',(19.820675987132,-1.686880453924,0.));
#121 = CARTESIAN_POINT('',(20.739659414721,-1.613665069325,0.));
#122 = CARTESIAN_POINT('',(21.649459279689,-1.537022238291,0.));
#123 = CARTESIAN_POINT('',(22.547496999033,-1.457525574318,0.));
#124 = CARTESIAN_POINT('',(23.431227226558,-1.375735350172,0.));
#125 = CARTESIAN_POINT('',(24.298145076464,-1.292198118834,0.));
#126 = CARTESIAN_POINT('',(25.145793235237,-1.207447269473,0.));
#127 = CARTESIAN_POINT('',(25.971768940986,-1.12200430452,0.));
#128 = CARTESIAN_POINT('',(26.773730809766,-1.036380595781,0.));
#129 = CARTESIAN_POINT('',(27.549405488748,-0.951079363436,0.));
#130 = CARTESIAN_POINT('',(28.29659411724,-0.866597617963,0.));
#131 = CARTESIAN_POINT('',(29.01317857489,-0.783427826682,0.));
#132 = CARTESIAN_POINT('',(29.697127504975,-0.702059057783,0.));
#133 = CARTESIAN_POINT('',(30.346502073513,-0.622977507227,0.));
#134 = CARTESIAN_POINT('',(30.959461522078,-0.54666595327,0.));
#135 = CARTESIAN_POINT('',(31.534268241277,-0.473603128302,0.));
#136 = CARTESIAN_POINT('',(32.069293222908,-0.404259304694,0.));
#137 = CARTESIAN_POINT('',(32.563018938619,-0.339100458683,0.));
#138 = CARTESIAN_POINT('',(33.014049392765,-0.278560082742,0.));
#139 = CARTESIAN_POINT('',(33.421095366737,-0.223113083451,0.));
#140 = CARTESIAN_POINT('',(33.783037787214,-0.173019465594,0.));
#141 = CARTESIAN_POINT('',(34.098744530803,-0.129101994931,0.));
#142 = CARTESIAN_POINT('',(34.367638528482,-9.036596204662E-02,0.));
#143 = CARTESIAN_POINT('',(34.588050947876,-6.092249894463E-02,0.));
#144 = CARTESIAN_POINT('',(34.761789273588,-3.080158849159E-02,0.));
#145 = CARTESIAN_POINT('',(34.882446352219,-2.50690420617E-02,0.));
#146 = CARTESIAN_POINT('',(34.963626252161,7.748841949292E-03,0.));
#147 = CARTESIAN_POINT('',(34.992455547997,-1.216440352651E-02,-0.));
#148 = CARTESIAN_POINT('',(35.,-2.1E-02,0.));
#149 = PCURVE('',#150,#393);
#150 = B_SPLINE_SURFACE_WITH_KNOTS('',3,1,(
    (#151,#152)
    ,(#153,#154)
    ,(#155,#156)
    ,(#157,#158)
    ,(#159,#160)
    ,(#161,#162)
    ,(#163,#164)
    ,(#165,#166)
    ,(#167,#168)
    ,(#169,#170)
    ,(#171,#172)
    ,(#173,#174)
    ,(#175,#176)
    ,(#177,#178)
    ,(#179,#180)
    ,(#181,#182)
    ,(#183,#184)
    ,(#185,#186)
    ,(#187,#188)
    ,(#189,#190)
    ,(#191,#192)
    ,(#193,#194)
    ,(#195,#196)
    ,(#197,#198)
    ,(#199,#200)
    ,(#201,#202)
    ,(#203,#204)
    ,(#205,#206)
    ,(#207,#208)
    ,(#209,#210)
    ,(#211,#212)
    ,(#213,#214)
    ,(#215,#216)
    ,(#217,#218)
    ,(#219,#220)
    ,(#221,#222)
    ,(#223,#224)
    ,(#225,#226)
    ,(#227,#228)
    ,(#229,#230)
    ,(#231,#232)
    ,(#233,#234)
    ,(#235,#236)
    ,(#237,#238)
    ,(#239,#240)
    ,(#241,#242)
    ,(#243,#244)
    ,(#245,#246)
    ,(#247,#248)
    ,(#249,#250)
    ,(#251,#252)
    ,(#253,#254)
    ,(#255,#256)
    ,(#257,#258)
    ,(#259,#260)
    ,(#261,#262)
    ,(#263,#264)
    ,(#265,#266)
    ,(#267,#268)
    ,(#269,#270)
    ,(#271,#272)
    ,(#273,#274)
    ,(#275,#276)
    ,(#277,#278)
    ,(#279,#280)
    ,(#281,#282)
    ,(#283,#284)
    ,(#285,#286)
    ,(#287,#288)
    ,(#289,#290)
    ,(#291,#292)
    ,(#293,#294)
    ,(#295,#296)
    ,(#297,#298)
    ,(#299,#300)
    ,(#301,#302)
    ,(#303,#304)
    ,(#305,#306)
    ,(#307,#308)
    ,(#309,#310)
    ,(#311,#312)
    ,(#313,#314)
    ,(#315,#316)
    ,(#317,#318)
    ,(#319,#320)
    ,(#321,#322)
    ,(#323,#324)
    ,(#325,#326)
    ,(#327,#328)
    ,(#329,#330)
    ,(#331,#332)
    ,(#333,#334)
    ,(#335,#336)
    ,(#337,#338)
    ,(#339,#340)
    ,(#341,#342)
    ,(#343,#344)
    ,(#345,#346)
    ,(#347,#348)
    ,(#349,#350)
    ,(#351,#352)
    ,(#353,#354)
    ,(#355,#356)
    ,(#357,#358)
    ,(#359,#360)
    ,(#361,#362)
    ,(#363,#364)
    ,(#365,#366)
    ,(#367,#368)
    ,(#369,#370)
    ,(#371,#372)
    ,(#373,#374)
    ,(#375,#376)
    ,(#377,#378)
    ,(#379,#380)
    ,(#381,#382)
    ,(#383,#384)
    ,(#385,#386)
    ,(#387,#388)
    ,(#389,#390)
    ,(#391,#392
    )),.UNSPECIFIED.,.F.,.F.,.F.,(4,1,1,1,1,1,1,1,1,1,1,1,1,1,1,1,1,1,1,
    1,1,1,1,1,1,1,1,1,1,1,1,1,1,1,1,1,1,1,1,1,1,1,1,1,1,1,1,1,1,1,1,1,1,
    1,1,1,1,1,1,1,1,1,1,1,1,1,1,1,1,1,1,1,1,1,1,1,1,1,1,1,1,1,1,1,1,1,1,
    1,1,1,1,1,1,1,1,1,1,1,1,1,1,1,1,1,1,1,1,1,1,1,1,1,1,1,1,1,1,1,4),(2,
    2),(0.,3.029555671839E-02,0.105411315626,0.230358243143,
    0.404768409449,0.628128840381,0.899783589078,1.218936324046,
    1.584653384396,1.995867249374,2.451380368946,2.949869305007,
    3.489889138159,4.069878102505,4.688162419675,5.342961312697,
    6.032392189671,6.754475995829,7.50714274017,8.288237208981,
    9.095524883147,9.926698079034,10.779382333862,11.65114305596,
    12.539492457893,13.441896786299,14.355783856225,15.278550889816,
    16.207572649449,17.140209844031,18.073817774588,19.005755172127,
    19.933393167912,20.854124324957,21.765371650993,22.664597508885,
    23.549312341984,24.41708314052,25.265541592281,26.092391887415,
    26.895418184472,27.672491793686,28.421578195896,29.140744094408,
    29.828164798349,30.482132370356,31.101065158406,31.683519606269,
    32.22820566248,32.734007797661,33.200014803084,33.625563568281,
    34.010305655798,34.354312085049,34.65824376799,34.923636104254,
    35.153377201477,35.352474447699,35.529066766948,35.695028106645,
    35.860989446342,36.037581765591,36.236679011813,36.466420109036,
    36.7318124453,37.035744128241,37.379750557492,37.764492645009,
    38.190041410206,38.656048415629,39.16185055081,39.706536607021,
    40.288991054884,40.907923842934,41.561891414941,42.249312118882,
    42.968478017394,43.717564419604,44.494638028818,45.297664325875,
    46.124514621009,46.97297307277,47.840743871307,48.725458704405,
    49.624684562297,50.535931888333,51.456663045378,52.384301041163,
    53.316238438702,54.249846369259,55.182483563841,56.111505323474,
    57.034272357065,57.948159426991,58.850563755397,59.73891315733,
    60.610673879428,61.463358134256,62.294531330143,63.10181900431,
    63.88291347312,64.635580217461,65.357664023619,66.047094900593,
    66.701893793615,67.320178110785,67.900167075131,68.440186908283,
    68.938675844344,69.394188963917,69.805402828894,70.171119889244,
    70.490272624212,70.761927372909,70.985287803841,71.159697970147,
    71.284644897664,71.359760656572,71.39005621329),(0.,1.),
  .UNSPECIFIED.);
#151 = CARTESIAN_POINT('',(35.,2.1E-02,0.));
#152 = CARTESIAN_POINT('',(35.,2.1E-02,205.));
#153 = CARTESIAN_POINT('',(34.992455547997,1.216440352651E-02,0.));
#154 = CARTESIAN_POINT('',(34.992455547997,1.216440352651E-02,205.));
#155 = CARTESIAN_POINT('',(34.963626252161,-7.748841949289E-03,0.));
#156 = CARTESIAN_POINT('',(34.963626252161,-7.748841949289E-03,205.));
#157 = CARTESIAN_POINT('',(34.882446352219,2.50690420617E-02,0.));
#158 = CARTESIAN_POINT('',(34.882446352219,2.50690420617E-02,205.));
#159 = CARTESIAN_POINT('',(34.761789273588,3.080158849159E-02,0.));
#160 = CARTESIAN_POINT('',(34.761789273588,3.080158849159E-02,205.));
#161 = CARTESIAN_POINT('',(34.588050947876,6.092249894463E-02,0.));
#162 = CARTESIAN_POINT('',(34.588050947876,6.092249894463E-02,205.));
#163 = CARTESIAN_POINT('',(34.367638528482,9.036596204662E-02,0.));
#164 = CARTESIAN_POINT('',(34.367638528482,9.036596204662E-02,205.));
#165 = CARTESIAN_POINT('',(34.098744530803,0.129101994931,0.));
#166 = CARTESIAN_POINT('',(34.098744530803,0.129101994931,205.));
#167 = CARTESIAN_POINT('',(33.783037787214,0.173019465594,0.));
#168 = CARTESIAN_POINT('',(33.783037787214,0.173019465594,205.));
#169 = CARTESIAN_POINT('',(33.421095366738,0.223113083451,0.));
#170 = CARTESIAN_POINT('',(33.421095366738,0.223113083451,205.));
#171 = CARTESIAN_POINT('',(33.014049392765,0.278560082742,0.));
#172 = CARTESIAN_POINT('',(33.014049392765,0.278560082742,205.));
#173 = CARTESIAN_POINT('',(32.563018938619,0.339100458683,0.));
#174 = CARTESIAN_POINT('',(32.563018938619,0.339100458683,205.));
#175 = CARTESIAN_POINT('',(32.069293222908,0.404259304694,0.));
#176 = CARTESIAN_POINT('',(32.069293222908,0.404259304694,205.));
#177 = CARTESIAN_POINT('',(31.534268241277,0.473603128302,0.));
#178 = CARTESIAN_POINT('',(31.534268241277,0.473603128302,205.));
#179 = CARTESIAN_POINT('',(30.959461522078,0.54666595327,0.));
#180 = CARTESIAN_POINT('',(30.959461522078,0.54666595327,205.));
#181 = CARTESIAN_POINT('',(30.346502073513,0.622977507227,0.));
#182 = CARTESIAN_POINT('',(30.346502073513,0.622977507227,205.));
#183 = CARTESIAN_POINT('',(29.697127504975,0.702059057783,0.));
#184 = CARTESIAN_POINT('',(29.697127504975,0.702059057783,205.));
#185 = CARTESIAN_POINT('',(29.01317857489,0.783427826682,0.));
#186 = CARTESIAN_POINT('',(29.01317857489,0.783427826682,205.));
#187 = CARTESIAN_POINT('',(28.29659411724,0.866597617963,0.));
#188 = CARTESIAN_POINT('',(28.29659411724,0.866597617963,205.));
#189 = CARTESIAN_POINT('',(27.549405488748,0.951079363436,0.));
#190 = CARTESIAN_POINT('',(27.549405488748,0.951079363436,205.));
#191 = CARTESIAN_POINT('',(26.773730809766,1.036380595781,0.));
#192 = CARTESIAN_POINT('',(26.773730809766,1.036380595781,205.));
#193 = CARTESIAN_POINT('',(25.971768940986,1.12200430452,0.));
#194 = CARTESIAN_POINT('',(25.971768940986,1.12200430452,205.));
#195 = CARTESIAN_POINT('',(25.145793235237,1.207447269473,0.));
#196 = CARTESIAN_POINT('',(25.145793235237,1.207447269473,205.));
#197 = CARTESIAN_POINT('',(24.298145076464,1.292198118834,0.));
#198 = CARTESIAN_POINT('',(24.298145076464,1.292198118834,205.));
#199 = CARTESIAN_POINT('',(23.431227226558,1.375735350172,0.));
#200 = CARTESIAN_POINT('',(23.431227226558,1.375735350172,205.));
#201 = CARTESIAN_POINT('',(22.547496999033,1.457525574318,0.));
#202 = CARTESIAN_POINT('',(22.547496999033,1.457525574318,205.));
#203 = CARTESIAN_POINT('',(21.649459279689,1.537022238291,0.));
#204 = CARTESIAN_POINT('',(21.649459279689,1.537022238291,205.));
#205 = CARTESIAN_POINT('',(20.739659414721,1.613665069325,0.));
#206 = CARTESIAN_POINT('',(20.739659414721,1.613665069325,205.));
#207 = CARTESIAN_POINT('',(19.820675987132,1.686880453924,0.));
#208 = CARTESIAN_POINT('',(19.820675987132,1.686880453924,205.));
#209 = CARTESIAN_POINT('',(18.895113502608,1.756082925742,0.));
#210 = CARTESIAN_POINT('',(18.895113502608,1.756082925742,205.));
#211 = CARTESIAN_POINT('',(17.965595006094,1.820677885341,0.));
#212 = CARTESIAN_POINT('',(17.965595006094,1.820677885341,205.));
#213 = CARTESIAN_POINT('',(17.034754650291,1.880065615824,0.));
#214 = CARTESIAN_POINT('',(17.034754650291,1.880065615824,205.));
#215 = CARTESIAN_POINT('',(16.10523023707,1.933646593432,0.));
#216 = CARTESIAN_POINT('',(16.10523023707,1.933646593432,205.));
#217 = CARTESIAN_POINT('',(15.17965575237,1.980828024434,0.));
#218 = CARTESIAN_POINT('',(15.17965575237,1.980828024434,205.));
#219 = CARTESIAN_POINT('',(14.260653914556,2.021031472169,0.));
#220 = CARTESIAN_POINT('',(14.260653914556,2.021031472169,205.));
#221 = CARTESIAN_POINT('',(13.350828755466,2.053701373975,0.));
#222 = CARTESIAN_POINT('',(13.350828755466,2.053701373975,205.));
#223 = CARTESIAN_POINT('',(12.452758252492,2.078314190189,0.));
#224 = CARTESIAN_POINT('',(12.452758252492,2.078314190189,205.));
#225 = CARTESIAN_POINT('',(11.56898702901,2.094387879156,0.));
#226 = CARTESIAN_POINT('',(11.56898702901,2.094387879156,205.));
#227 = CARTESIAN_POINT('',(10.702019139398,2.10149135581,0.));
#228 = CARTESIAN_POINT('',(10.702019139398,2.10149135581,205.));
#229 = CARTESIAN_POINT('',(9.85431095361,2.099253568924,0.));
#230 = CARTESIAN_POINT('',(9.85431095361,2.099253568924,205.));
#231 = CARTESIAN_POINT('',(9.028264154808,2.087371824971,0.));
#232 = CARTESIAN_POINT('',(9.028264154808,2.087371824971,205.));
#233 = CARTESIAN_POINT('',(8.226218861682,2.065618995593,0.));
#234 = CARTESIAN_POINT('',(8.226218861682,2.065618995593,205.));
#235 = CARTESIAN_POINT('',(7.450446884456,2.033849271017,0.));
#236 = CARTESIAN_POINT('',(7.450446884456,2.033849271017,205.));
#237 = CARTESIAN_POINT('',(6.703145119642,1.992002162786,0.));
#238 = CARTESIAN_POINT('',(6.703145119642,1.992002162786,205.));
#239 = CARTESIAN_POINT('',(5.986429082337,1.940104514475,0.));
#240 = CARTESIAN_POINT('',(5.986429082337,1.940104514475,205.));
#241 = CARTESIAN_POINT('',(5.302326564688,1.87827034632,0.));
#242 = CARTESIAN_POINT('',(5.302326564688,1.87827034632,205.));
#243 = CARTESIAN_POINT('',(4.652771392262,1.80669843551,0.));
#244 = CARTESIAN_POINT('',(4.652771392262,1.80669843551,205.));
#245 = CARTESIAN_POINT('',(4.039597221948,1.725667612829,0.));
#246 = CARTESIAN_POINT('',(4.039597221948,1.725667612829,205.));
#247 = CARTESIAN_POINT('',(3.464531276979,1.635529830663,0.));
#248 = CARTESIAN_POINT('',(3.464531276979,1.635529830663,205.));
#249 = CARTESIAN_POINT('',(2.929187834844,1.536701108153,0.));
#250 = CARTESIAN_POINT('',(2.929187834844,1.536701108153,205.));
#251 = CARTESIAN_POINT('',(2.435061141104,1.429650465057,0.));
#252 = CARTESIAN_POINT('',(2.435061141104,1.429650465057,205.));
#253 = CARTESIAN_POINT('',(1.983517202299,1.314886806402,0.));
#254 = CARTESIAN_POINT('',(1.983517202299,1.314886806402,205.));
#255 = CARTESIAN_POINT('',(1.575783483158,1.192943369475,0.));
#256 = CARTESIAN_POINT('',(1.575783483158,1.192943369475,205.));
#257 = CARTESIAN_POINT('',(1.212935150705,1.064357964513,0.));
#258 = CARTESIAN_POINT('',(1.212935150705,1.064357964513,205.));
#259 = CARTESIAN_POINT('',(0.895875592722,0.929645187349,0.));
#260 = CARTESIAN_POINT('',(0.895875592722,0.929645187349,205.));
#261 = CARTESIAN_POINT('',(0.62531204061,0.789247531524,0.));
#262 = CARTESIAN_POINT('',(0.62531204061,0.789247531524,205.));
#263 = CARTESIAN_POINT('',(0.401733184817,0.643446194689,0.));
#264 = CARTESIAN_POINT('',(0.401733184817,0.643446194689,205.));
#265 = CARTESIAN_POINT('',(0.225460001562,0.492171174349,0.));
#266 = CARTESIAN_POINT('',(0.225460001562,0.492171174349,205.));
#267 = CARTESIAN_POINT('',(9.694238675427E-02,0.334779891983,0.));
#268 = CARTESIAN_POINT('',(9.694238675427E-02,0.334779891983,205.));
#269 = CARTESIAN_POINT('',(1.777443048462E-02,0.17010528297,0.));
#270 = CARTESIAN_POINT('',(1.777443048462E-02,0.17010528297,205.));
#271 = CARTESIAN_POINT('',(-8.611405012169E-03,5.533606966742E-18,0.));
#272 = CARTESIAN_POINT('',(-8.611405012169E-03,5.533606966742E-18,205.)
  );
#273 = CARTESIAN_POINT('',(1.777443048462E-02,-0.17010528297,0.));
#274 = CARTESIAN_POINT('',(1.777443048462E-02,-0.17010528297,205.));
#275 = CARTESIAN_POINT('',(9.694238675427E-02,-0.334779891983,0.));
#276 = CARTESIAN_POINT('',(9.694238675427E-02,-0.334779891983,205.));
#277 = CARTESIAN_POINT('',(0.225460001562,-0.492171174349,0.));
#278 = CARTESIAN_POINT('',(0.225460001562,-0.492171174349,205.));
#279 = CARTESIAN_POINT('',(0.401733184817,-0.643446194689,0.));
#280 = CARTESIAN_POINT('',(0.401733184817,-0.643446194689,205.));
#281 = CARTESIAN_POINT('',(0.62531204061,-0.789247531524,0.));
#282 = CARTESIAN_POINT('',(0.62531204061,-0.789247531524,205.));
#283 = CARTESIAN_POINT('',(0.895875592722,-0.929645187349,0.));
#284 = CARTESIAN_POINT('',(0.895875592722,-0.929645187349,205.));
#285 = CARTESIAN_POINT('',(1.212935150705,-1.064357964513,0.));
#286 = CARTESIAN_POINT('',(1.212935150705,-1.064357964513,205.));
#287 = CARTESIAN_POINT('',(1.575783483158,-1.192943369475,0.));
#288 = CARTESIAN_POINT('',(1.575783483158,-1.192943369475,205.));
#289 = CARTESIAN_POINT('',(1.983517202299,-1.314886806402,0.));
#290 = CARTESIAN_POINT('',(1.983517202299,-1.314886806402,205.));
#291 = CARTESIAN_POINT('',(2.435061141104,-1.429650465057,0.));
#292 = CARTESIAN_POINT('',(2.435061141104,-1.429650465057,205.));
#293 = CARTESIAN_POINT('',(2.929187834844,-1.536701108153,0.));
#294 = CARTESIAN_POINT('',(2.929187834844,-1.536701108153,205.));
#295 = CARTESIAN_POINT('',(3.464531276979,-1.635529830663,0.));
#296 = CARTESIAN_POINT('',(3.464531276979,-1.635529830663,205.));
#297 = CARTESIAN_POINT('',(4.039597221948,-1.725667612829,0.));
#298 = CARTESIAN_POINT('',(4.039597221948,-1.725667612829,205.));
#299 = CARTESIAN_POINT('',(4.652771392262,-1.80669843551,0.));
#300 = CARTESIAN_POINT('',(4.652771392262,-1.80669843551,205.));
#301 = CARTESIAN_POINT('',(5.302326564688,-1.87827034632,0.));
#302 = CARTESIAN_POINT('',(5.302326564688,-1.87827034632,205.));
#303 = CARTESIAN_POINT('',(5.986429082337,-1.940104514475,0.));
#304 = CARTESIAN_POINT('',(5.986429082337,-1.940104514475,205.));
#305 = CARTESIAN_POINT('',(6.703145119642,-1.992002162786,0.));
#306 = CARTESIAN_POINT('',(6.703145119642,-1.992002162786,205.));
#307 = CARTESIAN_POINT('',(7.450446884456,-2.033849271017,0.));
#308 = CARTESIAN_POINT('',(7.450446884456,-2.033849271017,205.));
#309 = CARTESIAN_POINT('',(8.226218861682,-2.065618995593,0.));
#310 = CARTESIAN_POINT('',(8.226218861682,-2.065618995593,205.));
#311 = CARTESIAN_POINT('',(9.028264154808,-2.087371824971,0.));
#312 = CARTESIAN_POINT('',(9.028264154808,-2.087371824971,205.));
#313 = CARTESIAN_POINT('',(9.85431095361,-2.099253568924,0.));
#314 = CARTESIAN_POINT('',(9.85431095361,-2.099253568924,205.));
#315 = CARTESIAN_POINT('',(10.702019139398,-2.10149135581,0.));
#316 = CARTESIAN_POINT('',(10.702019139398,-2.10149135581,205.));
#317 = CARTESIAN_POINT('',(11.56898702901,-2.094387879156,0.));
#318 = CARTESIAN_POINT('',(11.56898702901,-2.094387879156,205.));
#319 = CARTESIAN_POINT('',(12.452758252492,-2.078314190189,0.));
#320 = CARTESIAN_POINT('',(12.452758252492,-2.078314190189,205.));
#321 = CARTESIAN_POINT('',(13.350828755466,-2.053701373975,0.));
#322 = CARTESIAN_POINT('',(13.350828755466,-2.053701373975,205.));
#323 = CARTESIAN_POINT('',(14.260653914556,-2.021031472169,0.));
#324 = CARTESIAN_POINT('',(14.260653914556,-2.021031472169,205.));
#325 = CARTESIAN_POINT('',(15.17965575237,-1.980828024434,0.));
#326 = CARTESIAN_POINT('',(15.17965575237,-1.980828024434,205.));
#327 = CARTESIAN_POINT('',(16.10523023707,-1.933646593432,0.));
#328 = CARTESIAN_POINT('',(16.10523023707,-1.933646593432,205.));
#329 = CARTESIAN_POINT('',(17.034754650291,-1.880065615824,0.));
#330 = CARTESIAN_POINT('',(17.034754650291,-1.880065615824,205.));
#331 = CARTESIAN_POINT('',(17.965595006094,-1.820677885341,0.));
#332 = CARTESIAN_POINT('',(17.965595006094,-1.820677885341,205.));
#333 = CARTESIAN_POINT('',(18.895113502608,-1.756082925742,0.));
#334 = CARTESIAN_POINT('',(18.895113502608,-1.756082925742,205.));
#335 = CARTESIAN_POINT('',(19.820675987132,-1.686880453924,0.));
#336 = CARTESIAN_POINT('',(19.820675987132,-1.686880453924,205.));
#337 = CARTESIAN_POINT('',(20.739659414721,-1.613665069325,0.));
#338 = CARTESIAN_POINT('',(20.739659414721,-1.613665069325,205.));
#339 = CARTESIAN_POINT('',(21.649459279689,-1.537022238291,0.));
#340 = CARTESIAN_POINT('',(21.649459279689,-1.537022238291,205.));
#341 = CARTESIAN_POINT('',(22.547496999033,-1.457525574318,0.));
#342 = CARTESIAN_POINT('',(22.547496999033,-1.457525574318,205.));
#343 = CARTESIAN_POINT('',(23.431227226558,-1.375735350172,0.));
#344 = CARTESIAN_POINT('',(23.431227226558,-1.375735350172,205.));
#345 = CARTESIAN_POINT('',(24.298145076464,-1.292198118834,0.));
#346 = CARTESIAN_POINT('',(24.298145076464,-1.292198118834,205.));
#347 = CARTESIAN_POINT('',(25.145793235237,-1.207447269473,0.));
#348 = CARTESIAN_POINT('',(25.145793235237,-1.207447269473,205.));
#349 = CARTESIAN_POINT('',(25.971768940986,-1.12200430452,0.));
#350 = CARTESIAN_POINT('',(25.971768940986,-1.12200430452,205.));
#351 = CARTESIAN_POINT('',(26.773730809766,-1.036380595781,0.));
#352 = CARTESIAN_POINT('',(26.773730809766,-1.036380595781,205.));
#353 = CARTESIAN_POINT('',(27.549405488748,-0.951079363436,0.));
#354 = CARTESIAN_POINT('',(27.549405488748,-0.951079363436,205.));
#355 = CARTESIAN_POINT('',(28.29659411724,-0.866597617963,0.));
#356 = CARTESIAN_POINT('',(28.29659411724,-0.866597617963,205.));
#357 = CARTESIAN_POINT('',(29.01317857489,-0.783427826682,0.));
#358 = CARTESIAN_POINT('',(29.01317857489,-0.783427826682,205.));
#359 = CARTESIAN_POINT('',(29.697127504975,-0.702059057783,0.));
#360 = CARTESIAN_POINT('',(29.697127504975,-0.702059057783,205.));
#361 = CARTESIAN_POINT('',(30.346502073513,-0.622977507227,0.));
#362 = CARTESIAN_POINT('',(30.346502073513,-0.622977507227,205.));
#363 = CARTESIAN_POINT('',(30.959461522078,-0.54666595327,0.));
#364 = CARTESIAN_POINT('',(30.959461522078,-0.54666595327,205.));
#365 = CARTESIAN_POINT('',(31.534268241277,-0.473603128302,0.));
#366 = CARTESIAN_POINT('',(31.534268241277,-0.473603128302,205.));
#367 = CARTESIAN_POINT('',(32.069293222908,-0.404259304694,0.));
#368 = CARTESIAN_POINT('',(32.069293222908,-0.404259304694,205.));
#369 = CARTESIAN_POINT('',(32.563018938619,-0.339100458683,0.));
#370 = CARTESIAN_POINT('',(32.563018938619,-0.339100458683,205.));
#371 = CARTESIAN_POINT('',(33.014049392765,-0.278560082742,0.));
#372 = CARTESIAN_POINT('',(33.014049392765,-0.278560082742,205.));
#373 = CARTESIAN_POINT('',(33.421095366737,-0.223113083451,0.));
#374 = CARTESIAN_POINT('',(33.421095366737,-0.223113083451,205.));
#375 = CARTESIAN_POINT('',(33.783037787214,-0.173019465594,0.));
#376 = CARTESIAN_POINT('',(33.783037787214,-0.173019465594,205.));
#377 = CARTESIAN_POINT('',(34.098744530803,-0.129101994931,0.));
#378 = CARTESIAN_POINT('',(34.098744530803,-0.129101994931,205.));
#379 = CARTESIAN_POINT('',(34.367638528482,-9.036596204662E-02,0.));
#380 = CARTESIAN_POINT('',(34.367638528482,-9.036596204662E-02,205.));
#381 = CARTESIAN_POINT('',(34.588050947876,-6.092249894463E-02,0.));
#382 = CARTESIAN_POINT('',(34.588050947876,-6.092249894463E-02,205.));
#383 = CARTESIAN_POINT('',(34.761789273588,-3.080158849159E-02,0.));
#384 = CARTESIAN_POINT('',(34.761789273588,-3.080158849159E-02,205.));
#385 = CARTESIAN_POINT('',(34.882446352219,-2.50690420617E-02,0.));
#386 = CARTESIAN_POINT('',(34.882446352219,-2.50690420617E-02,205.));
#387 = CARTESIAN_POINT('',(34.963626252161,7.748841949292E-03,0.));
#388 = CARTESIAN_POINT('',(34.963626252161,7.748841949292E-03,205.));
#389 = CARTESIAN_POINT('',(34.992455547997,-1.216440352651E-02,-0.));
#390 = CARTESIAN_POINT('',(34.992455547997,-1.216440352651E-02,205.));
#391 = CARTESIAN_POINT('',(35.,-2.1E-02,0.));
#392 = CARTESIAN_POINT('',(35.,-2.1E-02,205.));
#393 = DEFINITIONAL_REPRESENTATION('',(#394),#398);
#394 = LINE('',#395,#396);
#395 = CARTESIAN_POINT('',(0.,0.));
#396 = VECTOR('',#397,1.);
#397 = DIRECTION('',(1.,0.));
#398 = ( GEOMETRIC_REPRESENTATION_CONTEXT(2) 
PARAMETRIC_REPRESENTATION_CONTEXT() REPRESENTATION_CONTEXT('2D SPACE',''
  ) );
#399 = PCURVE('',#400,#405);
#400 = PLANE('',#401);
#401 = AXIS2_PLACEMENT_3D('',#402,#403,#404);
#402 = CARTESIAN_POINT('',(35.,2.1E-02,0.));
#403 = DIRECTION('',(0.,0.,1.));
#404 = DIRECTION('',(-0.99999982,-5.999998920002E-04,0.));
#405 = DEFINITIONAL_REPRESENTATION('',(#406),#528);
#406 = B_SPLINE_CURVE_WITH_KNOTS('',3,(#407,#408,#409,#410,#411,#412,
    #413,#414,#415,#416,#417,#418,#419,#420,#421,#422,#423,#424,#425,
    #426,#427,#428,#429,#430,#431,#432,#433,#434,#435,#436,#437,#438,
    #439,#440,#441,#442,#443,#444,#445,#446,#447,#448,#449,#450,#451,
    #452,#453,#454,#455,#456,#457,#458,#459,#460,#461,#462,#463,#464,
    #465,#466,#467,#468,#469,#470,#471,#472,#473,#474,#475,#476,#477,
    #478,#479,#480,#481,#482,#483,#484,#485,#486,#487,#488,#489,#490,
    #491,#492,#493,#494,#495,#496,#497,#498,#499,#500,#501,#502,#503,
    #504,#505,#506,#507,#508,#509,#510,#511,#512,#513,#514,#515,#516,
    #517,#518,#519,#520,#521,#522,#523,#524,#525,#526,#527),
  .UNSPECIFIED.,.F.,.F.,(4,1,1,1,1,1,1,1,1,1,1,1,1,1,1,1,1,1,1,1,1,1,1,1
    ,1,1,1,1,1,1,1,1,1,1,1,1,1,1,1,1,1,1,1,1,1,1,1,1,1,1,1,1,1,1,1,1,1,1
    ,1,1,1,1,1,1,1,1,1,1,1,1,1,1,1,1,1,1,1,1,1,1,1,1,1,1,1,1,1,1,1,1,1,1
    ,1,1,1,1,1,1,1,1,1,1,1,1,1,1,1,1,1,1,1,1,1,1,1,1,1,1,4),(0.,
    3.029555671839E-02,0.105411315626,0.230358243143,0.404768409449,
    0.628128840381,0.899783589078,1.218936324046,1.584653384396,
    1.995867249374,2.451380368946,2.949869305007,3.489889138159,
    4.069878102505,4.688162419675,5.342961312697,6.032392189671,
    6.754475995829,7.50714274017,8.288237208981,9.095524883147,
    9.926698079034,10.779382333862,11.65114305596,12.539492457893,
    13.441896786299,14.355783856225,15.278550889816,16.207572649449,
    17.140209844031,18.073817774588,19.005755172127,19.933393167912,
    20.854124324957,21.765371650993,22.664597508885,23.549312341984,
    24.41708314052,25.265541592281,26.092391887415,26.895418184472,
    27.672491793686,28.421578195896,29.140744094408,29.828164798349,
    30.482132370356,31.101065158406,31.683519606269,32.22820566248,
    32.734007797661,33.200014803084,33.625563568281,34.010305655798,
    34.354312085049,34.65824376799,34.923636104254,35.153377201477,
    35.352474447699,35.529066766948,35.695028106645,35.860989446342,
    36.037581765591,36.236679011813,36.466420109036,36.7318124453,
    37.035744128241,37.379750557492,37.764492645009,38.190041410206,
    38.656048415629,39.16185055081,39.706536607021,40.288991054884,
    40.907923842934,41.561891414941,42.249312118882,42.968478017394,
    43.717564419604,44.494638028818,45.297664325875,46.124514621009,
    46.97297307277,47.840743871307,48.725458704405,49.624684562297,
    50.535931888333,51.456663045378,52.384301041163,53.316238438702,
    54.249846369259,55.182483563841,56.111505323474,57.034272357065,
    57.948159426991,58.850563755397,59.73891315733,60.610673879428,
    61.463358134256,62.294531330143,63.10181900431,63.88291347312,
    64.635580217461,65.357664023619,66.047094900593,66.701893793615,
    67.320178110785,67.900167075131,68.440186908283,68.938675844344,
    69.394188963917,69.805402828894,70.171119889244,70.490272624212,
    70.761927372909,70.985287803841,71.159697970147,71.284644897664,
    71.359760656572,71.39005621329),.UNSPECIFIED.);
#407 = CARTESIAN_POINT('',(0.,0.));
#408 = CARTESIAN_POINT('',(7.549752001715E-03,8.831068212693E-03));
#409 = CARTESIAN_POINT('',(3.639099059356E-02,2.872701252972E-02));
#410 = CARTESIAN_POINT('',(0.117551185197,-4.139573505243E-03));
#411 = CARTESIAN_POINT('',(0.238204802582,-9.944513137427E-03));
#412 = CARTESIAN_POINT('',(0.411925024478,-4.016966114536E-02));
#413 = CARTESIAN_POINT('',(0.632319738123,-6.974536637537E-02));
#414 = CARTESIAN_POINT('',(0.901190445786,-0.108642728657));
#415 = CARTESIAN_POINT('',(1.216870782069,-0.152749615426));
#416 = CARTESIAN_POINT('',(1.578783081231,-0.20306038968));
#417 = CARTESIAN_POINT('',(1.985795713743,-0.258751606531));
#418 = CARTESIAN_POINT('',(2.436789762484,-0.319562589799));
#419 = CARTESIAN_POINT('',(2.930476294024,-0.385017659458));
#420 = CARTESIAN_POINT('',(3.465459573063,-0.454682485514));
#421 = CARTESIAN_POINT('',(4.040222351111,-0.5280901813));
#422 = CARTESIAN_POINT('',(4.653135902419,-0.604769497125));
#423 = CARTESIAN_POINT('',(5.302462905147,-0.684240658117));
#424 = CARTESIAN_POINT('',(5.986362890869,-0.766019781653));
#425 = CARTESIAN_POINT('',(6.702897317668,-0.849619508561));
#426 = CARTESIAN_POINT('',(7.450035122627,-0.934549551924));
#427 = CARTESIAN_POINT('',(8.225658481258,-1.020316173639));
#428 = CARTESIAN_POINT('',(9.027568831469,-1.106421044));
#429 = CARTESIAN_POINT('',(9.853493122772,-1.192359578907));
#430 = CARTESIAN_POINT('',(10.701090278469,-1.277619001817));
#431 = CARTESIAN_POINT('',(11.56795785,-1.361676368734));
#432 = CARTESIAN_POINT('',(12.451638844328,-1.443996816199));
#433 = CARTESIAN_POINT('',(13.349628704035,-1.524032288398));
#434 = CARTESIAN_POINT('',(14.259382419549,-1.601220985456));
#435 = CARTESIAN_POINT('',(15.178321752498,-1.674987746834));
#436 = CARTESIAN_POINT('',(16.103842548945,-1.744745543586));
#437 = CARTESIAN_POINT('',(17.033322121177,-1.809898202555));
#438 = CARTESIAN_POINT('',(17.964126676797,-1.869844426462));
#439 = CARTESIAN_POINT('',(18.893618774123,-1.923983108972));
#440 = CARTESIAN_POINT('',(19.819164783366,-1.971719876073));
#441 = CARTESIAN_POINT('',(20.738142333696,-2.012474717575));
#442 = CARTESIAN_POINT('',(21.647947727079,-2.045690508497));
#443 = CARTESIAN_POINT('',(22.546003300714,-2.070842162486));
#444 = CARTESIAN_POINT('',(23.429764720906,-2.087446111199));
#445 = CARTESIAN_POINT('',(24.296728192378,-2.095069767214));
#446 = CARTESIAN_POINT('',(25.14443756825,-2.093340605551));
#447 = CARTESIAN_POINT('',(25.970491347409,-2.081954491727));
#448 = CARTESIAN_POINT('',(26.772549547862,-2.060682893353));
#449 = CARTESIAN_POINT('',(27.548340447281,-2.029378637598));
#450 = CARTESIAN_POINT('',(28.295667185841,-1.987979917877));
#451 = CARTESIAN_POINT('',(29.01241423272,-1.936512308454));
#452 = CARTESIAN_POINT('',(29.696553727725,-1.875088612865));
#453 = CARTESIAN_POINT('',(30.34615172637,-1.803906447972));
#454 = CARTESIAN_POINT('',(30.959374404797,-1.723243544313));
#455 = CARTESIAN_POINT('',(31.534494328914,-1.633450817876));
#456 = CARTESIAN_POINT('',(32.06989697191,-1.534943319163));
#457 = CARTESIAN_POINT('',(32.564087807082,-1.428189171298));
#458 = CARTESIAN_POINT('',(33.015700522792,-1.313696459615));
#459 = CARTESIAN_POINT('',(33.42350733459,-1.191997684825));
#460 = CARTESIAN_POINT('',(33.786432752959,-1.06363001197));
#461 = CARTESIAN_POINT('',(34.103573081523,-0.929107494754));
#462 = CARTESIAN_POINT('',(34.374220823512,-0.788872202302));
#463 = CARTESIAN_POINT('',(34.597887119847,-0.643205039001));
#464 = CARTESIAN_POINT('',(34.774251036369,-0.492035809782));
#465 = CARTESIAN_POINT('',(34.902863062796,-0.334721666301));
#466 = CARTESIAN_POINT('',(34.982129809563,-0.170094587695));
#467 = CARTESIAN_POINT('',(35.008617703462,-5.1668420844E-06));
#468 = CARTESIAN_POINT('',(34.982333935866,0.170115917008));
#469 = CARTESIAN_POINT('',(34.903264798594,0.334837997144));
#470 = CARTESIAN_POINT('',(34.774841641672,0.492306361735));
#471 = CARTESIAN_POINT('',(34.598659255142,0.643687118736));
#472 = CARTESIAN_POINT('',(34.375167920379,0.789622576616));
#473 = CARTESIAN_POINT('',(34.104688655547,0.930182545271));
#474 = CARTESIAN_POINT('',(33.787709982287,1.065085533889));
#475 = CARTESIAN_POINT('',(33.424938866375,1.193888624665));
#476 = CARTESIAN_POINT('',(33.017278386675,1.31607667983));
#477 = CARTESIAN_POINT('',(32.565803387331,1.431111244141));
#478 = CARTESIAN_POINT('',(32.071741012908,1.538458343932));
#479 = CARTESIAN_POINT('',(31.536456964357,1.63760825466));
#480 = CARTESIAN_POINT('',(30.96144520556,1.728091060106));
#481 = CARTESIAN_POINT('',(30.348319764102,1.809489772638));
#482 = CARTESIAN_POINT('',(29.698807651735,1.881451403598));
#483 = CARTESIAN_POINT('',(29.014742357718,1.943696022059));
#484 = CARTESIAN_POINT('',(28.298057588006,1.996023690573));
#485 = CARTESIAN_POINT('',(27.550781065967,2.03831917225));
#486 = CARTESIAN_POINT('',(26.775028290211,2.070554354211));
#487 = CARTESIAN_POINT('',(25.972996193148,2.092788406762));
#488 = CARTESIAN_POINT('',(25.14695667208,2.105165776566));
#489 = CARTESIAN_POINT('',(24.299249981551,2.107912187869));
#490 = CARTESIAN_POINT('',(23.432277985908,2.101328893134));
#491 = CARTESIAN_POINT('',(22.548497277293,2.0857854697));
#492 = CARTESIAN_POINT('',(21.650412168284,2.06171150012));
#493 = CARTESIAN_POINT('',(20.740567571026,2.029587499192));
#494 = CARTESIAN_POINT('',(19.821541776567,1.989935459697));
#495 = CARTESIAN_POINT('',(18.895939149617,1.943309381778));
#496 = CARTESIAN_POINT('',(17.96638275513,1.890286128363));
#497 = CARTESIAN_POINT('',(17.035506934246,1.831456912682));
#498 = CARTESIAN_POINT('',(16.105949848076,1.767419675708));
#499 = CARTESIAN_POINT('',(15.180346008679,1.698772553737));
#500 = CARTESIAN_POINT('',(14.261318817284,1.626108572274));
#501 = CARTESIAN_POINT('',(13.351473130389,1.550011634857));
#502 = CARTESIAN_POINT('',(12.453387874702,1.471053807728));
#503 = CARTESIAN_POINT('',(11.569608732123,1.389793836345));
#504 = CARTESIAN_POINT('',(10.702640915932,1.30677677066));
#505 = CARTESIAN_POINT('',(9.854942059235,1.222534525358));
#506 = CARTESIAN_POINT('',(9.028915236392,1.137587161119));
#507 = CARTESIAN_POINT('',(8.226902137749,1.052444644827));
#508 = CARTESIAN_POINT('',(7.451176417658,0.96760883256));
#509 = CARTESIAN_POINT('',(6.703937234622,0.88357541539));
#510 = CARTESIAN_POINT('',(5.987303004092,0.800835589676));
#511 = CARTESIAN_POINT('',(5.303305375865,0.719877204708));
#512 = CARTESIAN_POINT('',(4.653883475293,0.641185293058));
#513 = CARTESIAN_POINT('',(4.040878350136,0.56524152844));
#514 = CARTESIAN_POINT('',(3.466027896715,0.492523600592));
#515 = CARTESIAN_POINT('',(2.930961405102,0.423500804398));
#516 = CARTESIAN_POINT('',(2.437196682961,0.358638205492));
#517 = CARTESIAN_POINT('',(1.986129985782,0.298368458671));
#518 = CARTESIAN_POINT('',(1.579050816883,0.243165696901));
#519 = CARTESIAN_POINT('',(1.217078405391,0.193289253474));
#520 = CARTESIAN_POINT('',(0.901345368152,0.149561214729));
#521 = CARTESIAN_POINT('',(0.632428177258,0.110986525186));
#522 = CARTESIAN_POINT('',(0.411998131464,8.16753148118E-02));
#523 = CARTESIAN_POINT('',(0.238241764482,5.165865275719E-02));
#524 = CARTESIAN_POINT('',(0.117581268042,4.59985015933E-02));
#525 = CARTESIAN_POINT('',(3.638169198491E-02,1.322933142073E-02));
#526 = CARTESIAN_POINT('',(7.564349283321E-03,3.315987088654E-02));
#527 = CARTESIAN_POINT('',(2.51999954628E-05,4.199999244E-02));
#528 = ( GEOMETRIC_REPRESENTATION_CONTEXT(2) 
PARAMETRIC_REPRESENTATION_CONTEXT() REPRESENTATION_CONTEXT('2D SPACE',''
  ) );
#529 = ORIENTED_EDGE('',*,*,#530,.T.);
#530 = EDGE_CURVE('',#24,#531,#533,.T.);
#531 = VERTEX_POINT('',#532);
#532 = CARTESIAN_POINT('',(35.,-2.1E-02,205.));
#533 = SURFACE_CURVE('',#534,(#537,#544),.PCURVE_S1.);
#534 = B_SPLINE_CURVE_WITH_KNOTS('',1,(#535,#536),.UNSPECIFIED.,.F.,.F.,
  (2,2),(0.,1.),.PIECEWISE_BEZIER_KNOTS.);
#535 = CARTESIAN_POINT('',(35.,-2.1E-02,0.));
#536 = CARTESIAN_POINT('',(35.,-2.1E-02,205.));
#537 = PCURVE('',#150,#538);
#538 = DEFINITIONAL_REPRESENTATION('',(#539),#543);
#539 = LINE('',#540,#541);
#540 = CARTESIAN_POINT('',(71.39005621329,0.));
#541 = VECTOR('',#542,1.);
#542 = DIRECTION('',(0.,1.));
#543 = ( GEOMETRIC_REPRESENTATION_CONTEXT(2) 
PARAMETRIC_REPRESENTATION_CONTEXT() REPRESENTATION_CONTEXT('2D SPACE',''
  ) );
#544 = PCURVE('',#545,#550);
#545 = PLANE('',#546);
#546 = AXIS2_PLACEMENT_3D('',#547,#548,#549);
#547 = CARTESIAN_POINT('',(35.,-2.1E-02,205.));
#548 = DIRECTION('',(1.,0.,0.));
#549 = DIRECTION('',(-0.,1.,0.));
#550 = DEFINITIONAL_REPRESENTATION('',(#551),#554);
#551 = B_SPLINE_CURVE_WITH_KNOTS('',1,(#552,#553),.UNSPECIFIED.,.F.,.F.,
  (2,2),(0.,1.),.PIECEWISE_BEZIER_KNOTS.);
#552 = CARTESIAN_POINT('',(0.,-205.));
#553 = CARTESIAN_POINT('',(0.,0.));
#554 = ( GEOMETRIC_REPRESENTATION_CONTEXT(2) 
PARAMETRIC_REPRESENTATION_CONTEXT() REPRESENTATION_CONTEXT('2D SPACE',''
  ) );
#555 = ORIENTED_EDGE('',*,*,#556,.F.);
#556 = EDGE_CURVE('',#557,#531,#559,.T.);
#557 = VERTEX_POINT('',#558);
#558 = CARTESIAN_POINT('',(35.,2.1E-02,205.));
#559 = SURFACE_CURVE('',#560,(#682,#689),.PCURVE_S1.);
#560 = B_SPLINE_CURVE_WITH_KNOTS('',3,(#561,#562,#563,#564,#565,#566,
    #567,#568,#569,#570,#571,#572,#573,#574,#575,#576,#577,#578,#579,
    #580,#581,#582,#583,#584,#585,#586,#587,#588,#589,#590,#591,#592,
    #593,#594,#595,#596,#597,#598,#599,#600,#601,#602,#603,#604,#605,
    #606,#607,#608,#609,#610,#611,#612,#613,#614,#615,#616,#617,#618,
    #619,#620,#621,#622,#623,#624,#625,#626,#627,#628,#629,#630,#631,
    #632,#633,#634,#635,#636,#637,#638,#639,#640,#641,#642,#643,#644,
    #645,#646,#647,#648,#649,#650,#651,#652,#653,#654,#655,#656,#657,
    #658,#659,#660,#661,#662,#663,#664,#665,#666,#667,#668,#669,#670,
    #671,#672,#673,#674,#675,#676,#677,#678,#679,#680,#681),
  .UNSPECIFIED.,.F.,.F.,(4,1,1,1,1,1,1,1,1,1,1,1,1,1,1,1,1,1,1,1,1,1,1,1
    ,1,1,1,1,1,1,1,1,1,1,1,1,1,1,1,1,1,1,1,1,1,1,1,1,1,1,1,1,1,1,1,1,1,1
    ,1,1,1,1,1,1,1,1,1,1,1,1,1,1,1,1,1,1,1,1,1,1,1,1,1,1,1,1,1,1,1,1,1,1
    ,1,1,1,1,1,1,1,1,1,1,1,1,1,1,1,1,1,1,1,1,1,1,1,1,1,1,4),(0.,
    3.029555671839E-02,0.105411315626,0.230358243143,0.404768409449,
    0.628128840381,0.899783589078,1.218936324046,1.584653384396,
    1.995867249374,2.451380368946,2.949869305007,3.489889138159,
    4.069878102505,4.688162419675,5.342961312697,6.032392189671,
    6.754475995829,7.50714274017,8.288237208981,9.095524883147,
    9.926698079034,10.779382333862,11.65114305596,12.539492457893,
    13.441896786299,14.355783856225,15.278550889816,16.207572649449,
    17.140209844031,18.073817774588,19.005755172127,19.933393167912,
    20.854124324957,21.765371650993,22.664597508885,23.549312341984,
    24.41708314052,25.265541592281,26.092391887415,26.895418184472,
    27.672491793686,28.421578195896,29.140744094408,29.828164798349,
    30.482132370356,31.101065158406,31.683519606269,32.22820566248,
    32.734007797661,33.200014803084,33.625563568281,34.010305655798,
    34.354312085049,34.65824376799,34.923636104254,35.153377201477,
    35.352474447699,35.529066766948,35.695028106645,35.860989446342,
    36.037581765591,36.236679011813,36.466420109036,36.7318124453,
    37.035744128241,37.379750557492,37.764492645009,38.190041410206,
    38.656048415629,39.16185055081,39.706536607021,40.288991054884,
    40.907923842934,41.561891414941,42.249312118882,42.968478017394,
    43.717564419604,44.494638028818,45.297664325875,46.124514621009,
    46.97297307277,47.840743871307,48.725458704405,49.624684562297,
    50.535931888333,51.456663045378,52.384301041163,53.316238438702,
    54.249846369259,55.182483563841,56.111505323474,57.034272357065,
    57.948159426991,58.850563755397,59.73891315733,60.610673879428,
    61.463358134256,62.294531330143,63.10181900431,63.88291347312,
    64.635580217461,65.357664023619,66.047094900593,66.701893793615,
    67.320178110785,67.900167075131,68.440186908283,68.938675844344,
    69.394188963917,69.805402828894,70.171119889244,70.490272624212,
    70.761927372909,70.985287803841,71.159697970147,71.284644897664,
    71.359760656572,71.39005621329),.UNSPECIFIED.);
#561 = CARTESIAN_POINT('',(35.,2.1E-02,205.));
#562 = CARTESIAN_POINT('',(34.992455547997,1.216440352651E-02,205.));
#563 = CARTESIAN_POINT('',(34.963626252161,-7.748841949289E-03,205.));
#564 = CARTESIAN_POINT('',(34.882446352219,2.50690420617E-02,205.));
#565 = CARTESIAN_POINT('',(34.761789273588,3.080158849159E-02,205.));
#566 = CARTESIAN_POINT('',(34.588050947876,6.092249894463E-02,205.));
#567 = CARTESIAN_POINT('',(34.367638528482,9.036596204662E-02,205.));
#568 = CARTESIAN_POINT('',(34.098744530803,0.129101994931,205.));
#569 = CARTESIAN_POINT('',(33.783037787214,0.173019465594,205.));
#570 = CARTESIAN_POINT('',(33.421095366738,0.223113083451,205.));
#571 = CARTESIAN_POINT('',(33.014049392765,0.278560082742,205.));
#572 = CARTESIAN_POINT('',(32.563018938619,0.339100458683,205.));
#573 = CARTESIAN_POINT('',(32.069293222908,0.404259304694,205.));
#574 = CARTESIAN_POINT('',(31.534268241277,0.473603128302,205.));
#575 = CARTESIAN_POINT('',(30.959461522078,0.54666595327,205.));
#576 = CARTESIAN_POINT('',(30.346502073513,0.622977507227,205.));
#577 = CARTESIAN_POINT('',(29.697127504975,0.702059057783,205.));
#578 = CARTESIAN_POINT('',(29.01317857489,0.783427826682,205.));
#579 = CARTESIAN_POINT('',(28.29659411724,0.866597617963,205.));
#580 = CARTESIAN_POINT('',(27.549405488748,0.951079363436,205.));
#581 = CARTESIAN_POINT('',(26.773730809766,1.036380595781,205.));
#582 = CARTESIAN_POINT('',(25.971768940986,1.12200430452,205.));
#583 = CARTESIAN_POINT('',(25.145793235237,1.207447269473,205.));
#584 = CARTESIAN_POINT('',(24.298145076464,1.292198118834,205.));
#585 = CARTESIAN_POINT('',(23.431227226558,1.375735350172,205.));
#586 = CARTESIAN_POINT('',(22.547496999033,1.457525574318,205.));
#587 = CARTESIAN_POINT('',(21.649459279689,1.537022238291,205.));
#588 = CARTESIAN_POINT('',(20.739659414721,1.613665069325,205.));
#589 = CARTESIAN_POINT('',(19.820675987132,1.686880453924,205.));
#590 = CARTESIAN_POINT('',(18.895113502608,1.756082925742,205.));
#591 = CARTESIAN_POINT('',(17.965595006094,1.820677885341,205.));
#592 = CARTESIAN_POINT('',(17.034754650291,1.880065615824,205.));
#593 = CARTESIAN_POINT('',(16.10523023707,1.933646593432,205.));
#594 = CARTESIAN_POINT('',(15.17965575237,1.980828024434,205.));
#595 = CARTESIAN_POINT('',(14.260653914556,2.021031472169,205.));
#596 = CARTESIAN_POINT('',(13.350828755466,2.053701373975,205.));
#597 = CARTESIAN_POINT('',(12.452758252492,2.078314190189,205.));
#598 = CARTESIAN_POINT('',(11.56898702901,2.094387879156,205.));
#599 = CARTESIAN_POINT('',(10.702019139398,2.10149135581,205.));
#600 = CARTESIAN_POINT('',(9.85431095361,2.099253568924,205.));
#601 = CARTESIAN_POINT('',(9.028264154808,2.087371824971,205.));
#602 = CARTESIAN_POINT('',(8.226218861682,2.065618995593,205.));
#603 = CARTESIAN_POINT('',(7.450446884456,2.033849271017,205.));
#604 = CARTESIAN_POINT('',(6.703145119642,1.992002162786,205.));
#605 = CARTESIAN_POINT('',(5.986429082337,1.940104514475,205.));
#606 = CARTESIAN_POINT('',(5.302326564688,1.87827034632,205.));
#607 = CARTESIAN_POINT('',(4.652771392262,1.80669843551,205.));
#608 = CARTESIAN_POINT('',(4.039597221948,1.725667612829,205.));
#609 = CARTESIAN_POINT('',(3.464531276979,1.635529830663,205.));
#610 = CARTESIAN_POINT('',(2.929187834844,1.536701108153,205.));
#611 = CARTESIAN_POINT('',(2.435061141104,1.429650465057,205.));
#612 = CARTESIAN_POINT('',(1.983517202299,1.314886806402,205.));
#613 = CARTESIAN_POINT('',(1.575783483158,1.192943369475,205.));
#614 = CARTESIAN_POINT('',(1.212935150705,1.064357964513,205.));
#615 = CARTESIAN_POINT('',(0.895875592722,0.929645187349,205.));
#616 = CARTESIAN_POINT('',(0.62531204061,0.789247531524,205.));
#617 = CARTESIAN_POINT('',(0.401733184817,0.643446194689,205.));
#618 = CARTESIAN_POINT('',(0.225460001562,0.492171174349,205.));
#619 = CARTESIAN_POINT('',(9.694238675427E-02,0.334779891983,205.));
#620 = CARTESIAN_POINT('',(1.777443048462E-02,0.17010528297,205.));
#621 = CARTESIAN_POINT('',(-8.611405012169E-03,5.533606966742E-18,205.)
  );
#622 = CARTESIAN_POINT('',(1.777443048462E-02,-0.17010528297,205.));
#623 = CARTESIAN_POINT('',(9.694238675427E-02,-0.334779891983,205.));
#624 = CARTESIAN_POINT('',(0.225460001562,-0.492171174349,205.));
#625 = CARTESIAN_POINT('',(0.401733184817,-0.643446194689,205.));
#626 = CARTESIAN_POINT('',(0.62531204061,-0.789247531524,205.));
#627 = CARTESIAN_POINT('',(0.895875592722,-0.929645187349,205.));
#628 = CARTESIAN_POINT('',(1.212935150705,-1.064357964513,205.));
#629 = CARTESIAN_POINT('',(1.575783483158,-1.192943369475,205.));
#630 = CARTESIAN_POINT('',(1.983517202299,-1.314886806402,205.));
#631 = CARTESIAN_POINT('',(2.435061141104,-1.429650465057,205.));
#632 = CARTESIAN_POINT('',(2.929187834844,-1.536701108153,205.));
#633 = CARTESIAN_POINT('',(3.464531276979,-1.635529830663,205.));
#634 = CARTESIAN_POINT('',(4.039597221948,-1.725667612829,205.));
#635 = CARTESIAN_POINT('',(4.652771392262,-1.80669843551,205.));
#636 = CARTESIAN_POINT('',(5.302326564688,-1.87827034632,205.));
#637 = CARTESIAN_POINT('',(5.986429082337,-1.940104514475,205.));
#638 = CARTESIAN_POINT('',(6.703145119642,-1.992002162786,205.));
#639 = CARTESIAN_POINT('',(7.450446884456,-2.033849271017,205.));
#640 = CARTESIAN_POINT('',(8.226218861682,-2.065618995593,205.));
#641 = CARTESIAN_POINT('',(9.028264154808,-2.087371824971,205.));
#642 = CARTESIAN_POINT('',(9.85431095361,-2.099253568924,205.));
#643 = CARTESIAN_POINT('',(10.702019139398,-2.10149135581,205.));
#644 = CARTESIAN_POINT('',(11.56898702901,-2.094387879156,205.));
#645 = CARTESIAN_POINT('',(12.452758252492,-2.078314190189,205.));
#646 = CARTESIAN_POINT('',(13.350828755466,-2.053701373975,205.));
#647 = CARTESIAN_POINT('',(14.260653914556,-2.021031472169,205.));
#648 = CARTESIAN_POINT('',(15.17965575237,-1.980828024434,205.));
#649 = CARTESIAN_POINT('',(16.10523023707,-1.933646593432,205.));
#650 = CARTESIAN_POINT('',(17.034754650291,-1.880065615824,205.));
#651 = CARTESIAN_POINT('',(17.965595006094,-1.820677885341,205.));
#652 = CARTESIAN_POINT('',(18.895113502608,-1.756082925742,205.));
#653 = CARTESIAN_POINT('',(19.820675987132,-1.686880453924,205.));
#654 = CARTESIAN_POINT('',(20.739659414721,-1.613665069325,205.));
#655 = CARTESIAN_POINT('',(21.649459279689,-1.537022238291,205.));
#656 = CARTESIAN_POINT('',(22.547496999033,-1.457525574318,205.));
#657 = CARTESIAN_POINT('',(23.431227226558,-1.375735350172,205.));
#658 = CARTESIAN_POINT('',(24.298145076464,-1.292198118834,205.));
#659 = CARTESIAN_POINT('',(25.145793235237,-1.207447269473,205.));
#660 = CARTESIAN_POINT('',(25.971768940986,-1.12200430452,205.));
#661 = CARTESIAN_POINT('',(26.773730809766,-1.036380595781,205.));
#662 = CARTESIAN_POINT('',(27.549405488748,-0.951079363436,205.));
#663 = CARTESIAN_POINT('',(28.29659411724,-0.866597617963,205.));
#664 = CARTESIAN_POINT('',(29.01317857489,-0.783427826682,205.));
#665 = CARTESIAN_POINT('',(29.697127504975,-0.702059057783,205.));
#666 = CARTESIAN_POINT('',(30.346502073513,-0.622977507227,205.));
#667 = CARTESIAN_POINT('',(30.959461522078,-0.54666595327,205.));
#668 = CARTESIAN_POINT('',(31.534268241277,-0.473603128302,205.));
#669 = CARTESIAN_POINT('',(32.069293222908,-0.404259304694,205.));
#670 = CARTESIAN_POINT('',(32.563018938619,-0.339100458683,205.));
#671 = CARTESIAN_POINT('',(33.014049392765,-0.278560082742,205.));
#672 = CARTESIAN_POINT('',(33.421095366737,-0.223113083451,205.));
#673 = CARTESIAN_POINT('',(33.783037787214,-0.173019465594,205.));
#674 = CARTESIAN_POINT('',(34.098744530803,-0.129101994931,205.));
#675 = CARTESIAN_POINT('',(34.367638528482,-9.036596204662E-02,205.));
#676 = CARTESIAN_POINT('',(34.588050947876,-6.092249894463E-02,205.));
#677 = CARTESIAN_POINT('',(34.761789273588,-3.080158849159E-02,205.));
#678 = CARTESIAN_POINT('',(34.882446352219,-2.50690420617E-02,205.));
#679 = CARTESIAN_POINT('',(34.963626252161,7.748841949292E-03,205.));
#680 = CARTESIAN_POINT('',(34.992455547997,-1.216440352651E-02,205.));
#681 = CARTESIAN_POINT('',(35.,-2.1E-02,205.));
#682 = PCURVE('',#150,#683);
#683 = DEFINITIONAL_REPRESENTATION('',(#684),#688);
#684 = LINE('',#685,#686);
#685 = CARTESIAN_POINT('',(0.,1.));
#686 = VECTOR('',#687,1.);
#687 = DIRECTION('',(1.,0.));
#688 = ( GEOMETRIC_REPRESENTATION_CONTEXT(2) 
PARAMETRIC_REPRESENTATION_CONTEXT() REPRESENTATION_CONTEXT('2D SPACE',''
  ) );
#689 = PCURVE('',#690,#695);
#690 = PLANE('',#691);
#691 = AXIS2_PLACEMENT_3D('',#692,#693,#694);
#692 = CARTESIAN_POINT('',(35.,2.1E-02,205.));
#693 = DIRECTION('',(0.,0.,1.));
#694 = DIRECTION('',(-0.99999982,-5.999998920002E-04,0.));
#695 = DEFINITIONAL_REPRESENTATION('',(#696),#818);
#696 = B_SPLINE_CURVE_WITH_KNOTS('',3,(#697,#698,#699,#700,#701,#702,
    #703,#704,#705,#706,#707,#708,#709,#710,#711,#712,#713,#714,#715,
    #716,#717,#718,#719,#720,#721,#722,#723,#724,#725,#726,#727,#728,
    #729,#730,#731,#732,#733,#734,#735,#736,#737,#738,#739,#740,#741,
    #742,#743,#744,#745,#746,#747,#748,#749,#750,#751,#752,#753,#754,
    #755,#756,#757,#758,#759,#760,#761,#762,#763,#764,#765,#766,#767,
    #768,#769,#770,#771,#772,#773,#774,#775,#776,#777,#778,#779,#780,
    #781,#782,#783,#784,#785,#786,#787,#788,#789,#790,#791,#792,#793,
    #794,#795,#796,#797,#798,#799,#800,#801,#802,#803,#804,#805,#806,
    #807,#808,#809,#810,#811,#812,#813,#814,#815,#816,#817),
  .UNSPECIFIED.,.F.,.F.,(4,1,1,1,1,1,1,1,1,1,1,1,1,1,1,1,1,1,1,1,1,1,1,1
    ,1,1,1,1,1,1,1,1,1,1,1,1,1,1,1,1,1,1,1,1,1,1,1,1,1,1,1,1,1,1,1,1,1,1
    ,1,1,1,1,1,1,1,1,1,1,1,1,1,1,1,1,1,1,1,1,1,1,1,1,1,1,1,1,1,1,1,1,1,1
    ,1,1,1,1,1,1,1,1,1,1,1,1,1,1,1,1,1,1,1,1,1,1,1,1,1,1,4),(0.,
    3.029555671839E-02,0.105411315626,0.230358243143,0.404768409449,
    0.628128840381,0.899783589078,1.218936324046,1.584653384396,
    1.995867249374,2.451380368946,2.949869305007,3.489889138159,
    4.069878102505,4.688162419675,5.342961312697,6.032392189671,
    6.754475995829,7.50714274017,8.288237208981,9.095524883147,
    9.926698079034,10.779382333862,11.65114305596,12.539492457893,
    13.441896786299,14.355783856225,15.278550889816,16.207572649449,
    17.140209844031,18.073817774588,19.005755172127,19.933393167912,
    20.854124324957,21.765371650993,22.664597508885,23.549312341984,
    24.41708314052,25.265541592281,26.092391887415,26.895418184472,
    27.672491793686,28.421578195896,29.140744094408,29.828164798349,
    30.482132370356,31.101065158406,31.683519606269,32.22820566248,
    32.734007797661,33.200014803084,33.625563568281,34.010305655798,
    34.354312085049,34.65824376799,34.923636104254,35.153377201477,
    35.352474447699,35.529066766948,35.695028106645,35.860989446342,
    36.037581765591,36.236679011813,36.466420109036,36.7318124453,
    37.035744128241,37.379750557492,37.764492645009,38.190041410206,
    38.656048415629,39.16185055081,39.706536607021,40.288991054884,
    40.907923842934,41.561891414941,42.249312118882,42.968478017394,
    43.717564419604,44.494638028818,45.297664325875,46.124514621009,
    46.97297307277,47.840743871307,48.725458704405,49.624684562297,
    50.535931888333,51.456663045378,52.384301041163,53.316238438702,
    54.249846369259,55.182483563841,56.111505323474,57.034272357065,
    57.948159426991,58.850563755397,59.73891315733,60.610673879428,
    61.463358134256,62.294531330143,63.10181900431,63.88291347312,
    64.635580217461,65.357664023619,66.047094900593,66.701893793615,
    67.320178110785,67.900167075131,68.440186908283,68.938675844344,
    69.394188963917,69.805402828894,70.171119889244,70.490272624212,
    70.761927372909,70.985287803841,71.159697970147,71.284644897664,
    71.359760656572,71.39005621329),.UNSPECIFIED.);
#697 = CARTESIAN_POINT('',(0.,0.));
#698 = CARTESIAN_POINT('',(7.549752001715E-03,8.831068212693E-03));
#699 = CARTESIAN_POINT('',(3.639099059356E-02,2.872701252972E-02));
#700 = CARTESIAN_POINT('',(0.117551185197,-4.139573505243E-03));
#701 = CARTESIAN_POINT('',(0.238204802582,-9.944513137427E-03));
#702 = CARTESIAN_POINT('',(0.411925024478,-4.016966114536E-02));
#703 = CARTESIAN_POINT('',(0.632319738123,-6.974536637537E-02));
#704 = CARTESIAN_POINT('',(0.901190445786,-0.108642728657));
#705 = CARTESIAN_POINT('',(1.216870782069,-0.152749615426));
#706 = CARTESIAN_POINT('',(1.578783081231,-0.20306038968));
#707 = CARTESIAN_POINT('',(1.985795713743,-0.258751606531));
#708 = CARTESIAN_POINT('',(2.436789762484,-0.319562589799));
#709 = CARTESIAN_POINT('',(2.930476294024,-0.385017659458));
#710 = CARTESIAN_POINT('',(3.465459573063,-0.454682485514));
#711 = CARTESIAN_POINT('',(4.040222351111,-0.5280901813));
#712 = CARTESIAN_POINT('',(4.653135902419,-0.604769497125));
#713 = CARTESIAN_POINT('',(5.302462905147,-0.684240658117));
#714 = CARTESIAN_POINT('',(5.986362890869,-0.766019781653));
#715 = CARTESIAN_POINT('',(6.702897317668,-0.849619508561));
#716 = CARTESIAN_POINT('',(7.450035122627,-0.934549551924));
#717 = CARTESIAN_POINT('',(8.225658481258,-1.020316173639));
#718 = CARTESIAN_POINT('',(9.027568831469,-1.106421044));
#719 = CARTESIAN_POINT('',(9.853493122772,-1.192359578907));
#720 = CARTESIAN_POINT('',(10.701090278469,-1.277619001817));
#721 = CARTESIAN_POINT('',(11.56795785,-1.361676368734));
#722 = CARTESIAN_POINT('',(12.451638844328,-1.443996816199));
#723 = CARTESIAN_POINT('',(13.349628704035,-1.524032288398));
#724 = CARTESIAN_POINT('',(14.259382419549,-1.601220985456));
#725 = CARTESIAN_POINT('',(15.178321752498,-1.674987746834));
#726 = CARTESIAN_POINT('',(16.103842548945,-1.744745543586));
#727 = CARTESIAN_POINT('',(17.033322121177,-1.809898202555));
#728 = CARTESIAN_POINT('',(17.964126676797,-1.869844426462));
#729 = CARTESIAN_POINT('',(18.893618774123,-1.923983108972));
#730 = CARTESIAN_POINT('',(19.819164783366,-1.971719876073));
#731 = CARTESIAN_POINT('',(20.738142333696,-2.012474717575));
#732 = CARTESIAN_POINT('',(21.647947727079,-2.045690508497));
#733 = CARTESIAN_POINT('',(22.546003300714,-2.070842162486));
#734 = CARTESIAN_POINT('',(23.429764720906,-2.087446111199));
#735 = CARTESIAN_POINT('',(24.296728192378,-2.095069767214));
#736 = CARTESIAN_POINT('',(25.14443756825,-2.093340605551));
#737 = CARTESIAN_POINT('',(25.970491347409,-2.081954491727));
#738 = CARTESIAN_POINT('',(26.772549547862,-2.060682893353));
#739 = CARTESIAN_POINT('',(27.548340447281,-2.029378637598));
#740 = CARTESIAN_POINT('',(28.295667185841,-1.987979917877));
#741 = CARTESIAN_POINT('',(29.01241423272,-1.936512308454));
#742 = CARTESIAN_POINT('',(29.696553727725,-1.875088612865));
#743 = CARTESIAN_POINT('',(30.34615172637,-1.803906447972));
#744 = CARTESIAN_POINT('',(30.959374404797,-1.723243544313));
#745 = CARTESIAN_POINT('',(31.534494328914,-1.633450817876));
#746 = CARTESIAN_POINT('',(32.06989697191,-1.534943319163));
#747 = CARTESIAN_POINT('',(32.564087807082,-1.428189171298));
#748 = CARTESIAN_POINT('',(33.015700522792,-1.313696459615));
#749 = CARTESIAN_POINT('',(33.42350733459,-1.191997684825));
#750 = CARTESIAN_POINT('',(33.786432752959,-1.06363001197));
#751 = CARTESIAN_POINT('',(34.103573081523,-0.929107494754));
#752 = CARTESIAN_POINT('',(34.374220823512,-0.788872202302));
#753 = CARTESIAN_POINT('',(34.597887119847,-0.643205039001));
#754 = CARTESIAN_POINT('',(34.774251036369,-0.492035809782));
#755 = CARTESIAN_POINT('',(34.902863062796,-0.334721666301));
#756 = CARTESIAN_POINT('',(34.982129809563,-0.170094587695));
#757 = CARTESIAN_POINT('',(35.008617703462,-5.1668420844E-06));
#758 = CARTESIAN_POINT('',(34.982333935866,0.170115917008));
#759 = CARTESIAN_POINT('',(34.903264798594,0.334837997144));
#760 = CARTESIAN_POINT('',(34.774841641672,0.492306361735));
#761 = CARTESIAN_POINT('',(34.598659255142,0.643687118736));
#762 = CARTESIAN_POINT('',(34.375167920379,0.789622576616));
#763 = CARTESIAN_POINT('',(34.104688655547,0.930182545271));
#764 = CARTESIAN_POINT('',(33.787709982287,1.065085533889));
#765 = CARTESIAN_POINT('',(33.424938866375,1.193888624665));
#766 = CARTESIAN_POINT('',(33.017278386675,1.31607667983));
#767 = CARTESIAN_POINT('',(32.565803387331,1.431111244141));
#768 = CARTESIAN_POINT('',(32.071741012908,1.538458343932));
#769 = CARTESIAN_POINT('',(31.536456964357,1.63760825466));
#770 = CARTESIAN_POINT('',(30.96144520556,1.728091060106));
#771 = CARTESIAN_POINT('',(30.348319764102,1.809489772638));
#772 = CARTESIAN_POINT('',(29.698807651735,1.881451403598));
#773 = CARTESIAN_POINT('',(29.014742357718,1.943696022059));
#774 = CARTESIAN_POINT('',(28.298057588006,1.996023690573));
#775 = CARTESIAN_POINT('',(27.550781065967,2.03831917225));
#776 = CARTESIAN_POINT('',(26.775028290211,2.070554354211));
#777 = CARTESIAN_POINT('',(25.972996193148,2.092788406762));
#778 = CARTESIAN_POINT('',(25.14695667208,2.105165776566));
#779 = CARTESIAN_POINT('',(24.299249981551,2.107912187869));
#780 = CARTESIAN_POINT('',(23.432277985908,2.101328893134));
#781 = CARTESIAN_POINT('',(22.548497277293,2.0857854697));
#782 = CARTESIAN_POINT('',(21.650412168284,2.06171150012));
#783 = CARTESIAN_POINT('',(20.740567571026,2.029587499192));
#784 = CARTESIAN_POINT('',(19.821541776567,1.989935459697));
#785 = CARTESIAN_POINT('',(18.895939149617,1.943309381778));
#786 = CARTESIAN_POINT('',(17.96638275513,1.890286128363));
#787 = CARTESIAN_POINT('',(17.035506934246,1.831456912682));
#788 = CARTESIAN_POINT('',(16.105949848076,1.767419675708));
#789 = CARTESIAN_POINT('',(15.180346008679,1.698772553737));
#790 = CARTESIAN_POINT('',(14.261318817284,1.626108572274));
#791 = CARTESIAN_POINT('',(13.351473130389,1.550011634857));
#792 = CARTESIAN_POINT('',(12.453387874702,1.471053807728));
#793 = CARTESIAN_POINT('',(11.569608732123,1.389793836345));
#794 = CARTESIAN_POINT('',(10.702640915932,1.30677677066));
#795 = CARTESIAN_POINT('',(9.854942059235,1.222534525358));
#796 = CARTESIAN_POINT('',(9.028915236392,1.137587161119));
#797 = CARTESIAN_POINT('',(8.226902137749,1.052444644827));
#798 = CARTESIAN_POINT('',(7.451176417658,0.96760883256));
#799 = CARTESIAN_POINT('',(6.703937234622,0.88357541539));
#800 = CARTESIAN_POINT('',(5.987303004092,0.800835589676));
#801 = CARTESIAN_POINT('',(5.303305375865,0.719877204708));
#802 = CARTESIAN_POINT('',(4.653883475293,0.641185293058));
#803 = CARTESIAN_POINT('',(4.040878350136,0.56524152844));
#804 = CARTESIAN_POINT('',(3.466027896715,0.492523600592));
#805 = CARTESIAN_POINT('',(2.930961405102,0.423500804398));
#806 = CARTESIAN_POINT('',(2.437196682961,0.358638205492));
#807 = CARTESIAN_POINT('',(1.986129985782,0.298368458671));
#808 = CARTESIAN_POINT('',(1.579050816883,0.243165696901));
#809 = CARTESIAN_POINT('',(1.217078405391,0.193289253474));
#810 = CARTESIAN_POINT('',(0.901345368152,0.149561214729));
#811 = CARTESIAN_POINT('',(0.632428177258,0.110986525186));
#812 = CARTESIAN_POINT('',(0.411998131464,8.16753148118E-02));
#813 = CARTESIAN_POINT('',(0.238241764482,5.165865275719E-02));
#814 = CARTESIAN_POINT('',(0.117581268042,4.59985015933E-02));
#815 = CARTESIAN_POINT('',(3.638169198491E-02,1.322933142073E-02));
#816 = CARTESIAN_POINT('',(7.564349283321E-03,3.315987088654E-02));
#817 = CARTESIAN_POINT('',(2.51999954628E-05,4.199999244E-02));
#818 = ( GEOMETRIC_REPRESENTATION_CONTEXT(2) 
PARAMETRIC_REPRESENTATION_CONTEXT() REPRESENTATION_CONTEXT('2D SPACE',''
  ) );
#819 = ORIENTED_EDGE('',*,*,#820,.F.);
#820 = EDGE_CURVE('',#22,#557,#821,.T.);
#821 = SURFACE_CURVE('',#822,(#825,#832),.PCURVE_S1.);
#822 = B_SPLINE_CURVE_WITH_KNOTS('',1,(#823,#824),.UNSPECIFIED.,.F.,.F.,
  (2,2),(0.,1.),.PIECEWISE_BEZIER_KNOTS.);
#823 = CARTESIAN_POINT('',(35.,2.1E-02,0.));
#824 = CARTESIAN_POINT('',(35.,2.1E-02,205.));
#825 = PCURVE('',#150,#826);
#826 = DEFINITIONAL_REPRESENTATION('',(#827),#831);
#827 = LINE('',#828,#829);
#828 = CARTESIAN_POINT('',(0.,0.));
#829 = VECTOR('',#830,1.);
#830 = DIRECTION('',(0.,1.));
#831 = ( GEOMETRIC_REPRESENTATION_CONTEXT(2) 
PARAMETRIC_REPRESENTATION_CONTEXT() REPRESENTATION_CONTEXT('2D SPACE',''
  ) );
#832 = PCURVE('',#545,#833);
#833 = DEFINITIONAL_REPRESENTATION('',(#834),#837);
#834 = B_SPLINE_CURVE_WITH_KNOTS('',1,(#835,#836),.UNSPECIFIED.,.F.,.F.,
  (2,2),(0.,1.),.PIECEWISE_BEZIER_KNOTS.);
#835 = CARTESIAN_POINT('',(4.2E-02,-205.));
#836 = CARTESIAN_POINT('',(4.2E-02,0.));
#837 = ( GEOMETRIC_REPRESENTATION_CONTEXT(2) 
PARAMETRIC_REPRESENTATION_CONTEXT() REPRESENTATION_CONTEXT('2D SPACE',''
  ) );
#838 = ADVANCED_FACE('',(#839,#863),#400,.F.);
#839 = FACE_BOUND('',#840,.F.);
#840 = EDGE_LOOP('',(#841,#842));
#841 = ORIENTED_EDGE('',*,*,#21,.T.);
#842 = ORIENTED_EDGE('',*,*,#843,.T.);
#843 = EDGE_CURVE('',#24,#22,#844,.T.);
#844 = SURFACE_CURVE('',#845,(#849,#856),.PCURVE_S1.);
#845 = LINE('',#846,#847);
#846 = CARTESIAN_POINT('',(35.,-2.1E-02,0.));
#847 = VECTOR('',#848,1.);
#848 = DIRECTION('',(0.,1.,0.));
#849 = PCURVE('',#400,#850);
#850 = DEFINITIONAL_REPRESENTATION('',(#851),#855);
#851 = LINE('',#852,#853);
#852 = CARTESIAN_POINT('',(2.519999546401E-05,4.199999244E-02));
#853 = VECTOR('',#854,1.);
#854 = DIRECTION('',(-5.999998920002E-04,-0.99999982));
#855 = ( GEOMETRIC_REPRESENTATION_CONTEXT(2) 
PARAMETRIC_REPRESENTATION_CONTEXT() REPRESENTATION_CONTEXT('2D SPACE',''
  ) );
#856 = PCURVE('',#545,#857);
#857 = DEFINITIONAL_REPRESENTATION('',(#858),#862);
#858 = LINE('',#859,#860);
#859 = CARTESIAN_POINT('',(0.,-205.));
#860 = VECTOR('',#861,1.);
#861 = DIRECTION('',(1.,0.));
#862 = ( GEOMETRIC_REPRESENTATION_CONTEXT(2) 
PARAMETRIC_REPRESENTATION_CONTEXT() REPRESENTATION_CONTEXT('2D SPACE',''
  ) );
#863 = FACE_BOUND('',#864,.F.);
#864 = EDGE_LOOP('',(#865));
#865 = ORIENTED_EDGE('',*,*,#866,.T.);
#866 = EDGE_CURVE('',#867,#867,#869,.T.);
#867 = VERTEX_POINT('',#868);
#868 = CARTESIAN_POINT('',(12.1,0.,0.));
#869 = SURFACE_CURVE('',#870,(#875,#886),.PCURVE_S1.);
#870 = CIRCLE('',#871,1.6);
#871 = AXIS2_PLACEMENT_3D('',#872,#873,#874);
#872 = CARTESIAN_POINT('',(10.5,0.,0.));
#873 = DIRECTION('',(0.,0.,-1.));
#874 = DIRECTION('',(1.,0.,0.));
#875 = PCURVE('',#400,#876);
#876 = DEFINITIONAL_REPRESENTATION('',(#877),#885);
#877 = ( BOUNDED_CURVE() B_SPLINE_CURVE(2,(#878,#879,#880,#881,#882,#883
,#884),.UNSPECIFIED.,.T.,.F.) B_SPLINE_CURVE_WITH_KNOTS((1,2,2,2,2,1),(
    -2.094395102393,0.,2.094395102393,4.188790204786,6.28318530718,
8.377580409573),.UNSPECIFIED.) CURVE() GEOMETRIC_REPRESENTATION_ITEM() 
RATIONAL_B_SPLINE_CURVE((1.,0.5,1.,0.5,1.,0.5,1.)) REPRESENTATION_ITEM(
  '') );
#878 = CARTESIAN_POINT('',(22.900008477999,7.259998693196E-03));
#879 = CARTESIAN_POINT('',(22.901671246475,2.778540791973));
#880 = CARTESIAN_POINT('',(25.300839430237,1.391460395592));
#881 = CARTESIAN_POINT('',(27.700007613999,4.379999211595E-03));
#882 = CARTESIAN_POINT('',(25.299176661761,-1.379820397687));
#883 = CARTESIAN_POINT('',(22.898345709523,-2.764020794587));
#884 = CARTESIAN_POINT('',(22.900008477999,7.259998693196E-03));
#885 = ( GEOMETRIC_REPRESENTATION_CONTEXT(2) 
PARAMETRIC_REPRESENTATION_CONTEXT() REPRESENTATION_CONTEXT('2D SPACE',''
  ) );
#886 = PCURVE('',#887,#892);
#887 = CYLINDRICAL_SURFACE('',#888,1.6);
#888 = AXIS2_PLACEMENT_3D('',#889,#890,#891);
#889 = CARTESIAN_POINT('',(10.5,0.,-1.));
#890 = DIRECTION('',(-0.,-0.,-1.));
#891 = DIRECTION('',(1.,0.,0.));
#892 = DEFINITIONAL_REPRESENTATION('',(#893),#897);
#893 = LINE('',#894,#895);
#894 = CARTESIAN_POINT('',(-6.28318530718,-1.));
#895 = VECTOR('',#896,1.);
#896 = DIRECTION('',(1.,-0.));
#897 = ( GEOMETRIC_REPRESENTATION_CONTEXT(2) 
PARAMETRIC_REPRESENTATION_CONTEXT() REPRESENTATION_CONTEXT('2D SPACE',''
  ) );
#898 = ADVANCED_FACE('',(#899),#545,.T.);
#899 = FACE_BOUND('',#900,.T.);
#900 = EDGE_LOOP('',(#901,#902,#903,#924));
#901 = ORIENTED_EDGE('',*,*,#843,.T.);
#902 = ORIENTED_EDGE('',*,*,#820,.T.);
#903 = ORIENTED_EDGE('',*,*,#904,.F.);
#904 = EDGE_CURVE('',#531,#557,#905,.T.);
#905 = SURFACE_CURVE('',#906,(#910,#917),.PCURVE_S1.);
#906 = LINE('',#907,#908);
#907 = CARTESIAN_POINT('',(35.,-2.1E-02,205.));
#908 = VECTOR('',#909,1.);
#909 = DIRECTION('',(0.,1.,0.));
#910 = PCURVE('',#545,#911);
#911 = DEFINITIONAL_REPRESENTATION('',(#912),#916);
#912 = LINE('',#913,#914);
#913 = CARTESIAN_POINT('',(0.,0.));
#914 = VECTOR('',#915,1.);
#915 = DIRECTION('',(1.,0.));
#916 = ( GEOMETRIC_REPRESENTATION_CONTEXT(2) 
PARAMETRIC_REPRESENTATION_CONTEXT() REPRESENTATION_CONTEXT('2D SPACE',''
  ) );
#917 = PCURVE('',#690,#918);
#918 = DEFINITIONAL_REPRESENTATION('',(#919),#923);
#919 = LINE('',#920,#921);
#920 = CARTESIAN_POINT('',(2.519999546401E-05,4.199999244E-02));
#921 = VECTOR('',#922,1.);
#922 = DIRECTION('',(-5.999998920002E-04,-0.99999982));
#923 = ( GEOMETRIC_REPRESENTATION_CONTEXT(2) 
PARAMETRIC_REPRESENTATION_CONTEXT() REPRESENTATION_CONTEXT('2D SPACE',''
  ) );
#924 = ORIENTED_EDGE('',*,*,#530,.F.);
#925 = ADVANCED_FACE('',(#926,#930),#690,.T.);
#926 = FACE_BOUND('',#927,.T.);
#927 = EDGE_LOOP('',(#928,#929));
#928 = ORIENTED_EDGE('',*,*,#556,.T.);
#929 = ORIENTED_EDGE('',*,*,#904,.T.);
#930 = FACE_BOUND('',#931,.T.);
#931 = EDGE_LOOP('',(#932));
#932 = ORIENTED_EDGE('',*,*,#933,.T.);
#933 = EDGE_CURVE('',#934,#934,#936,.T.);
#934 = VERTEX_POINT('',#935);
#935 = CARTESIAN_POINT('',(12.1,0.,205.));
#936 = SURFACE_CURVE('',#937,(#942,#953),.PCURVE_S1.);
#937 = CIRCLE('',#938,1.6);
#938 = AXIS2_PLACEMENT_3D('',#939,#940,#941);
#939 = CARTESIAN_POINT('',(10.5,0.,205.));
#940 = DIRECTION('',(0.,0.,-1.));
#941 = DIRECTION('',(1.,0.,0.));
#942 = PCURVE('',#690,#943);
#943 = DEFINITIONAL_REPRESENTATION('',(#944),#952);
#944 = ( BOUNDED_CURVE() B_SPLINE_CURVE(2,(#945,#946,#947,#948,#949,#950
,#951),.UNSPECIFIED.,.T.,.F.) B_SPLINE_CURVE_WITH_KNOTS((1,2,2,2,2,1),(
    -2.094395102393,0.,2.094395102393,4.188790204786,6.28318530718,
8.377580409573),.UNSPECIFIED.) CURVE() GEOMETRIC_REPRESENTATION_ITEM() 
RATIONAL_B_SPLINE_CURVE((1.,0.5,1.,0.5,1.,0.5,1.)) REPRESENTATION_ITEM(
  '') );
#945 = CARTESIAN_POINT('',(22.900008477999,7.259998693196E-03));
#946 = CARTESIAN_POINT('',(22.901671246475,2.778540791973));
#947 = CARTESIAN_POINT('',(25.300839430237,1.391460395592));
#948 = CARTESIAN_POINT('',(27.700007613999,4.379999211595E-03));
#949 = CARTESIAN_POINT('',(25.299176661761,-1.379820397687));
#950 = CARTESIAN_POINT('',(22.898345709523,-2.764020794587));
#951 = CARTESIAN_POINT('',(22.900008477999,7.259998693196E-03));
#952 = ( GEOMETRIC_REPRESENTATION_CONTEXT(2) 
PARAMETRIC_REPRESENTATION_CONTEXT() REPRESENTATION_CONTEXT('2D SPACE',''
  ) );
#953 = PCURVE('',#887,#954);
#954 = DEFINITIONAL_REPRESENTATION('',(#955),#959);
#955 = LINE('',#956,#957);
#956 = CARTESIAN_POINT('',(-6.28318530718,-206.));
#957 = VECTOR('',#958,1.);
#958 = DIRECTION('',(1.,-0.));
#959 = ( GEOMETRIC_REPRESENTATION_CONTEXT(2) 
PARAMETRIC_REPRESENTATION_CONTEXT() REPRESENTATION_CONTEXT('2D SPACE',''
  ) );
#960 = ADVANCED_FACE('',(#961),#887,.F.);
#961 = FACE_BOUND('',#962,.T.);
#962 = EDGE_LOOP('',(#963,#964,#985,#986));
#963 = ORIENTED_EDGE('',*,*,#866,.T.);
#964 = ORIENTED_EDGE('',*,*,#965,.T.);
#965 = EDGE_CURVE('',#867,#934,#966,.T.);
#966 = SEAM_CURVE('',#967,(#971,#978),.PCURVE_S1.);
#967 = LINE('',#968,#969);
#968 = CARTESIAN_POINT('',(12.1,0.,-1.));
#969 = VECTOR('',#970,1.);
#970 = DIRECTION('',(0.,0.,1.));
#971 = PCURVE('',#887,#972);
#972 = DEFINITIONAL_REPRESENTATION('',(#973),#977);
#973 = LINE('',#974,#975);
#974 = CARTESIAN_POINT('',(-6.28318530718,0.));
#975 = VECTOR('',#976,1.);
#976 = DIRECTION('',(-0.,-1.));
#977 = ( GEOMETRIC_REPRESENTATION_CONTEXT(2) 
PARAMETRIC_REPRESENTATION_CONTEXT() REPRESENTATION_CONTEXT('2D SPACE',''
  ) );
#978 = PCURVE('',#887,#979);
#979 = DEFINITIONAL_REPRESENTATION('',(#980),#984);
#980 = LINE('',#981,#982);
#981 = CARTESIAN_POINT('',(-0.,0.));
#982 = VECTOR('',#983,1.);
#983 = DIRECTION('',(-0.,-1.));
#984 = ( GEOMETRIC_REPRESENTATION_CONTEXT(2) 
PARAMETRIC_REPRESENTATION_CONTEXT() REPRESENTATION_CONTEXT('2D SPACE',''
  ) );
#985 = ORIENTED_EDGE('',*,*,#933,.F.);
#986 = ORIENTED_EDGE('',*,*,#965,.F.);
#987 = ( GEOMETRIC_REPRESENTATION_CONTEXT(3) 
GLOBAL_UNCERTAINTY_ASSIGNED_CONTEXT((#991)) GLOBAL_UNIT_ASSIGNED_CONTEXT
((#988,#989,#990)) REPRESENTATION_CONTEXT('Context #1',
  '3D Context with UNIT and UNCERTAINTY') );
#988 = ( LENGTH_UNIT() NAMED_UNIT(*) SI_UNIT(.MILLI.,.METRE.) );
#989 = ( NAMED_UNIT(*) PLANE_ANGLE_UNIT() SI_UNIT($,.RADIAN.) );
#990 = ( NAMED_UNIT(*) SI_UNIT($,.STERADIAN.) SOLID_ANGLE_UNIT() );
#991 = UNCERTAINTY_MEASURE_WITH_UNIT(LENGTH_MEASURE(1.E-07),#988,
  'distance_accuracy_value','confusion accuracy');
#992 = PRODUCT_RELATED_PRODUCT_CATEGORY('part',$,(#7));
ENDSEC;
END-ISO-10303-21;
