ISO-10303-21;
HEADER;
FILE_DESCRIPTION(('Open CASCADE Model'),'2;1');
FILE_NAME('Open CASCADE Shape Model','2026-09-02T22:19:26',('Author'),(
    'Open CASCADE'),'Open CASCADE STEP processor 7.9','Open CASCADE 7.9'
  ,'Unknown');
FILE_SCHEMA(('AUTOMOTIVE_DESIGN { 1 0 10303 214 1 1 1 1 }'));
ENDSEC;
DATA;
#1 = APPLICATION_PROTOCOL_DEFINITION('international standard',
  'automotive_design',2000,#2);
#2 = APPLICATION_CONTEXT(
  'core data for automotive mechanical design processes');
#3 = SHAPE_DEFINITION_REPRESENTATION(#4,#10);
#4 = PRODUCT_DEFINITION_SHAPE('','',#5);
#5 = PRODUCT_DEFINITION('design','',#6,#9);
#6 = PRODUCT_DEFINITION_FORMATION('','',#7);
#7 = PRODUCT('Open CASCADE STEP translator 7.9 4',
  'Open CASCADE STEP translator 7.9 4','',(#8));
#8 = PRODUCT_CONTEXT('',#2,'mechanical');
#9 = PRODUCT_DEFINITION_CONTEXT('part definition',#2,'design');
#10 = ADVANCED_BREP_SHAPE_REPRESENTATION('',(#11,#15),#979);
#11 = AXIS2_PLACEMENT_3D('',#12,#13,#14);
#12 = CARTESIAN_POINT('',(0.,0.,0.));
#13 = DIRECTION('',(0.,0.,1.));
#14 = DIRECTION('',(1.,0.,-0.));
#15 = MANIFOLD_SOLID_BREP('',#16);
#16 = CLOSED_SHELL('',(#17,#838,#894,#921,#952));
#17 = ADVANCED_FACE('',(#18),#150,.T.);
#18 = FACE_BOUND('',#19,.T.);
#19 = EDGE_LOOP('',(#20,#529,#555,#819));
#20 = ORIENTED_EDGE('',*,*,#21,.T.);
#21 = EDGE_CURVE('',#22,#24,#26,.T.);
#22 = VERTEX_POINT('',#23);
#23 = CARTESIAN_POINT('',(71.950488322954,-2.312288034556,0.));
#24 = VERTEX_POINT('',#25);
#25 = CARTESIAN_POINT('',(71.946719607886,-2.3986058009,0.));
#26 = SURFACE_CURVE('',#27,(#149,#399),.PCURVE_S1.);
#27 = B_SPLINE_CURVE_WITH_KNOTS('',3,(#28,#29,#30,#31,#32,#33,#34,#35,
    #36,#37,#38,#39,#40,#41,#42,#43,#44,#45,#46,#47,#48,#49,#50,#51,#52,
    #53,#54,#55,#56,#57,#58,#59,#60,#61,#62,#63,#64,#65,#66,#67,#68,#69,
    #70,#71,#72,#73,#74,#75,#76,#77,#78,#79,#80,#81,#82,#83,#84,#85,#86,
    #87,#88,#89,#90,#91,#92,#93,#94,#95,#96,#97,#98,#99,#100,#101,#102,
    #103,#104,#105,#106,#107,#108,#109,#110,#111,#112,#113,#114,#115,
    #116,#117,#118,#119,#120,#121,#122,#123,#124,#125,#126,#127,#128,
    #129,#130,#131,#132,#133,#134,#135,#136,#137,#138,#139,#140,#141,
    #142,#143,#144,#145,#146,#147,#148),.UNSPECIFIED.,.F.,.F.,(4,1,1,1,1
    ,1,1,1,1,1,1,1,1,1,1,1,1,1,1,1,1,1,1,1,1,1,1,1,1,1,1,1,1,1,1,1,1,1,1
    ,1,1,1,1,1,1,1,1,1,1,1,1,1,1,1,1,1,1,1,1,1,1,1,1,1,1,1,1,1,1,1,1,1,1
    ,1,1,1,1,1,1,1,1,1,1,1,1,1,1,1,1,1,1,1,1,1,1,1,1,1,1,1,1,1,1,1,1,1,1
    ,1,1,1,1,1,1,1,1,1,1,1,4),(0.,6.030627299938E-02,0.215587503767,
    0.473877911892,0.83441245477,1.296124850646,1.857652206625,
    2.517340767219,3.273252652452,4.123173445656,5.064620491345,
    6.094851772312,7.21087525114,8.409458582987,9.687139131748,
    11.040234248571,12.464851798315,13.956900944348,15.512103223821,
    17.126003963523,18.793984100009,20.511272476791,22.272958695724,
    24.074006599344,25.909268455556,27.773499905503,29.661375719492,
    31.567506384174,33.486455516952,35.412758071246,37.340939259748,
    39.265534084094,41.181107320762,43.082273778003,44.963718610879,
    46.820217465525,48.64665622378,50.438050139785,52.210454026736,
    53.943825366685,55.627274385212,57.256370130376,58.826898391646,
    60.334880541774,61.776593408813,63.148591263099,64.447731506284,
    65.671206373146,66.816584046464,67.881864291403,68.865556472705,
    69.766792370155,70.58549379496,71.322627513986,71.980599487527,
    72.56386579716,73.079850302584,73.54018030993,73.961882946479,
    74.367404361436,74.772916241821,75.19437367947,75.653678706678,
    76.167196369447,76.745914735199,77.396689666043,78.123487091748,
    78.928297928832,79.811746962926,80.773487000898,81.812454863038,
    82.92704028221,84.115199517398,85.37453322286,86.702340710362,
    88.095658329061,89.551287040023,91.065812644172,92.635621103599,
    94.2569107271,95.925702527681,97.644111303359,99.423023965818,
    101.23681131287,103.08058252526,104.94931625413,106.83787831745,
    108.74104013782,110.65349773045,112.56989102267,114.48482328106,
    116.39288043272,118.28865009087,120.1667401272,122.02179666936,
    123.84852144009,125.64168839047,127.39615961298,129.10690054806,
    130.76899452127,132.37765666543,133.92824729413,135.41628479942,
    136.83745814717,138.18763903946,139.46289380304,140.65949504824,
    141.77393312237,142.80292735779,143.74343708694,144.5926723679,
    145.34810433415,146.00747505531,146.56880677266,147.03041035645,
    147.39089282381,147.64916375699,147.80444047284,147.867201539),
  .UNSPECIFIED.);
#28 = CARTESIAN_POINT('',(71.950488322954,-2.312288034556,0.));
#29 = CARTESIAN_POINT('',(71.933984910433,-2.328551901002,0.));
#30 = CARTESIAN_POINT('',(71.871841818277,-2.364289765534,0.));
#31 = CARTESIAN_POINT('',(71.7120623986,-2.27772436718,0.));
#32 = CARTESIAN_POINT('',(71.465661274669,-2.240989865699,0.));
#33 = CARTESIAN_POINT('',(71.114764650628,-2.141213085778,0.));
#34 = CARTESIAN_POINT('',(70.667972220474,-2.033668016375,0.));
#35 = CARTESIAN_POINT('',(70.123335668216,-1.896699840568,0.));
#36 = CARTESIAN_POINT('',(69.483495504033,-1.739642675108,0.));
#37 = CARTESIAN_POINT('',(68.749767274041,-1.560659824314,0.));
#38 = CARTESIAN_POINT('',(67.924273833949,-1.361951288597,0.));
#39 = CARTESIAN_POINT('',(67.009209962722,-1.144520648915,0.));
#40 = CARTESIAN_POINT('',(66.007079312109,-0.909879479065,0.));
#41 = CARTESIAN_POINT('',(64.920611850568,-0.659480122449,0.));
#42 = CARTESIAN_POINT('',(63.752782049138,-0.394873800229,0.));
#43 = CARTESIAN_POINT('',(62.506794530177,-0.117644485907,0.));
#44 = CARTESIAN_POINT('',(61.186078549097,0.170586085584,0.));
#45 = CARTESIAN_POINT('',(59.794278681955,0.468172122353,0.));
#46 = CARTESIAN_POINT('',(58.335245544493,0.773448996787,0.));
#47 = CARTESIAN_POINT('',(56.813025451749,1.084738089408,0.));
#48 = CARTESIAN_POINT('',(55.231849403886,1.400349067808,0.));
#49 = CARTESIAN_POINT('',(53.596121365735,1.718580599364,0.));
#50 = CARTESIAN_POINT('',(51.910405940204,2.037719716474,0.));
#51 = CARTESIAN_POINT('',(50.179415504052,2.356040398083,0.));
#52 = CARTESIAN_POINT('',(48.407996885651,2.671801919793,0.));
#53 = CARTESIAN_POINT('',(46.601117658794,2.983247577542,0.));
#54 = CARTESIAN_POINT('',(44.763852121978,3.288604383767,0.));
#55 = CARTESIAN_POINT('',(42.901367024322,3.586084302319,0.));
#56 = CARTESIAN_POINT('',(41.018907089921,3.873887525714,0.));
#57 = CARTESIAN_POINT('',(39.121780380971,4.150208190974,0.));
#58 = CARTESIAN_POINT('',(37.215343532643,4.413242855891,0.));
#59 = CARTESIAN_POINT('',(35.304986870027,4.66120174173,0.));
#60 = CARTESIAN_POINT('',(33.396119456158,4.892323246479,0.));
#61 = CARTESIAN_POINT('',(31.494153937091,5.104889634178,0.));
#62 = CARTESIAN_POINT('',(29.60449170081,5.297250687007,0.));
#63 = CARTESIAN_POINT('',(27.732506444505,5.467828528055,0.));
#64 = CARTESIAN_POINT('',(25.883533155961,5.615199704288,0.));
#65 = CARTESIAN_POINT('',(24.062836868742,5.737899695834,0.));
#66 = CARTESIAN_POINT('',(22.268700851908,5.835618414864,0.));
#67 = CARTESIAN_POINT('',(20.504253703872,5.905299411121,0.));
#68 = CARTESIAN_POINT('',(18.774675992231,5.937306966354,0.));
#69 = CARTESIAN_POINT('',(17.092581924858,5.93334205618,0.));
#70 = CARTESIAN_POINT('',(15.465241068984,5.893318303933,0.));
#71 = CARTESIAN_POINT('',(13.897691288836,5.818124844134,0.));
#72 = CARTESIAN_POINT('',(12.394760487949,5.708774866042,0.));
#73 = CARTESIAN_POINT('',(10.961053179026,5.566594448516,0.));
#74 = CARTESIAN_POINT('',(9.600925461883,5.393148004941,0.));
#75 = CARTESIAN_POINT('',(8.318464738146,5.190222845323,0.));
#76 = CARTESIAN_POINT('',(7.117470088871,4.959791462871,0.));
#77 = CARTESIAN_POINT('',(6.00143413888,4.703972462908,0.));
#78 = CARTESIAN_POINT('',(4.973525632668,4.42498522766,0.));
#79 = CARTESIAN_POINT('',(4.036571901935,4.125099331595,0.));
#80 = CARTESIAN_POINT('',(3.193039941216,3.806576943712,0.));
#81 = CARTESIAN_POINT('',(2.445015185436,3.471603859502,0.));
#82 = CARTESIAN_POINT('',(1.794179227895,3.122199722699,0.));
#83 = CARTESIAN_POINT('',(1.241800226599,2.760086254147,0.));
#84 = CARTESIAN_POINT('',(0.788780638208,2.38649091679,0.));
#85 = CARTESIAN_POINT('',(0.435912661085,2.00187693092,0.));
#86 = CARTESIAN_POINT('',(0.184559755143,1.605889239838,0.));
#87 = CARTESIAN_POINT('',(3.777978563957E-02,1.198208007927,0.));
#88 = CARTESIAN_POINT('',(-2.974508935176E-04,0.784513858964,0.));
#89 = CARTESIAN_POINT('',(6.757925841826E-02,0.374781969031,0.));
#90 = CARTESIAN_POINT('',(0.242340403217,-2.112637473471E-02,0.));
#91 = CARTESIAN_POINT('',(0.518660443611,-0.398416259292,0.));
#92 = CARTESIAN_POINT('',(0.8928775595,-0.758265575977,0.));
#93 = CARTESIAN_POINT('',(1.363032426211,-1.101899070397,0.));
#94 = CARTESIAN_POINT('',(1.927714674108,-1.429886102784,0.));
#95 = CARTESIAN_POINT('',(2.585429255662,-1.742243100952,0.));
#96 = CARTESIAN_POINT('',(3.334386941878,-2.038699871377,0.));
#97 = CARTESIAN_POINT('',(4.172485154603,-2.318874020651,0.));
#98 = CARTESIAN_POINT('',(5.097336502288,-2.582376687144,0.));
#99 = CARTESIAN_POINT('',(6.106303881816,-2.828874909556,0.));
#100 = CARTESIAN_POINT('',(7.196530233287,-3.058132375952,0.));
#101 = CARTESIAN_POINT('',(8.364962086726,-3.270037945185,0.));
#102 = CARTESIAN_POINT('',(9.608367835824,-3.464626518829,0.));
#103 = CARTESIAN_POINT('',(10.923351951844,-3.642093564185,0.));
#104 = CARTESIAN_POINT('',(12.306365996105,-3.80280505169,0.));
#105 = CARTESIAN_POINT('',(13.753717316907,-3.947297824151,0.));
#106 = CARTESIAN_POINT('',(15.261575158914,-4.076290475958,0.));
#107 = CARTESIAN_POINT('',(16.825977838166,-4.190625087457,0.));
#108 = CARTESIAN_POINT('',(18.442828816345,-4.291454236805,0.));
#109 = CARTESIAN_POINT('',(20.110015764216,-4.379551847753,0.));
#110 = CARTESIAN_POINT('',(21.830269601052,-4.458389436267,0.));
#111 = CARTESIAN_POINT('',(23.599602044591,-4.520130200326,0.));
#112 = CARTESIAN_POINT('',(25.41127119333,-4.563526636017,0.));
#113 = CARTESIAN_POINT('',(27.253208224641,-4.589756158374,0.));
#114 = CARTESIAN_POINT('',(29.120226330337,-4.599727747131,0.));
#115 = CARTESIAN_POINT('',(31.007057035532,-4.594590591214,0.));
#116 = CARTESIAN_POINT('',(32.908370368363,-4.575497208382,0.));
#117 = CARTESIAN_POINT('',(34.818788324405,-4.543639174539,0.));
#118 = CARTESIAN_POINT('',(36.732900530007,-4.500210479776,0.));
#119 = CARTESIAN_POINT('',(38.645279584373,-4.446393599995,0.));
#120 = CARTESIAN_POINT('',(40.550496669677,-4.383343085218,0.));
#121 = CARTESIAN_POINT('',(42.443137169237,-4.312173954839,0.));
#122 = CARTESIAN_POINT('',(44.317816263903,-4.233953185378,0.));
#123 = CARTESIAN_POINT('',(46.169194419506,-4.149694787459,0.));
#124 = CARTESIAN_POINT('',(47.991992702228,-4.06035816738,0.));
#125 = CARTESIAN_POINT('',(49.781007864059,-3.966849491275,0.));
#126 = CARTESIAN_POINT('',(51.531127153047,-3.870025597141,0.));
#127 = CARTESIAN_POINT('',(53.237342814568,-3.770699910998,0.));
#128 = CARTESIAN_POINT('',(54.894766261546,-3.669649748837,0.));
#129 = CARTESIAN_POINT('',(56.498641901281,-3.567624349941,0.));
#130 = CARTESIAN_POINT('',(58.044360616083,-3.465352976764,0.));
#131 = CARTESIAN_POINT('',(59.527472894542,-3.363552463892,0.));
#132 = CARTESIAN_POINT('',(60.94370163167,-3.262933590089,0.));
#133 = CARTESIAN_POINT('',(62.288954546415,-3.164205969128,0.));
#134 = CARTESIAN_POINT('',(63.559336396729,-3.068080446128,0.));
#135 = CARTESIAN_POINT('',(64.75116035071,-2.975270922932,0.));
#136 = CARTESIAN_POINT('',(65.860960635908,-2.88648808647,0.));
#137 = CARTESIAN_POINT('',(66.885499220259,-2.802449983167,0.));
#138 = CARTESIAN_POINT('',(67.821790454076,-2.723826748394,0.));
#139 = CARTESIAN_POINT('',(68.667065060087,-2.651391204638,0.));
#140 = CARTESIAN_POINT('',(69.418926428121,-2.585501410641,0.));
#141 = CARTESIAN_POINT('',(70.074900864321,-2.527673966701,0.));
#142 = CARTESIAN_POINT('',(70.633835804871,-2.47576876739,0.));
#143 = CARTESIAN_POINT('',(71.091849261844,-2.437998473198,0.));
#144 = CARTESIAN_POINT('',(71.453571323501,-2.394095464235,0.));
#145 = CARTESIAN_POINT('',(71.70337315603,-2.394734991898,0.));
#146 = CARTESIAN_POINT('',(71.874229649138,-2.335811889841,0.));
#147 = CARTESIAN_POINT('',(71.931941178171,-2.37965281517,-0.));
#148 = CARTESIAN_POINT('',(71.946719607886,-2.3986058009,0.));
#149 = PCURVE('',#150,#393);
#150 = B_SPLINE_SURFACE_WITH_KNOTS('',3,1,(
    (#151,#152)
    ,(#153,#154)
    ,(#155,#156)
    ,(#157,#158)
    ,(#159,#160)
    ,(#161,#162)
    ,(#163,#164)
    ,(#165,#166)
    ,(#167,#168)
    ,(#169,#170)
    ,(#171,#172)
    ,(#173,#174)
    ,(#175,#176)
    ,(#177,#178)
    ,(#179,#180)
    ,(#181,#182)
    ,(#183,#184)
    ,(#185,#186)
    ,(#187,#188)
    ,(#189,#190)
    ,(#191,#192)
    ,(#193,#194)
    ,(#195,#196)
    ,(#197,#198)
    ,(#199,#200)
    ,(#201,#202)
    ,(#203,#204)
    ,(#205,#206)
    ,(#207,#208)
    ,(#209,#210)
    ,(#211,#212)
    ,(#213,#214)
    ,(#215,#216)
    ,(#217,#218)
    ,(#219,#220)
    ,(#221,#222)
    ,(#223,#224)
    ,(#225,#226)
    ,(#227,#228)
    ,(#229,#230)
    ,(#231,#232)
    ,(#233,#234)
    ,(#235,#236)
    ,(#237,#238)
    ,(#239,#240)
    ,(#241,#242)
    ,(#243,#244)
    ,(#245,#246)
    ,(#247,#248)
    ,(#249,#250)
    ,(#251,#252)
    ,(#253,#254)
    ,(#255,#256)
    ,(#257,#258)
    ,(#259,#260)
    ,(#261,#262)
    ,(#263,#264)
    ,(#265,#266)
    ,(#267,#268)
    ,(#269,#270)
    ,(#271,#272)
    ,(#273,#274)
    ,(#275,#276)
    ,(#277,#278)
    ,(#279,#280)
    ,(#281,#282)
    ,(#283,#284)
    ,(#285,#286)
    ,(#287,#288)
    ,(#289,#290)
    ,(#291,#292)
    ,(#293,#294)
    ,(#295,#296)
    ,(#297,#298)
    ,(#299,#300)
    ,(#301,#302)
    ,(#303,#304)
    ,(#305,#306)
    ,(#307,#308)
    ,(#309,#310)
    ,(#311,#312)
    ,(#313,#314)
    ,(#315,#316)
    ,(#317,#318)
    ,(#319,#320)
    ,(#321,#322)
    ,(#323,#324)
    ,(#325,#326)
    ,(#327,#328)
    ,(#329,#330)
    ,(#331,#332)
    ,(#333,#334)
    ,(#335,#336)
    ,(#337,#338)
    ,(#339,#340)
    ,(#341,#342)
    ,(#343,#344)
    ,(#345,#346)
    ,(#347,#348)
    ,(#349,#350)
    ,(#351,#352)
    ,(#353,#354)
    ,(#355,#356)
    ,(#357,#358)
    ,(#359,#360)
    ,(#361,#362)
    ,(#363,#364)
    ,(#365,#366)
    ,(#367,#368)
    ,(#369,#370)
    ,(#371,#372)
    ,(#373,#374)
    ,(#375,#376)
    ,(#377,#378)
    ,(#379,#380)
    ,(#381,#382)
    ,(#383,#384)
    ,(#385,#386)
    ,(#387,#388)
    ,(#389,#390)
    ,(#391,#392
    )),.UNSPECIFIED.,.F.,.F.,.F.,(4,1,1,1,1,1,1,1,1,1,1,1,1,1,1,1,1,1,1,
    1,1,1,1,1,1,1,1,1,1,1,1,1,1,1,1,1,1,1,1,1,1,1,1,1,1,1,1,1,1,1,1,1,1,
    1,1,1,1,1,1,1,1,1,1,1,1,1,1,1,1,1,1,1,1,1,1,1,1,1,1,1,1,1,1,1,1,1,1,
    1,1,1,1,1,1,1,1,1,1,1,1,1,1,1,1,1,1,1,1,1,1,1,1,1,1,1,1,1,1,1,4),(2,
    2),(0.,6.030627299938E-02,0.215587503767,0.473877911892,
    0.83441245477,1.296124850646,1.857652206625,2.517340767219,
    3.273252652452,4.123173445656,5.064620491345,6.094851772312,
    7.21087525114,8.409458582987,9.687139131748,11.040234248571,
    12.464851798315,13.956900944348,15.512103223821,17.126003963523,
    18.793984100009,20.511272476791,22.272958695724,24.074006599344,
    25.909268455556,27.773499905503,29.661375719492,31.567506384174,
    33.486455516952,35.412758071246,37.340939259748,39.265534084094,
    41.181107320762,43.082273778003,44.963718610879,46.820217465525,
    48.64665622378,50.438050139785,52.210454026736,53.943825366685,
    55.627274385212,57.256370130376,58.826898391646,60.334880541774,
    61.776593408813,63.148591263099,64.447731506284,65.671206373146,
    66.816584046464,67.881864291403,68.865556472705,69.766792370155,
    70.58549379496,71.322627513986,71.980599487527,72.56386579716,
    73.079850302584,73.54018030993,73.961882946479,74.367404361436,
    74.772916241821,75.19437367947,75.653678706678,76.167196369447,
    76.745914735199,77.396689666043,78.123487091748,78.928297928832,
    79.811746962926,80.773487000898,81.812454863038,82.92704028221,
    84.115199517398,85.37453322286,86.702340710362,88.095658329061,
    89.551287040023,91.065812644172,92.635621103599,94.2569107271,
    95.925702527681,97.644111303359,99.423023965818,101.23681131287,
    103.08058252526,104.94931625413,106.83787831745,108.74104013782,
    110.65349773045,112.56989102267,114.48482328106,116.39288043272,
    118.28865009087,120.1667401272,122.02179666936,123.84852144009,
    125.64168839047,127.39615961298,129.10690054806,130.76899452127,
    132.37765666543,133.92824729413,135.41628479942,136.83745814717,
    138.18763903946,139.46289380304,140.65949504824,141.77393312237,
    142.80292735779,143.74343708694,144.5926723679,145.34810433415,
    146.00747505531,146.56880677266,147.03041035645,147.39089282381,
    147.64916375699,147.80444047284,147.867201539),(0.,1.),
  .UNSPECIFIED.);
#151 = CARTESIAN_POINT('',(71.950488322954,-2.312288034556,0.));
#152 = CARTESIAN_POINT('',(71.950488322954,-2.312288034556,24.));
#153 = CARTESIAN_POINT('',(71.933984910433,-2.328551901002,0.));
#154 = CARTESIAN_POINT('',(71.933984910433,-2.328551901002,24.));
#155 = CARTESIAN_POINT('',(71.871841818277,-2.364289765534,0.));
#156 = CARTESIAN_POINT('',(71.871841818277,-2.364289765534,24.));
#157 = CARTESIAN_POINT('',(71.7120623986,-2.27772436718,0.));
#158 = CARTESIAN_POINT('',(71.7120623986,-2.27772436718,24.));
#159 = CARTESIAN_POINT('',(71.465661274669,-2.240989865699,0.));
#160 = CARTESIAN_POINT('',(71.465661274669,-2.240989865699,24.));
#161 = CARTESIAN_POINT('',(71.114764650628,-2.141213085778,0.));
#162 = CARTESIAN_POINT('',(71.114764650628,-2.141213085778,24.));
#163 = CARTESIAN_POINT('',(70.667972220474,-2.033668016375,0.));
#164 = CARTESIAN_POINT('',(70.667972220474,-2.033668016375,24.));
#165 = CARTESIAN_POINT('',(70.123335668216,-1.896699840568,0.));
#166 = CARTESIAN_POINT('',(70.123335668216,-1.896699840568,24.));
#167 = CARTESIAN_POINT('',(69.483495504033,-1.739642675108,0.));
#168 = CARTESIAN_POINT('',(69.483495504033,-1.739642675108,24.));
#169 = CARTESIAN_POINT('',(68.749767274041,-1.560659824314,0.));
#170 = CARTESIAN_POINT('',(68.749767274041,-1.560659824314,24.));
#171 = CARTESIAN_POINT('',(67.924273833949,-1.361951288597,0.));
#172 = CARTESIAN_POINT('',(67.924273833949,-1.361951288597,24.));
#173 = CARTESIAN_POINT('',(67.009209962722,-1.144520648915,0.));
#174 = CARTESIAN_POINT('',(67.009209962722,-1.144520648915,24.));
#175 = CARTESIAN_POINT('',(66.007079312109,-0.909879479065,0.));
#176 = CARTESIAN_POINT('',(66.007079312109,-0.909879479065,24.));
#177 = CARTESIAN_POINT('',(64.920611850568,-0.659480122449,0.));
#178 = CARTESIAN_POINT('',(64.920611850568,-0.659480122449,24.));
#179 = CARTESIAN_POINT('',(63.752782049138,-0.394873800229,0.));
#180 = CARTESIAN_POINT('',(63.752782049138,-0.394873800229,24.));
#181 = CARTESIAN_POINT('',(62.506794530177,-0.117644485907,0.));
#182 = CARTESIAN_POINT('',(62.506794530177,-0.117644485907,24.));
#183 = CARTESIAN_POINT('',(61.186078549097,0.170586085584,0.));
#184 = CARTESIAN_POINT('',(61.186078549097,0.170586085584,24.));
#185 = CARTESIAN_POINT('',(59.794278681955,0.468172122353,0.));
#186 = CARTESIAN_POINT('',(59.794278681955,0.468172122353,24.));
#187 = CARTESIAN_POINT('',(58.335245544493,0.773448996787,0.));
#188 = CARTESIAN_POINT('',(58.335245544493,0.773448996787,24.));
#189 = CARTESIAN_POINT('',(56.813025451749,1.084738089408,0.));
#190 = CARTESIAN_POINT('',(56.813025451749,1.084738089408,24.));
#191 = CARTESIAN_POINT('',(55.231849403886,1.400349067808,0.));
#192 = CARTESIAN_POINT('',(55.231849403886,1.400349067808,24.));
#193 = CARTESIAN_POINT('',(53.596121365735,1.718580599364,0.));
#194 = CARTESIAN_POINT('',(53.596121365735,1.718580599364,24.));
#195 = CARTESIAN_POINT('',(51.910405940204,2.037719716474,0.));
#196 = CARTESIAN_POINT('',(51.910405940204,2.037719716474,24.));
#197 = CARTESIAN_POINT('',(50.179415504052,2.356040398083,0.));
#198 = CARTESIAN_POINT('',(50.179415504052,2.356040398083,24.));
#199 = CARTESIAN_POINT('',(48.407996885651,2.671801919793,0.));
#200 = CARTESIAN_POINT('',(48.407996885651,2.671801919793,24.));
#201 = CARTESIAN_POINT('',(46.601117658794,2.983247577542,0.));
#202 = CARTESIAN_POINT('',(46.601117658794,2.983247577542,24.));
#203 = CARTESIAN_POINT('',(44.763852121978,3.288604383767,0.));
#204 = CARTESIAN_POINT('',(44.763852121978,3.288604383767,24.));
#205 = CARTESIAN_POINT('',(42.901367024322,3.586084302319,0.));
#206 = CARTESIAN_POINT('',(42.901367024322,3.586084302319,24.));
#207 = CARTESIAN_POINT('',(41.018907089921,3.873887525714,0.));
#208 = CARTESIAN_POINT('',(41.018907089921,3.873887525714,24.));
#209 = CARTESIAN_POINT('',(39.121780380971,4.150208190974,0.));
#210 = CARTESIAN_POINT('',(39.121780380971,4.150208190974,24.));
#211 = CARTESIAN_POINT('',(37.215343532643,4.413242855891,0.));
#212 = CARTESIAN_POINT('',(37.215343532643,4.413242855891,24.));
#213 = CARTESIAN_POINT('',(35.304986870027,4.66120174173,0.));
#214 = CARTESIAN_POINT('',(35.304986870027,4.66120174173,24.));
#215 = CARTESIAN_POINT('',(33.396119456158,4.892323246479,0.));
#216 = CARTESIAN_POINT('',(33.396119456158,4.892323246479,24.));
#217 = CARTESIAN_POINT('',(31.494153937091,5.104889634178,0.));
#218 = CARTESIAN_POINT('',(31.494153937091,5.104889634178,24.));
#219 = CARTESIAN_POINT('',(29.60449170081,5.297250687007,0.));
#220 = CARTESIAN_POINT('',(29.60449170081,5.297250687007,24.));
#221 = CARTESIAN_POINT('',(27.732506444505,5.467828528055,0.));
#222 = CARTESIAN_POINT('',(27.732506444505,5.467828528055,24.));
#223 = CARTESIAN_POINT('',(25.883533155961,5.615199704288,0.));
#224 = CARTESIAN_POINT('',(25.883533155961,5.615199704288,24.));
#225 = CARTESIAN_POINT('',(24.062836868742,5.737899695834,0.));
#226 = CARTESIAN_POINT('',(24.062836868742,5.737899695834,24.));
#227 = CARTESIAN_POINT('',(22.268700851908,5.835618414864,0.));
#228 = CARTESIAN_POINT('',(22.268700851908,5.835618414864,24.));
#229 = CARTESIAN_POINT('',(20.504253703872,5.905299411121,0.));
#230 = CARTESIAN_POINT('',(20.504253703872,5.905299411121,24.));
#231 = CARTESIAN_POINT('',(18.774675992231,5.937306966354,0.));
#232 = CARTESIAN_POINT('',(18.774675992231,5.937306966354,24.));
#233 = CARTESIAN_POINT('',(17.092581924858,5.93334205618,0.));
#234 = CARTESIAN_POINT('',(17.092581924858,5.93334205618,24.));
#235 = CARTESIAN_POINT('',(15.465241068984,5.893318303933,0.));
#236 = CARTESIAN_POINT('',(15.465241068984,5.893318303933,24.));
#237 = CARTESIAN_POINT('',(13.897691288836,5.818124844134,0.));
#238 = CARTESIAN_POINT('',(13.897691288836,5.818124844134,24.));
#239 = CARTESIAN_POINT('',(12.394760487949,5.708774866042,0.));
#240 = CARTESIAN_POINT('',(12.394760487949,5.708774866042,24.));
#241 = CARTESIAN_POINT('',(10.961053179026,5.566594448516,0.));
#242 = CARTESIAN_POINT('',(10.961053179026,5.566594448516,24.));
#243 = CARTESIAN_POINT('',(9.600925461883,5.393148004941,0.));
#244 = CARTESIAN_POINT('',(9.600925461883,5.393148004941,24.));
#245 = CARTESIAN_POINT('',(8.318464738146,5.190222845323,0.));
#246 = CARTESIAN_POINT('',(8.318464738146,5.190222845323,24.));
#247 = CARTESIAN_POINT('',(7.117470088871,4.959791462871,0.));
#248 = CARTESIAN_POINT('',(7.117470088871,4.959791462871,24.));
#249 = CARTESIAN_POINT('',(6.00143413888,4.703972462908,0.));
#250 = CARTESIAN_POINT('',(6.00143413888,4.703972462908,24.));
#251 = CARTESIAN_POINT('',(4.973525632668,4.42498522766,0.));
#252 = CARTESIAN_POINT('',(4.973525632668,4.42498522766,24.));
#253 = CARTESIAN_POINT('',(4.036571901935,4.125099331595,0.));
#254 = CARTESIAN_POINT('',(4.036571901935,4.125099331595,24.));
#255 = CARTESIAN_POINT('',(3.193039941216,3.806576943712,0.));
#256 = CARTESIAN_POINT('',(3.193039941216,3.806576943712,24.));
#257 = CARTESIAN_POINT('',(2.445015185436,3.471603859502,0.));
#258 = CARTESIAN_POINT('',(2.445015185436,3.471603859502,24.));
#259 = CARTESIAN_POINT('',(1.794179227895,3.122199722699,0.));
#260 = CARTESIAN_POINT('',(1.794179227895,3.122199722699,24.));
#261 = CARTESIAN_POINT('',(1.241800226599,2.760086254147,0.));
#262 = CARTESIAN_POINT('',(1.241800226599,2.760086254147,24.));
#263 = CARTESIAN_POINT('',(0.788780638208,2.38649091679,0.));
#264 = CARTESIAN_POINT('',(0.788780638208,2.38649091679,24.));
#265 = CARTESIAN_POINT('',(0.435912661085,2.00187693092,0.));
#266 = CARTESIAN_POINT('',(0.435912661085,2.00187693092,24.));
#267 = CARTESIAN_POINT('',(0.184559755143,1.605889239838,0.));
#268 = CARTESIAN_POINT('',(0.184559755143,1.605889239838,24.));
#269 = CARTESIAN_POINT('',(3.777978563957E-02,1.198208007927,0.));
#270 = CARTESIAN_POINT('',(3.777978563957E-02,1.198208007927,24.));
#271 = CARTESIAN_POINT('',(-2.974508935176E-04,0.784513858964,0.));
#272 = CARTESIAN_POINT('',(-2.974508935176E-04,0.784513858964,24.));
#273 = CARTESIAN_POINT('',(6.757925841826E-02,0.374781969031,0.));
#274 = CARTESIAN_POINT('',(6.757925841826E-02,0.374781969031,24.));
#275 = CARTESIAN_POINT('',(0.242340403217,-2.112637473471E-02,0.));
#276 = CARTESIAN_POINT('',(0.242340403217,-2.112637473471E-02,24.));
#277 = CARTESIAN_POINT('',(0.518660443611,-0.398416259292,0.));
#278 = CARTESIAN_POINT('',(0.518660443611,-0.398416259292,24.));
#279 = CARTESIAN_POINT('',(0.8928775595,-0.758265575977,0.));
#280 = CARTESIAN_POINT('',(0.8928775595,-0.758265575977,24.));
#281 = CARTESIAN_POINT('',(1.363032426211,-1.101899070397,0.));
#282 = CARTESIAN_POINT('',(1.363032426211,-1.101899070397,24.));
#283 = CARTESIAN_POINT('',(1.927714674108,-1.429886102784,0.));
#284 = CARTESIAN_POINT('',(1.927714674108,-1.429886102784,24.));
#285 = CARTESIAN_POINT('',(2.585429255662,-1.742243100952,0.));
#286 = CARTESIAN_POINT('',(2.585429255662,-1.742243100952,24.));
#287 = CARTESIAN_POINT('',(3.334386941878,-2.038699871377,0.));
#288 = CARTESIAN_POINT('',(3.334386941878,-2.038699871377,24.));
#289 = CARTESIAN_POINT('',(4.172485154603,-2.318874020651,0.));
#290 = CARTESIAN_POINT('',(4.172485154603,-2.318874020651,24.));
#291 = CARTESIAN_POINT('',(5.097336502288,-2.582376687144,0.));
#292 = CARTESIAN_POINT('',(5.097336502288,-2.582376687144,24.));
#293 = CARTESIAN_POINT('',(6.106303881816,-2.828874909556,0.));
#294 = CARTESIAN_POINT('',(6.106303881816,-2.828874909556,24.));
#295 = CARTESIAN_POINT('',(7.196530233287,-3.058132375952,0.));
#296 = CARTESIAN_POINT('',(7.196530233287,-3.058132375952,24.));
#297 = CARTESIAN_POINT('',(8.364962086726,-3.270037945185,0.));
#298 = CARTESIAN_POINT('',(8.364962086726,-3.270037945185,24.));
#299 = CARTESIAN_POINT('',(9.608367835824,-3.464626518829,0.));
#300 = CARTESIAN_POINT('',(9.608367835824,-3.464626518829,24.));
#301 = CARTESIAN_POINT('',(10.923351951844,-3.642093564185,0.));
#302 = CARTESIAN_POINT('',(10.923351951844,-3.642093564185,24.));
#303 = CARTESIAN_POINT('',(12.306365996105,-3.80280505169,0.));
#304 = CARTESIAN_POINT('',(12.306365996105,-3.80280505169,24.));
#305 = CARTESIAN_POINT('',(13.753717316907,-3.947297824151,0.));
#306 = CARTESIAN_POINT('',(13.753717316907,-3.947297824151,24.));
#307 = CARTESIAN_POINT('',(15.261575158914,-4.076290475958,0.));
#308 = CARTESIAN_POINT('',(15.261575158914,-4.076290475958,24.));
#309 = CARTESIAN_POINT('',(16.825977838166,-4.190625087457,0.));
#310 = CARTESIAN_POINT('',(16.825977838166,-4.190625087457,24.));
#311 = CARTESIAN_POINT('',(18.442828816345,-4.291454236805,0.));
#312 = CARTESIAN_POINT('',(18.442828816345,-4.291454236805,24.));
#313 = CARTESIAN_POINT('',(20.110015764216,-4.379551847753,0.));
#314 = CARTESIAN_POINT('',(20.110015764216,-4.379551847753,24.));
#315 = CARTESIAN_POINT('',(21.830269601052,-4.458389436267,0.));
#316 = CARTESIAN_POINT('',(21.830269601052,-4.458389436267,24.));
#317 = CARTESIAN_POINT('',(23.599602044591,-4.520130200326,0.));
#318 = CARTESIAN_POINT('',(23.599602044591,-4.520130200326,24.));
#319 = CARTESIAN_POINT('',(25.41127119333,-4.563526636017,0.));
#320 = CARTESIAN_POINT('',(25.41127119333,-4.563526636017,24.));
#321 = CARTESIAN_POINT('',(27.253208224641,-4.589756158374,0.));
#322 = CARTESIAN_POINT('',(27.253208224641,-4.589756158374,24.));
#323 = CARTESIAN_POINT('',(29.120226330337,-4.599727747131,0.));
#324 = CARTESIAN_POINT('',(29.120226330337,-4.599727747131,24.));
#325 = CARTESIAN_POINT('',(31.007057035532,-4.594590591214,0.));
#326 = CARTESIAN_POINT('',(31.007057035532,-4.594590591214,24.));
#327 = CARTESIAN_POINT('',(32.908370368363,-4.575497208382,0.));
#328 = CARTESIAN_POINT('',(32.908370368363,-4.575497208382,24.));
#329 = CARTESIAN_POINT('',(34.818788324405,-4.543639174539,0.));
#330 = CARTESIAN_POINT('',(34.818788324405,-4.543639174539,24.));
#331 = CARTESIAN_POINT('',(36.732900530007,-4.500210479776,0.));
#332 = CARTESIAN_POINT('',(36.732900530007,-4.500210479776,24.));
#333 = CARTESIAN_POINT('',(38.645279584373,-4.446393599995,0.));
#334 = CARTESIAN_POINT('',(38.645279584373,-4.446393599995,24.));
#335 = CARTESIAN_POINT('',(40.550496669677,-4.383343085218,0.));
#336 = CARTESIAN_POINT('',(40.550496669677,-4.383343085218,24.));
#337 = CARTESIAN_POINT('',(42.443137169237,-4.312173954839,0.));
#338 = CARTESIAN_POINT('',(42.443137169237,-4.312173954839,24.));
#339 = CARTESIAN_POINT('',(44.317816263903,-4.233953185378,0.));
#340 = CARTESIAN_POINT('',(44.317816263903,-4.233953185378,24.));
#341 = CARTESIAN_POINT('',(46.169194419506,-4.149694787459,0.));
#342 = CARTESIAN_POINT('',(46.169194419506,-4.149694787459,24.));
#343 = CARTESIAN_POINT('',(47.991992702228,-4.06035816738,0.));
#344 = CARTESIAN_POINT('',(47.991992702228,-4.06035816738,24.));
#345 = CARTESIAN_POINT('',(49.781007864059,-3.966849491275,0.));
#346 = CARTESIAN_POINT('',(49.781007864059,-3.966849491275,24.));
#347 = CARTESIAN_POINT('',(51.531127153047,-3.870025597141,0.));
#348 = CARTESIAN_POINT('',(51.531127153047,-3.870025597141,24.));
#349 = CARTESIAN_POINT('',(53.237342814568,-3.770699910998,0.));
#350 = CARTESIAN_POINT('',(53.237342814568,-3.770699910998,24.));
#351 = CARTESIAN_POINT('',(54.894766261546,-3.669649748837,0.));
#352 = CARTESIAN_POINT('',(54.894766261546,-3.669649748837,24.));
#353 = CARTESIAN_POINT('',(56.498641901281,-3.567624349941,0.));
#354 = CARTESIAN_POINT('',(56.498641901281,-3.567624349941,24.));
#355 = CARTESIAN_POINT('',(58.044360616083,-3.465352976764,0.));
#356 = CARTESIAN_POINT('',(58.044360616083,-3.465352976764,24.));
#357 = CARTESIAN_POINT('',(59.527472894542,-3.363552463892,0.));
#358 = CARTESIAN_POINT('',(59.527472894542,-3.363552463892,24.));
#359 = CARTESIAN_POINT('',(60.94370163167,-3.262933590089,0.));
#360 = CARTESIAN_POINT('',(60.94370163167,-3.262933590089,24.));
#361 = CARTESIAN_POINT('',(62.288954546415,-3.164205969128,0.));
#362 = CARTESIAN_POINT('',(62.288954546415,-3.164205969128,24.));
#363 = CARTESIAN_POINT('',(63.559336396729,-3.068080446128,0.));
#364 = CARTESIAN_POINT('',(63.559336396729,-3.068080446128,24.));
#365 = CARTESIAN_POINT('',(64.75116035071,-2.975270922932,0.));
#366 = CARTESIAN_POINT('',(64.75116035071,-2.975270922932,24.));
#367 = CARTESIAN_POINT('',(65.860960635908,-2.88648808647,0.));
#368 = CARTESIAN_POINT('',(65.860960635908,-2.88648808647,24.));
#369 = CARTESIAN_POINT('',(66.885499220259,-2.802449983167,0.));
#370 = CARTESIAN_POINT('',(66.885499220259,-2.802449983167,24.));
#371 = CARTESIAN_POINT('',(67.821790454076,-2.723826748394,0.));
#372 = CARTESIAN_POINT('',(67.821790454076,-2.723826748394,24.));
#373 = CARTESIAN_POINT('',(68.667065060087,-2.651391204638,0.));
#374 = CARTESIAN_POINT('',(68.667065060087,-2.651391204638,24.));
#375 = CARTESIAN_POINT('',(69.418926428121,-2.585501410641,0.));
#376 = CARTESIAN_POINT('',(69.418926428121,-2.585501410641,24.));
#377 = CARTESIAN_POINT('',(70.074900864321,-2.527673966701,0.));
#378 = CARTESIAN_POINT('',(70.074900864321,-2.527673966701,24.));
#379 = CARTESIAN_POINT('',(70.633835804871,-2.47576876739,0.));
#380 = CARTESIAN_POINT('',(70.633835804871,-2.47576876739,24.));
#381 = CARTESIAN_POINT('',(71.091849261844,-2.437998473198,0.));
#382 = CARTESIAN_POINT('',(71.091849261844,-2.437998473198,24.));
#383 = CARTESIAN_POINT('',(71.453571323501,-2.394095464235,0.));
#384 = CARTESIAN_POINT('',(71.453571323501,-2.394095464235,24.));
#385 = CARTESIAN_POINT('',(71.70337315603,-2.394734991898,0.));
#386 = CARTESIAN_POINT('',(71.70337315603,-2.394734991898,24.));
#387 = CARTESIAN_POINT('',(71.874229649138,-2.335811889841,0.));
#388 = CARTESIAN_POINT('',(71.874229649138,-2.335811889841,24.));
#389 = CARTESIAN_POINT('',(71.931941178171,-2.37965281517,-0.));
#390 = CARTESIAN_POINT('',(71.931941178171,-2.37965281517,24.));
#391 = CARTESIAN_POINT('',(71.946719607886,-2.3986058009,0.));
#392 = CARTESIAN_POINT('',(71.946719607886,-2.3986058009,24.));
#393 = DEFINITIONAL_REPRESENTATION('',(#394),#398);
#394 = LINE('',#395,#396);
#395 = CARTESIAN_POINT('',(0.,0.));
#396 = VECTOR('',#397,1.);
#397 = DIRECTION('',(1.,0.));
#398 = ( GEOMETRIC_REPRESENTATION_CONTEXT(2) 
PARAMETRIC_REPRESENTATION_CONTEXT() REPRESENTATION_CONTEXT('2D SPACE',''
  ) );
#399 = PCURVE('',#400,#405);
#400 = PLANE('',#401);
#401 = AXIS2_PLACEMENT_3D('',#402,#403,#404);
#402 = CARTESIAN_POINT('',(71.950488322954,-2.312288034556,0.));
#403 = DIRECTION('',(0.,0.,-1.));
#404 = DIRECTION('',(-0.998797376212,4.902857607779E-02,0.));
#405 = DEFINITIONAL_REPRESENTATION('',(#406),#528);
#406 = B_SPLINE_CURVE_WITH_KNOTS('',3,(#407,#408,#409,#410,#411,#412,
    #413,#414,#415,#416,#417,#418,#419,#420,#421,#422,#423,#424,#425,
    #426,#427,#428,#429,#430,#431,#432,#433,#434,#435,#436,#437,#438,
    #439,#440,#441,#442,#443,#444,#445,#446,#447,#448,#449,#450,#451,
    #452,#453,#454,#455,#456,#457,#458,#459,#460,#461,#462,#463,#464,
    #465,#466,#467,#468,#469,#470,#471,#472,#473,#474,#475,#476,#477,
    #478,#479,#480,#481,#482,#483,#484,#485,#486,#487,#488,#489,#490,
    #491,#492,#493,#494,#495,#496,#497,#498,#499,#500,#501,#502,#503,
    #504,#505,#506,#507,#508,#509,#510,#511,#512,#513,#514,#515,#516,
    #517,#518,#519,#520,#521,#522,#523,#524,#525,#526,#527),
  .UNSPECIFIED.,.F.,.F.,(4,1,1,1,1,1,1,1,1,1,1,1,1,1,1,1,1,1,1,1,1,1,1,1
    ,1,1,1,1,1,1,1,1,1,1,1,1,1,1,1,1,1,1,1,1,1,1,1,1,1,1,1,1,1,1,1,1,1,1
    ,1,1,1,1,1,1,1,1,1,1,1,1,1,1,1,1,1,1,1,1,1,1,1,1,1,1,1,1,1,1,1,1,1,1
    ,1,1,1,1,1,1,1,1,1,1,1,1,1,1,1,1,1,1,1,1,1,1,1,1,1,1,4),(0.,
    6.030627299938E-02,0.215587503767,0.473877911892,0.83441245477,
    1.296124850646,1.857652206625,2.517340767219,3.273252652452,
    4.123173445656,5.064620491345,6.094851772312,7.21087525114,
    8.409458582987,9.687139131748,11.040234248571,12.464851798315,
    13.956900944348,15.512103223821,17.126003963523,18.793984100009,
    20.511272476791,22.272958695724,24.074006599344,25.909268455556,
    27.773499905503,29.661375719492,31.567506384174,33.486455516952,
    35.412758071246,37.340939259748,39.265534084094,41.181107320762,
    43.082273778003,44.963718610879,46.820217465525,48.64665622378,
    50.438050139785,52.210454026736,53.943825366685,55.627274385212,
    57.256370130376,58.826898391646,60.334880541774,61.776593408813,
    63.148591263099,64.447731506284,65.671206373146,66.816584046464,
    67.881864291403,68.865556472705,69.766792370155,70.58549379496,
    71.322627513986,71.980599487527,72.56386579716,73.079850302584,
    73.54018030993,73.961882946479,74.367404361436,74.772916241821,
    75.19437367947,75.653678706678,76.167196369447,76.745914735199,
    77.396689666043,78.123487091748,78.928297928832,79.811746962926,
    80.773487000898,81.812454863038,82.92704028221,84.115199517398,
    85.37453322286,86.702340710362,88.095658329061,89.551287040023,
    91.065812644172,92.635621103599,94.2569107271,95.925702527681,
    97.644111303359,99.423023965818,101.23681131287,103.08058252526,
    104.94931625413,106.83787831745,108.74104013782,110.65349773045,
    112.56989102267,114.48482328106,116.39288043272,118.28865009087,
    120.1667401272,122.02179666936,123.84852144009,125.64168839047,
    127.39615961298,129.10690054806,130.76899452127,132.37765666543,
    133.92824729413,135.41628479942,136.83745814717,138.18763903946,
    139.46289380304,140.65949504824,141.77393312237,142.80292735779,
    143.74343708694,144.5926723679,145.34810433415,146.00747505531,
    146.56880677266,147.03041035645,147.39089282381,147.64916375699,
    147.80444047284,147.867201539),.UNSPECIFIED.);
#407 = CARTESIAN_POINT('',(0.,0.));
#408 = CARTESIAN_POINT('',(1.568617091181E-02,-1.705344595016E-02));
#409 = CARTESIAN_POINT('',(7.600235169691E-02,-5.579511859738E-02));
#410 = CARTESIAN_POINT('',(0.239833795062,2.283241671651E-02));
#411 = CARTESIAN_POINT('',(0.487739631441,4.744204416192E-02));
#412 = CARTESIAN_POINT('',(0.843106172299,0.129894868326));
#413 = CARTESIAN_POINT('',(1.294634060865,0.215405004818));
#414 = CARTESIAN_POINT('',(1.845330974877,0.325505704801));
#415 = CARTESIAN_POINT('',(2.492101941244,0.451003537411));
#416 = CARTESIAN_POINT('',(3.233723046529,0.593797488826));
#417 = CARTESIAN_POINT('',(4.067966125134,0.751794285001));
#418 = CARTESIAN_POINT('',(4.992589833441,0.924099158798));
#419 = CARTESIAN_POINT('',(6.005019420341,1.109325104751));
#420 = CARTESIAN_POINT('',(7.102456994174,1.306155372551));
#421 = CARTESIAN_POINT('',(8.281855606904,1.513186440647));
#422 = CARTESIAN_POINT('',(9.539936830164,1.728993358536));
#423 = CARTESIAN_POINT('',(10.873196021289,1.95212447313));
#424 = CARTESIAN_POINT('',(12.277912296446,2.181114660181));
#425 = CARTESIAN_POINT('',(13.750158056412,2.414490084204));
#426 = CARTESIAN_POINT('',(15.285809552022,2.650772529533));
#427 = CARTESIAN_POINT('',(16.880557996822,2.888481136507));
#428 = CARTESIAN_POINT('',(18.529921308379,3.126132538692));
#429 = CARTESIAN_POINT('',(20.229256388922,3.362239624522));
#430 = CARTESIAN_POINT('',(21.973771904553,3.595309489818));
#431 = CARTESIAN_POINT('',(23.758541510575,3.823841136713));
#432 = CARTESIAN_POINT('',(25.578517478617,4.046323526869));
#433 = CARTESIAN_POINT('',(27.428544685599,4.261234590588));
#434 = CARTESIAN_POINT('',(29.303374931189,4.467041760408));
#435 = CARTESIAN_POINT('',(31.197681556726,4.662204534694));
#436 = CARTESIAN_POINT('',(33.106074344726,4.845179468969));
#437 = CARTESIAN_POINT('',(35.023114681829,5.014427918086));
#438 = CARTESIAN_POINT('',(36.943330975178,5.168426535701));
#439 = CARTESIAN_POINT('',(38.861234297966,5.305681037008));
#440 = CARTESIAN_POINT('',(40.771334295366,5.424741126163));
#441 = CARTESIAN_POINT('',(42.668155167403,5.524223392302));
#442 = CARTESIAN_POINT('',(44.546252318365,5.602815320825));
#443 = CARTESIAN_POINT('',(46.400227386575,5.659356737433));
#444 = CARTESIAN_POINT('',(48.224749866997,5.692643020617));
#445 = CARTESIAN_POINT('',(50.021519222829,5.702280286596));
#446 = CARTESIAN_POINT('',(51.787260764778,5.685369151596));
#447 = CARTESIAN_POINT('',(53.516327729976,5.632539481364));
#448 = CARTESIAN_POINT('',(55.19620447711,5.546108662533));
#449 = CARTESIAN_POINT('',(56.819625946578,5.426346838846));
#450 = CARTESIAN_POINT('',(58.381603925806,5.274389074839));
#451 = CARTESIAN_POINT('',(59.877365992641,5.091484046521));
#452 = CARTESIAN_POINT('',(61.302378187631,4.879181990679));
#453 = CARTESIAN_POINT('',(62.652366350672,4.639259012667));
#454 = CARTESIAN_POINT('',(63.923335625009,4.373700672513));
#455 = CARTESIAN_POINT('',(65.111588206985,4.084663354792));
#456 = CARTESIAN_POINT('',(66.213739544292,3.774434355364));
#457 = CARTESIAN_POINT('',(67.226733516394,3.445385746404));
#458 = CARTESIAN_POINT('',(68.147857465812,3.099922992982));
#459 = CARTESIAN_POINT('',(68.974758275803,2.74042649679));
#460 = CARTESIAN_POINT('',(69.705460185874,2.369181670533));
#461 = CARTESIAN_POINT('',(70.338382645307,1.988288175198));
#462 = CARTESIAN_POINT('',(70.872343434734,1.599527837028));
#463 = CARTESIAN_POINT('',(71.306501363572,1.204170888957));
#464 = CARTESIAN_POINT('',(71.640087897205,0.802718834554));
#465 = CARTESIAN_POINT('',(71.871723807525,0.394883892618));
#466 = CARTESIAN_POINT('',(71.998339225651,-1.950346504755E-02));
#467 = CARTESIAN_POINT('',(72.016087834539,-0.434566968274));
#468 = CARTESIAN_POINT('',(71.928204184235,-0.840478206483));
#469 = CARTESIAN_POINT('',(71.734242388994,-1.227342131373));
#470 = CARTESIAN_POINT('',(71.439756671845,-1.590630700019));
#471 = CARTESIAN_POINT('',(71.048346698762,-1.931699921019));
#472 = CARTESIAN_POINT('',(70.561909390554,-2.251869129974));
#473 = CARTESIAN_POINT('',(69.981825505791,-2.551776150802));
#474 = CARTESIAN_POINT('',(69.309587488591,-2.831510691615));
#475 = CARTESIAN_POINT('',(68.546995663382,-3.090890607178));
#476 = CARTESIAN_POINT('',(67.696168827911,-3.329637050372));
#477 = CARTESIAN_POINT('',(66.759510567926,-3.547478677629));
#478 = CARTESIAN_POINT('',(65.739671139721,-3.744212221488));
#479 = CARTESIAN_POINT('',(64.639515753262,-3.919741731786));
#480 = CARTESIAN_POINT('',(63.462099655441,-4.074105908323));
#481 = CARTESIAN_POINT('',(62.210648854989,-4.207498051754));
#482 = CARTESIAN_POINT('',(60.888545213613,-4.320279872246));
#483 = CARTESIAN_POINT('',(59.49931495955,-4.412990875008));
#484 = CARTESIAN_POINT('',(58.046619982989,-4.48634830268));
#485 = CARTESIAN_POINT('',(56.534251200648,-4.541257701934));
#486 = CARTESIAN_POINT('',(54.966124246075,-4.578754376133));
#487 = CARTESIAN_POINT('',(53.346274221724,-4.600190364758));
#488 = CARTESIAN_POINT('',(51.676772972115,-4.606442225314));
#489 = CARTESIAN_POINT('',(49.954722658758,-4.600843405756));
#490 = CARTESIAN_POINT('',(48.184490994757,-4.575762068588));
#491 = CARTESIAN_POINT('',(46.372872936984,-4.530282756007));
#492 = CARTESIAN_POINT('',(44.53186506683,-4.466173184246));
#493 = CARTESIAN_POINT('',(42.666603388723,-4.384595541699));
#494 = CARTESIAN_POINT('',(40.782293698458,-4.286955941072));
#495 = CARTESIAN_POINT('',(38.884203051643,-4.174666835011));
#496 = CARTESIAN_POINT('',(36.977644563716,-4.049182042299));
#497 = CARTESIAN_POINT('',(35.067963562051,-3.911959380024));
#498 = CARTESIAN_POINT('',(33.160522945212,-3.764445999746));
#499 = CARTESIAN_POINT('',(31.260688396257,-3.608061230206));
#500 = CARTESIAN_POINT('',(29.373813352306,-3.444184220796));
#501 = CARTESIAN_POINT('',(27.505223844262,-3.274144674879));
#502 = CARTESIAN_POINT('',(25.660203269341,-3.099217173363));
#503 = CARTESIAN_POINT('',(23.843977174469,-2.920618787349));
#504 = CARTESIAN_POINT('',(22.06169812207,-2.739509701037));
#505 = CARTESIAN_POINT('',(20.31843070583,-2.556996392915));
#506 = CARTESIAN_POINT('',(18.619136776811,-2.374136833839));
#507 = CARTESIAN_POINT('',(16.968660932261,-2.191947085444));
#508 = CARTESIAN_POINT('',(15.371716311555,-2.011408645898));
#509 = CARTESIAN_POINT('',(13.832870734649,-1.833475879103));
#510 = CARTESIAN_POINT('',(12.356533216487,-1.659082910773));
#511 = CARTESIAN_POINT('',(10.946940869837,-1.48914936524));
#512 = CARTESIAN_POINT('',(9.608146262923,-1.32458464159));
#513 = CARTESIAN_POINT('',(8.34400510156,-1.166289708235));
#514 = CARTESIAN_POINT('',(7.158164782185,-1.01515836858));
#515 = CARTESIAN_POINT('',(6.054052065262,-0.872070376755));
#516 = CARTESIAN_POINT('',(5.034865883926,-0.737901671747));
#517 = CARTESIAN_POINT('',(4.103555441467,-0.613467965158));
#518 = CARTESIAN_POINT('',(3.262848794372,-0.499676923783));
#519 = CARTESIAN_POINT('',(2.515122115482,-0.397003678137));
#520 = CARTESIAN_POINT('',(1.862771766979,-0.307084286305));
#521 = CARTESIAN_POINT('',(1.307053852897,-0.227837725167));
#522 = CARTESIAN_POINT('',(0.851443037545,-0.167657106809));
#523 = CARTESIAN_POINT('',(0.49230849346,-0.10607217903));
#524 = CARTESIAN_POINT('',(0.242775723426,-9.446350943187E-02));
#525 = CARTESIAN_POINT('',(7.501362219274E-02,-2.723441912816E-02));
#526 = CARTESIAN_POINT('',(1.522204027459E-02,-6.819310622597E-02));
#527 = CARTESIAN_POINT('',(-4.678544521255E-04,-8.639873327898E-02));
#528 = ( GEOMETRIC_REPRESENTATION_CONTEXT(2) 
PARAMETRIC_REPRESENTATION_CONTEXT() REPRESENTATION_CONTEXT('2D SPACE',''
  ) );
#529 = ORIENTED_EDGE('',*,*,#530,.T.);
#530 = EDGE_CURVE('',#24,#531,#533,.T.);
#531 = VERTEX_POINT('',#532);
#532 = CARTESIAN_POINT('',(71.946719607886,-2.3986058009,24.));
#533 = SURFACE_CURVE('',#534,(#537,#544),.PCURVE_S1.);
#534 = B_SPLINE_CURVE_WITH_KNOTS('',1,(#535,#536),.UNSPECIFIED.,.F.,.F.,
  (2,2),(0.,1.),.PIECEWISE_BEZIER_KNOTS.);
#535 = CARTESIAN_POINT('',(71.946719607886,-2.3986058009,0.));
#536 = CARTESIAN_POINT('',(71.946719607886,-2.3986058009,24.));
#537 = PCURVE('',#150,#538);
#538 = DEFINITIONAL_REPRESENTATION('',(#539),#543);
#539 = LINE('',#540,#541);
#540 = CARTESIAN_POINT('',(147.867201539,0.));
#541 = VECTOR('',#542,1.);
#542 = DIRECTION('',(0.,1.));
#543 = ( GEOMETRIC_REPRESENTATION_CONTEXT(2) 
PARAMETRIC_REPRESENTATION_CONTEXT() REPRESENTATION_CONTEXT('2D SPACE',''
  ) );
#544 = PCURVE('',#545,#550);
#545 = PLANE('',#546);
#546 = AXIS2_PLACEMENT_3D('',#547,#548,#549);
#547 = CARTESIAN_POINT('',(71.946719607886,-2.3986058009,24.));
#548 = DIRECTION('',(0.999048221582,-4.361938736529E-02,0.));
#549 = DIRECTION('',(4.361938736529E-02,0.999048221582,0.));
#550 = DEFINITIONAL_REPRESENTATION('',(#551),#554);
#551 = B_SPLINE_CURVE_WITH_KNOTS('',1,(#552,#553),.UNSPECIFIED.,.F.,.F.,
  (2,2),(0.,1.),.PIECEWISE_BEZIER_KNOTS.);
#552 = CARTESIAN_POINT('',(0.,-24.));
#553 = CARTESIAN_POINT('',(0.,0.));
#554 = ( GEOMETRIC_REPRESENTATION_CONTEXT(2) 
PARAMETRIC_REPRESENTATION_CONTEXT() REPRESENTATION_CONTEXT('2D SPACE',''
  ) );
#555 = ORIENTED_EDGE('',*,*,#556,.F.);
#556 = EDGE_CURVE('',#557,#531,#559,.T.);
#557 = VERTEX_POINT('',#558);
#558 = CARTESIAN_POINT('',(71.950488322954,-2.312288034556,24.));
#559 = SURFACE_CURVE('',#560,(#682,#689),.PCURVE_S1.);
#560 = B_SPLINE_CURVE_WITH_KNOTS('',3,(#561,#562,#563,#564,#565,#566,
    #567,#568,#569,#570,#571,#572,#573,#574,#575,#576,#577,#578,#579,
    #580,#581,#582,#583,#584,#585,#586,#587,#588,#589,#590,#591,#592,
    #593,#594,#595,#596,#597,#598,#599,#600,#601,#602,#603,#604,#605,
    #606,#607,#608,#609,#610,#611,#612,#613,#614,#615,#616,#617,#618,
    #619,#620,#621,#622,#623,#624,#625,#626,#627,#628,#629,#630,#631,
    #632,#633,#634,#635,#636,#637,#638,#639,#640,#641,#642,#643,#644,
    #645,#646,#647,#648,#649,#650,#651,#652,#653,#654,#655,#656,#657,
    #658,#659,#660,#661,#662,#663,#664,#665,#666,#667,#668,#669,#670,
    #671,#672,#673,#674,#675,#676,#677,#678,#679,#680,#681),
  .UNSPECIFIED.,.F.,.F.,(4,1,1,1,1,1,1,1,1,1,1,1,1,1,1,1,1,1,1,1,1,1,1,1
    ,1,1,1,1,1,1,1,1,1,1,1,1,1,1,1,1,1,1,1,1,1,1,1,1,1,1,1,1,1,1,1,1,1,1
    ,1,1,1,1,1,1,1,1,1,1,1,1,1,1,1,1,1,1,1,1,1,1,1,1,1,1,1,1,1,1,1,1,1,1
    ,1,1,1,1,1,1,1,1,1,1,1,1,1,1,1,1,1,1,1,1,1,1,1,1,1,1,4),(0.,
    6.030627299938E-02,0.215587503767,0.473877911892,0.83441245477,
    1.296124850646,1.857652206625,2.517340767219,3.273252652452,
    4.123173445656,5.064620491345,6.094851772312,7.21087525114,
    8.409458582987,9.687139131748,11.040234248571,12.464851798315,
    13.956900944348,15.512103223821,17.126003963523,18.793984100009,
    20.511272476791,22.272958695724,24.074006599344,25.909268455556,
    27.773499905503,29.661375719492,31.567506384174,33.486455516952,
    35.412758071246,37.340939259748,39.265534084094,41.181107320762,
    43.082273778003,44.963718610879,46.820217465525,48.64665622378,
    50.438050139785,52.210454026736,53.943825366685,55.627274385212,
    57.256370130376,58.826898391646,60.334880541774,61.776593408813,
    63.148591263099,64.447731506284,65.671206373146,66.816584046464,
    67.881864291403,68.865556472705,69.766792370155,70.58549379496,
    71.322627513986,71.980599487527,72.56386579716,73.079850302584,
    73.54018030993,73.961882946479,74.367404361436,74.772916241821,
    75.19437367947,75.653678706678,76.167196369447,76.745914735199,
    77.396689666043,78.123487091748,78.928297928832,79.811746962926,
    80.773487000898,81.812454863038,82.92704028221,84.115199517398,
    85.37453322286,86.702340710362,88.095658329061,89.551287040023,
    91.065812644172,92.635621103599,94.2569107271,95.925702527681,
    97.644111303359,99.423023965818,101.23681131287,103.08058252526,
    104.94931625413,106.83787831745,108.74104013782,110.65349773045,
    112.56989102267,114.48482328106,116.39288043272,118.28865009087,
    120.1667401272,122.02179666936,123.84852144009,125.64168839047,
    127.39615961298,129.10690054806,130.76899452127,132.37765666543,
    133.92824729413,135.41628479942,136.83745814717,138.18763903946,
    139.46289380304,140.65949504824,141.77393312237,142.80292735779,
    143.74343708694,144.5926723679,145.34810433415,146.00747505531,
    146.56880677266,147.03041035645,147.39089282381,147.64916375699,
    147.80444047284,147.867201539),.UNSPECIFIED.);
#561 = CARTESIAN_POINT('',(71.950488322954,-2.312288034556,24.));
#562 = CARTESIAN_POINT('',(71.933984910433,-2.328551901002,24.));
#563 = CARTESIAN_POINT('',(71.871841818277,-2.364289765534,24.));
#564 = CARTESIAN_POINT('',(71.7120623986,-2.27772436718,24.));
#565 = CARTESIAN_POINT('',(71.465661274669,-2.240989865699,24.));
#566 = CARTESIAN_POINT('',(71.114764650628,-2.141213085778,24.));
#567 = CARTESIAN_POINT('',(70.667972220474,-2.033668016375,24.));
#568 = CARTESIAN_POINT('',(70.123335668216,-1.896699840568,24.));
#569 = CARTESIAN_POINT('',(69.483495504033,-1.739642675108,24.));
#570 = CARTESIAN_POINT('',(68.749767274041,-1.560659824314,24.));
#571 = CARTESIAN_POINT('',(67.924273833949,-1.361951288597,24.));
#572 = CARTESIAN_POINT('',(67.009209962722,-1.144520648915,24.));
#573 = CARTESIAN_POINT('',(66.007079312109,-0.909879479065,24.));
#574 = CARTESIAN_POINT('',(64.920611850568,-0.659480122449,24.));
#575 = CARTESIAN_POINT('',(63.752782049138,-0.394873800229,24.));
#576 = CARTESIAN_POINT('',(62.506794530177,-0.117644485907,24.));
#577 = CARTESIAN_POINT('',(61.186078549097,0.170586085584,24.));
#578 = CARTESIAN_POINT('',(59.794278681955,0.468172122353,24.));
#579 = CARTESIAN_POINT('',(58.335245544493,0.773448996787,24.));
#580 = CARTESIAN_POINT('',(56.813025451749,1.084738089408,24.));
#581 = CARTESIAN_POINT('',(55.231849403886,1.400349067808,24.));
#582 = CARTESIAN_POINT('',(53.596121365735,1.718580599364,24.));
#583 = CARTESIAN_POINT('',(51.910405940204,2.037719716474,24.));
#584 = CARTESIAN_POINT('',(50.179415504052,2.356040398083,24.));
#585 = CARTESIAN_POINT('',(48.407996885651,2.671801919793,24.));
#586 = CARTESIAN_POINT('',(46.601117658794,2.983247577542,24.));
#587 = CARTESIAN_POINT('',(44.763852121978,3.288604383767,24.));
#588 = CARTESIAN_POINT('',(42.901367024322,3.586084302319,24.));
#589 = CARTESIAN_POINT('',(41.018907089921,3.873887525714,24.));
#590 = CARTESIAN_POINT('',(39.121780380971,4.150208190974,24.));
#591 = CARTESIAN_POINT('',(37.215343532643,4.413242855891,24.));
#592 = CARTESIAN_POINT('',(35.304986870027,4.66120174173,24.));
#593 = CARTESIAN_POINT('',(33.396119456158,4.892323246479,24.));
#594 = CARTESIAN_POINT('',(31.494153937091,5.104889634178,24.));
#595 = CARTESIAN_POINT('',(29.60449170081,5.297250687007,24.));
#596 = CARTESIAN_POINT('',(27.732506444505,5.467828528055,24.));
#597 = CARTESIAN_POINT('',(25.883533155961,5.615199704288,24.));
#598 = CARTESIAN_POINT('',(24.062836868742,5.737899695834,24.));
#599 = CARTESIAN_POINT('',(22.268700851908,5.835618414864,24.));
#600 = CARTESIAN_POINT('',(20.504253703872,5.905299411121,24.));
#601 = CARTESIAN_POINT('',(18.774675992231,5.937306966354,24.));
#602 = CARTESIAN_POINT('',(17.092581924858,5.93334205618,24.));
#603 = CARTESIAN_POINT('',(15.465241068984,5.893318303933,24.));
#604 = CARTESIAN_POINT('',(13.897691288836,5.818124844134,24.));
#605 = CARTESIAN_POINT('',(12.394760487949,5.708774866042,24.));
#606 = CARTESIAN_POINT('',(10.961053179026,5.566594448516,24.));
#607 = CARTESIAN_POINT('',(9.600925461883,5.393148004941,24.));
#608 = CARTESIAN_POINT('',(8.318464738146,5.190222845323,24.));
#609 = CARTESIAN_POINT('',(7.117470088871,4.959791462871,24.));
#610 = CARTESIAN_POINT('',(6.00143413888,4.703972462908,24.));
#611 = CARTESIAN_POINT('',(4.973525632668,4.42498522766,24.));
#612 = CARTESIAN_POINT('',(4.036571901935,4.125099331595,24.));
#613 = CARTESIAN_POINT('',(3.193039941216,3.806576943712,24.));
#614 = CARTESIAN_POINT('',(2.445015185436,3.471603859502,24.));
#615 = CARTESIAN_POINT('',(1.794179227895,3.122199722699,24.));
#616 = CARTESIAN_POINT('',(1.241800226599,2.760086254147,24.));
#617 = CARTESIAN_POINT('',(0.788780638208,2.38649091679,24.));
#618 = CARTESIAN_POINT('',(0.435912661085,2.00187693092,24.));
#619 = CARTESIAN_POINT('',(0.184559755143,1.605889239838,24.));
#620 = CARTESIAN_POINT('',(3.777978563957E-02,1.198208007927,24.));
#621 = CARTESIAN_POINT('',(-2.974508935176E-04,0.784513858964,24.));
#622 = CARTESIAN_POINT('',(6.757925841826E-02,0.374781969031,24.));
#623 = CARTESIAN_POINT('',(0.242340403217,-2.112637473471E-02,24.));
#624 = CARTESIAN_POINT('',(0.518660443611,-0.398416259292,24.));
#625 = CARTESIAN_POINT('',(0.8928775595,-0.758265575977,24.));
#626 = CARTESIAN_POINT('',(1.363032426211,-1.101899070397,24.));
#627 = CARTESIAN_POINT('',(1.927714674108,-1.429886102784,24.));
#628 = CARTESIAN_POINT('',(2.585429255662,-1.742243100952,24.));
#629 = CARTESIAN_POINT('',(3.334386941878,-2.038699871377,24.));
#630 = CARTESIAN_POINT('',(4.172485154603,-2.318874020651,24.));
#631 = CARTESIAN_POINT('',(5.097336502288,-2.582376687144,24.));
#632 = CARTESIAN_POINT('',(6.106303881816,-2.828874909556,24.));
#633 = CARTESIAN_POINT('',(7.196530233287,-3.058132375952,24.));
#634 = CARTESIAN_POINT('',(8.364962086726,-3.270037945185,24.));
#635 = CARTESIAN_POINT('',(9.608367835824,-3.464626518829,24.));
#636 = CARTESIAN_POINT('',(10.923351951844,-3.642093564185,24.));
#637 = CARTESIAN_POINT('',(12.306365996105,-3.80280505169,24.));
#638 = CARTESIAN_POINT('',(13.753717316907,-3.947297824151,24.));
#639 = CARTESIAN_POINT('',(15.261575158914,-4.076290475958,24.));
#640 = CARTESIAN_POINT('',(16.825977838166,-4.190625087457,24.));
#641 = CARTESIAN_POINT('',(18.442828816345,-4.291454236805,24.));
#642 = CARTESIAN_POINT('',(20.110015764216,-4.379551847753,24.));
#643 = CARTESIAN_POINT('',(21.830269601052,-4.458389436267,24.));
#644 = CARTESIAN_POINT('',(23.599602044591,-4.520130200326,24.));
#645 = CARTESIAN_POINT('',(25.41127119333,-4.563526636017,24.));
#646 = CARTESIAN_POINT('',(27.253208224641,-4.589756158374,24.));
#647 = CARTESIAN_POINT('',(29.120226330337,-4.599727747131,24.));
#648 = CARTESIAN_POINT('',(31.007057035532,-4.594590591214,24.));
#649 = CARTESIAN_POINT('',(32.908370368363,-4.575497208382,24.));
#650 = CARTESIAN_POINT('',(34.818788324405,-4.543639174539,24.));
#651 = CARTESIAN_POINT('',(36.732900530007,-4.500210479776,24.));
#652 = CARTESIAN_POINT('',(38.645279584373,-4.446393599995,24.));
#653 = CARTESIAN_POINT('',(40.550496669677,-4.383343085218,24.));
#654 = CARTESIAN_POINT('',(42.443137169237,-4.312173954839,24.));
#655 = CARTESIAN_POINT('',(44.317816263903,-4.233953185378,24.));
#656 = CARTESIAN_POINT('',(46.169194419506,-4.149694787459,24.));
#657 = CARTESIAN_POINT('',(47.991992702228,-4.06035816738,24.));
#658 = CARTESIAN_POINT('',(49.781007864059,-3.966849491275,24.));
#659 = CARTESIAN_POINT('',(51.531127153047,-3.870025597141,24.));
#660 = CARTESIAN_POINT('',(53.237342814568,-3.770699910998,24.));
#661 = CARTESIAN_POINT('',(54.894766261546,-3.669649748837,24.));
#662 = CARTESIAN_POINT('',(56.498641901281,-3.567624349941,24.));
#663 = CARTESIAN_POINT('',(58.044360616083,-3.465352976764,24.));
#664 = CARTESIAN_POINT('',(59.527472894542,-3.363552463892,24.));
#665 = CARTESIAN_POINT('',(60.94370163167,-3.262933590089,24.));
#666 = CARTESIAN_POINT('',(62.288954546415,-3.164205969128,24.));
#667 = CARTESIAN_POINT('',(63.559336396729,-3.068080446128,24.));
#668 = CARTESIAN_POINT('',(64.75116035071,-2.975270922932,24.));
#669 = CARTESIAN_POINT('',(65.860960635908,-2.88648808647,24.));
#670 = CARTESIAN_POINT('',(66.885499220259,-2.802449983167,24.));
#671 = CARTESIAN_POINT('',(67.821790454076,-2.723826748394,24.));
#672 = CARTESIAN_POINT('',(68.667065060087,-2.651391204638,24.));
#673 = CARTESIAN_POINT('',(69.418926428121,-2.585501410641,24.));
#674 = CARTESIAN_POINT('',(70.074900864321,-2.527673966701,24.));
#675 = CARTESIAN_POINT('',(70.633835804871,-2.47576876739,24.));
#676 = CARTESIAN_POINT('',(71.091849261844,-2.437998473198,24.));
#677 = CARTESIAN_POINT('',(71.453571323501,-2.394095464235,24.));
#678 = CARTESIAN_POINT('',(71.70337315603,-2.394734991898,24.));
#679 = CARTESIAN_POINT('',(71.874229649138,-2.335811889841,24.));
#680 = CARTESIAN_POINT('',(71.931941178171,-2.37965281517,24.));
#681 = CARTESIAN_POINT('',(71.946719607886,-2.3986058009,24.));
#682 = PCURVE('',#150,#683);
#683 = DEFINITIONAL_REPRESENTATION('',(#684),#688);
#684 = LINE('',#685,#686);
#685 = CARTESIAN_POINT('',(0.,1.));
#686 = VECTOR('',#687,1.);
#687 = DIRECTION('',(1.,0.));
#688 = ( GEOMETRIC_REPRESENTATION_CONTEXT(2) 
PARAMETRIC_REPRESENTATION_CONTEXT() REPRESENTATION_CONTEXT('2D SPACE',''
  ) );
#689 = PCURVE('',#690,#695);
#690 = PLANE('',#691);
#691 = AXIS2_PLACEMENT_3D('',#692,#693,#694);
#692 = CARTESIAN_POINT('',(71.950488322954,-2.312288034556,24.));
#693 = DIRECTION('',(3.057143929863E-17,6.227933952242E-16,-1.));
#694 = DIRECTION('',(-0.998797376212,4.902857607779E-02,0.));
#695 = DEFINITIONAL_REPRESENTATION('',(#696),#818);
#696 = B_SPLINE_CURVE_WITH_KNOTS('',3,(#697,#698,#699,#700,#701,#702,
    #703,#704,#705,#706,#707,#708,#709,#710,#711,#712,#713,#714,#715,
    #716,#717,#718,#719,#720,#721,#722,#723,#724,#725,#726,#727,#728,
    #729,#730,#731,#732,#733,#734,#735,#736,#737,#738,#739,#740,#741,
    #742,#743,#744,#745,#746,#747,#748,#749,#750,#751,#752,#753,#754,
    #755,#756,#757,#758,#759,#760,#761,#762,#763,#764,#765,#766,#767,
    #768,#769,#770,#771,#772,#773,#774,#775,#776,#777,#778,#779,#780,
    #781,#782,#783,#784,#785,#786,#787,#788,#789,#790,#791,#792,#793,
    #794,#795,#796,#797,#798,#799,#800,#801,#802,#803,#804,#805,#806,
    #807,#808,#809,#810,#811,#812,#813,#814,#815,#816,#817),
  .UNSPECIFIED.,.F.,.F.,(4,1,1,1,1,1,1,1,1,1,1,1,1,1,1,1,1,1,1,1,1,1,1,1
    ,1,1,1,1,1,1,1,1,1,1,1,1,1,1,1,1,1,1,1,1,1,1,1,1,1,1,1,1,1,1,1,1,1,1
    ,1,1,1,1,1,1,1,1,1,1,1,1,1,1,1,1,1,1,1,1,1,1,1,1,1,1,1,1,1,1,1,1,1,1
    ,1,1,1,1,1,1,1,1,1,1,1,1,1,1,1,1,1,1,1,1,1,1,1,1,1,1,4),(0.,
    6.030627299938E-02,0.215587503767,0.473877911892,0.83441245477,
    1.296124850646,1.857652206625,2.517340767219,3.273252652452,
    4.123173445656,5.064620491345,6.094851772312,7.21087525114,
    8.409458582987,9.687139131748,11.040234248571,12.464851798315,
    13.956900944348,15.512103223821,17.126003963523,18.793984100009,
    20.511272476791,22.272958695724,24.074006599344,25.909268455556,
    27.773499905503,29.661375719492,31.567506384174,33.486455516952,
    35.412758071246,37.340939259748,39.265534084094,41.181107320762,
    43.082273778003,44.963718610879,46.820217465525,48.64665622378,
    50.438050139785,52.210454026736,53.943825366685,55.627274385212,
    57.256370130376,58.826898391646,60.334880541774,61.776593408813,
    63.148591263099,64.447731506284,65.671206373146,66.816584046464,
    67.881864291403,68.865556472705,69.766792370155,70.58549379496,
    71.322627513986,71.980599487527,72.56386579716,73.079850302584,
    73.54018030993,73.961882946479,74.367404361436,74.772916241821,
    75.19437367947,75.653678706678,76.167196369447,76.745914735199,
    77.396689666043,78.123487091748,78.928297928832,79.811746962926,
    80.773487000898,81.812454863038,82.92704028221,84.115199517398,
    85.37453322286,86.702340710362,88.095658329061,89.551287040023,
    91.065812644172,92.635621103599,94.2569107271,95.925702527681,
    97.644111303359,99.423023965818,101.23681131287,103.08058252526,
    104.94931625413,106.83787831745,108.74104013782,110.65349773045,
    112.56989102267,114.48482328106,116.39288043272,118.28865009087,
    120.1667401272,122.02179666936,123.84852144009,125.64168839047,
    127.39615961298,129.10690054806,130.76899452127,132.37765666543,
    133.92824729413,135.41628479942,136.83745814717,138.18763903946,
    139.46289380304,140.65949504824,141.77393312237,142.80292735779,
    143.74343708694,144.5926723679,145.34810433415,146.00747505531,
    146.56880677266,147.03041035645,147.39089282381,147.64916375699,
    147.80444047284,147.867201539),.UNSPECIFIED.);
#697 = CARTESIAN_POINT('',(0.,0.));
#698 = CARTESIAN_POINT('',(1.568617091181E-02,-1.705344595016E-02));
#699 = CARTESIAN_POINT('',(7.600235169691E-02,-5.579511859738E-02));
#700 = CARTESIAN_POINT('',(0.239833795062,2.283241671651E-02));
#701 = CARTESIAN_POINT('',(0.487739631441,4.744204416192E-02));
#702 = CARTESIAN_POINT('',(0.843106172299,0.129894868326));
#703 = CARTESIAN_POINT('',(1.294634060865,0.215405004818));
#704 = CARTESIAN_POINT('',(1.845330974877,0.325505704801));
#705 = CARTESIAN_POINT('',(2.492101941244,0.451003537411));
#706 = CARTESIAN_POINT('',(3.233723046529,0.593797488826));
#707 = CARTESIAN_POINT('',(4.067966125134,0.751794285001));
#708 = CARTESIAN_POINT('',(4.992589833441,0.924099158798));
#709 = CARTESIAN_POINT('',(6.005019420341,1.109325104751));
#710 = CARTESIAN_POINT('',(7.102456994174,1.306155372551));
#711 = CARTESIAN_POINT('',(8.281855606904,1.513186440647));
#712 = CARTESIAN_POINT('',(9.539936830164,1.728993358536));
#713 = CARTESIAN_POINT('',(10.873196021289,1.95212447313));
#714 = CARTESIAN_POINT('',(12.277912296446,2.181114660181));
#715 = CARTESIAN_POINT('',(13.750158056412,2.414490084204));
#716 = CARTESIAN_POINT('',(15.285809552022,2.650772529533));
#717 = CARTESIAN_POINT('',(16.880557996822,2.888481136507));
#718 = CARTESIAN_POINT('',(18.529921308379,3.126132538692));
#719 = CARTESIAN_POINT('',(20.229256388922,3.362239624522));
#720 = CARTESIAN_POINT('',(21.973771904553,3.595309489818));
#721 = CARTESIAN_POINT('',(23.758541510575,3.823841136713));
#722 = CARTESIAN_POINT('',(25.578517478617,4.046323526869));
#723 = CARTESIAN_POINT('',(27.428544685599,4.261234590588));
#724 = CARTESIAN_POINT('',(29.303374931189,4.467041760408));
#725 = CARTESIAN_POINT('',(31.197681556726,4.662204534694));
#726 = CARTESIAN_POINT('',(33.106074344726,4.845179468969));
#727 = CARTESIAN_POINT('',(35.023114681829,5.014427918086));
#728 = CARTESIAN_POINT('',(36.943330975178,5.168426535701));
#729 = CARTESIAN_POINT('',(38.861234297966,5.305681037008));
#730 = CARTESIAN_POINT('',(40.771334295366,5.424741126163));
#731 = CARTESIAN_POINT('',(42.668155167403,5.524223392302));
#732 = CARTESIAN_POINT('',(44.546252318365,5.602815320825));
#733 = CARTESIAN_POINT('',(46.400227386575,5.659356737433));
#734 = CARTESIAN_POINT('',(48.224749866997,5.692643020617));
#735 = CARTESIAN_POINT('',(50.021519222829,5.702280286596));
#736 = CARTESIAN_POINT('',(51.787260764778,5.685369151596));
#737 = CARTESIAN_POINT('',(53.516327729976,5.632539481364));
#738 = CARTESIAN_POINT('',(55.19620447711,5.546108662533));
#739 = CARTESIAN_POINT('',(56.819625946578,5.426346838846));
#740 = CARTESIAN_POINT('',(58.381603925806,5.274389074839));
#741 = CARTESIAN_POINT('',(59.877365992641,5.091484046521));
#742 = CARTESIAN_POINT('',(61.302378187631,4.879181990679));
#743 = CARTESIAN_POINT('',(62.652366350672,4.639259012667));
#744 = CARTESIAN_POINT('',(63.923335625009,4.373700672513));
#745 = CARTESIAN_POINT('',(65.111588206985,4.084663354792));
#746 = CARTESIAN_POINT('',(66.213739544292,3.774434355364));
#747 = CARTESIAN_POINT('',(67.226733516394,3.445385746404));
#748 = CARTESIAN_POINT('',(68.147857465812,3.099922992982));
#749 = CARTESIAN_POINT('',(68.974758275803,2.74042649679));
#750 = CARTESIAN_POINT('',(69.705460185874,2.369181670533));
#751 = CARTESIAN_POINT('',(70.338382645307,1.988288175198));
#752 = CARTESIAN_POINT('',(70.872343434734,1.599527837028));
#753 = CARTESIAN_POINT('',(71.306501363572,1.204170888957));
#754 = CARTESIAN_POINT('',(71.640087897205,0.802718834554));
#755 = CARTESIAN_POINT('',(71.871723807525,0.394883892618));
#756 = CARTESIAN_POINT('',(71.998339225651,-1.950346504755E-02));
#757 = CARTESIAN_POINT('',(72.016087834539,-0.434566968274));
#758 = CARTESIAN_POINT('',(71.928204184235,-0.840478206483));
#759 = CARTESIAN_POINT('',(71.734242388994,-1.227342131373));
#760 = CARTESIAN_POINT('',(71.439756671845,-1.590630700019));
#761 = CARTESIAN_POINT('',(71.048346698762,-1.931699921019));
#762 = CARTESIAN_POINT('',(70.561909390554,-2.251869129974));
#763 = CARTESIAN_POINT('',(69.981825505791,-2.551776150802));
#764 = CARTESIAN_POINT('',(69.309587488591,-2.831510691615));
#765 = CARTESIAN_POINT('',(68.546995663382,-3.090890607178));
#766 = CARTESIAN_POINT('',(67.696168827911,-3.329637050372));
#767 = CARTESIAN_POINT('',(66.759510567926,-3.547478677629));
#768 = CARTESIAN_POINT('',(65.739671139721,-3.744212221488));
#769 = CARTESIAN_POINT('',(64.639515753262,-3.919741731786));
#770 = CARTESIAN_POINT('',(63.462099655441,-4.074105908323));
#771 = CARTESIAN_POINT('',(62.210648854989,-4.207498051754));
#772 = CARTESIAN_POINT('',(60.888545213613,-4.320279872246));
#773 = CARTESIAN_POINT('',(59.49931495955,-4.412990875008));
#774 = CARTESIAN_POINT('',(58.046619982989,-4.48634830268));
#775 = CARTESIAN_POINT('',(56.534251200648,-4.541257701934));
#776 = CARTESIAN_POINT('',(54.966124246075,-4.578754376133));
#777 = CARTESIAN_POINT('',(53.346274221724,-4.600190364758));
#778 = CARTESIAN_POINT('',(51.676772972115,-4.606442225314));
#779 = CARTESIAN_POINT('',(49.954722658758,-4.600843405756));
#780 = CARTESIAN_POINT('',(48.184490994757,-4.575762068588));
#781 = CARTESIAN_POINT('',(46.372872936984,-4.530282756007));
#782 = CARTESIAN_POINT('',(44.53186506683,-4.466173184246));
#783 = CARTESIAN_POINT('',(42.666603388723,-4.384595541699));
#784 = CARTESIAN_POINT('',(40.782293698458,-4.286955941072));
#785 = CARTESIAN_POINT('',(38.884203051643,-4.174666835011));
#786 = CARTESIAN_POINT('',(36.977644563716,-4.049182042299));
#787 = CARTESIAN_POINT('',(35.067963562051,-3.911959380024));
#788 = CARTESIAN_POINT('',(33.160522945212,-3.764445999746));
#789 = CARTESIAN_POINT('',(31.260688396257,-3.608061230206));
#790 = CARTESIAN_POINT('',(29.373813352306,-3.444184220796));
#791 = CARTESIAN_POINT('',(27.505223844262,-3.274144674879));
#792 = CARTESIAN_POINT('',(25.660203269341,-3.099217173363));
#793 = CARTESIAN_POINT('',(23.843977174469,-2.920618787349));
#794 = CARTESIAN_POINT('',(22.06169812207,-2.739509701037));
#795 = CARTESIAN_POINT('',(20.31843070583,-2.556996392915));
#796 = CARTESIAN_POINT('',(18.619136776811,-2.374136833839));
#797 = CARTESIAN_POINT('',(16.968660932261,-2.191947085444));
#798 = CARTESIAN_POINT('',(15.371716311555,-2.011408645898));
#799 = CARTESIAN_POINT('',(13.832870734649,-1.833475879103));
#800 = CARTESIAN_POINT('',(12.356533216487,-1.659082910773));
#801 = CARTESIAN_POINT('',(10.946940869837,-1.48914936524));
#802 = CARTESIAN_POINT('',(9.608146262923,-1.32458464159));
#803 = CARTESIAN_POINT('',(8.34400510156,-1.166289708235));
#804 = CARTESIAN_POINT('',(7.158164782185,-1.01515836858));
#805 = CARTESIAN_POINT('',(6.054052065262,-0.872070376755));
#806 = CARTESIAN_POINT('',(5.034865883926,-0.737901671747));
#807 = CARTESIAN_POINT('',(4.103555441467,-0.613467965158));
#808 = CARTESIAN_POINT('',(3.262848794372,-0.499676923783));
#809 = CARTESIAN_POINT('',(2.515122115482,-0.397003678137));
#810 = CARTESIAN_POINT('',(1.862771766979,-0.307084286305));
#811 = CARTESIAN_POINT('',(1.307053852897,-0.227837725167));
#812 = CARTESIAN_POINT('',(0.851443037545,-0.167657106809));
#813 = CARTESIAN_POINT('',(0.49230849346,-0.10607217903));
#814 = CARTESIAN_POINT('',(0.242775723426,-9.446350943187E-02));
#815 = CARTESIAN_POINT('',(7.501362219274E-02,-2.723441912816E-02));
#816 = CARTESIAN_POINT('',(1.522204027459E-02,-6.819310622597E-02));
#817 = CARTESIAN_POINT('',(-4.678544521255E-04,-8.639873327898E-02));
#818 = ( GEOMETRIC_REPRESENTATION_CONTEXT(2) 
PARAMETRIC_REPRESENTATION_CONTEXT() REPRESENTATION_CONTEXT('2D SPACE',''
  ) );
#819 = ORIENTED_EDGE('',*,*,#820,.F.);
#820 = EDGE_CURVE('',#22,#557,#821,.T.);
#821 = SURFACE_CURVE('',#822,(#825,#832),.PCURVE_S1.);
#822 = B_SPLINE_CURVE_WITH_KNOTS('',1,(#823,#824),.UNSPECIFIED.,.F.,.F.,
  (2,2),(0.,1.),.PIECEWISE_BEZIER_KNOTS.);
#823 = CARTESIAN_POINT('',(71.950488322954,-2.312288034556,0.));
#824 = CARTESIAN_POINT('',(71.950488322954,-2.312288034556,24.));
#825 = PCURVE('',#150,#826);
#826 = DEFINITIONAL_REPRESENTATION('',(#827),#831);
#827 = LINE('',#828,#829);
#828 = CARTESIAN_POINT('',(0.,0.));
#829 = VECTOR('',#830,1.);
#830 = DIRECTION('',(0.,1.));
#831 = ( GEOMETRIC_REPRESENTATION_CONTEXT(2) 
PARAMETRIC_REPRESENTATION_CONTEXT() REPRESENTATION_CONTEXT('2D SPACE',''
  ) );
#832 = PCURVE('',#545,#833);
#833 = DEFINITIONAL_REPRESENTATION('',(#834),#837);
#834 = B_SPLINE_CURVE_WITH_KNOTS('',1,(#835,#836),.UNSPECIFIED.,.F.,.F.,
  (2,2),(0.,1.),.PIECEWISE_BEZIER_KNOTS.);
#835 = CARTESIAN_POINT('',(8.64E-02,-24.));
#836 = CARTESIAN_POINT('',(8.64E-02,0.));
#837 = ( GEOMETRIC_REPRESENTATION_CONTEXT(2) 
PARAMETRIC_REPRESENTATION_CONTEXT() REPRESENTATION_CONTEXT('2D SPACE',''
  ) );
#838 = ADVANCED_FACE('',(#839,#863),#400,.T.);
#839 = FACE_BOUND('',#840,.T.);
#840 = EDGE_LOOP('',(#841,#842));
#841 = ORIENTED_EDGE('',*,*,#21,.F.);
#842 = ORIENTED_EDGE('',*,*,#843,.F.);
#843 = EDGE_CURVE('',#24,#22,#844,.T.);
#844 = SURFACE_CURVE('',#845,(#849,#856),.PCURVE_S1.);
#845 = LINE('',#846,#847);
#846 = CARTESIAN_POINT('',(71.946719607886,-2.3986058009,0.));
#847 = VECTOR('',#848,1.);
#848 = DIRECTION('',(4.361938736529E-02,0.999048221582,0.));
#849 = PCURVE('',#400,#850);
#850 = DEFINITIONAL_REPRESENTATION('',(#851),#855);
#851 = LINE('',#852,#853);
#852 = CARTESIAN_POINT('',(-4.678544521252E-04,-8.639873327898E-02));
#853 = VECTOR('',#854,1.);
#854 = DIRECTION('',(5.414982084783E-03,0.999985338877));
#855 = ( GEOMETRIC_REPRESENTATION_CONTEXT(2) 
PARAMETRIC_REPRESENTATION_CONTEXT() REPRESENTATION_CONTEXT('2D SPACE',''
  ) );
#856 = PCURVE('',#545,#857);
#857 = DEFINITIONAL_REPRESENTATION('',(#858),#862);
#858 = LINE('',#859,#860);
#859 = CARTESIAN_POINT('',(0.,-24.));
#860 = VECTOR('',#861,1.);
#861 = DIRECTION('',(1.,0.));
#862 = ( GEOMETRIC_REPRESENTATION_CONTEXT(2) 
PARAMETRIC_REPRESENTATION_CONTEXT() REPRESENTATION_CONTEXT('2D SPACE',''
  ) );
#863 = FACE_BOUND('',#864,.T.);
#864 = EDGE_LOOP('',(#865));
#865 = ORIENTED_EDGE('',*,*,#866,.F.);
#866 = EDGE_CURVE('',#867,#867,#869,.T.);
#867 = VERTEX_POINT('',#868);
#868 = CARTESIAN_POINT('',(19.6,0.7776,0.));
#869 = SURFACE_CURVE('',#870,(#875,#882),.PCURVE_S1.);
#870 = CIRCLE('',#871,1.6);
#871 = AXIS2_PLACEMENT_3D('',#872,#873,#874);
#872 = CARTESIAN_POINT('',(18.,0.7776,0.));
#873 = DIRECTION('',(0.,0.,-1.));
#874 = DIRECTION('',(1.,0.,0.));
#875 = PCURVE('',#400,#876);
#876 = DEFINITIONAL_REPRESENTATION('',(#877),#881);
#877 = CIRCLE('',#878,1.6);
#878 = AXIS2_PLACEMENT_2D('',#879,#880);
#879 = CARTESIAN_POINT('',(54.037098992892,0.441056440527));
#880 = DIRECTION('',(-0.998797376212,4.902857607779E-02));
#881 = ( GEOMETRIC_REPRESENTATION_CONTEXT(2) 
PARAMETRIC_REPRESENTATION_CONTEXT() REPRESENTATION_CONTEXT('2D SPACE',''
  ) );
#882 = PCURVE('',#883,#888);
#883 = CYLINDRICAL_SURFACE('',#884,1.6);
#884 = AXIS2_PLACEMENT_3D('',#885,#886,#887);
#885 = CARTESIAN_POINT('',(18.,0.7776,-1.));
#886 = DIRECTION('',(-0.,-0.,-1.));
#887 = DIRECTION('',(1.,0.,0.));
#888 = DEFINITIONAL_REPRESENTATION('',(#889),#893);
#889 = LINE('',#890,#891);
#890 = CARTESIAN_POINT('',(-6.28318530718,-1.));
#891 = VECTOR('',#892,1.);
#892 = DIRECTION('',(1.,-0.));
#893 = ( GEOMETRIC_REPRESENTATION_CONTEXT(2) 
PARAMETRIC_REPRESENTATION_CONTEXT() REPRESENTATION_CONTEXT('2D SPACE',''
  ) );
#894 = ADVANCED_FACE('',(#895),#545,.T.);
#895 = FACE_BOUND('',#896,.T.);
#896 = EDGE_LOOP('',(#897,#898,#899,#920));
#897 = ORIENTED_EDGE('',*,*,#843,.T.);
#898 = ORIENTED_EDGE('',*,*,#820,.T.);
#899 = ORIENTED_EDGE('',*,*,#900,.F.);
#900 = EDGE_CURVE('',#531,#557,#901,.T.);
#901 = SURFACE_CURVE('',#902,(#906,#913),.PCURVE_S1.);
#902 = LINE('',#903,#904);
#903 = CARTESIAN_POINT('',(71.946719607886,-2.3986058009,24.));
#904 = VECTOR('',#905,1.);
#905 = DIRECTION('',(4.361938736529E-02,0.999048221582,0.));
#906 = PCURVE('',#545,#907);
#907 = DEFINITIONAL_REPRESENTATION('',(#908),#912);
#908 = LINE('',#909,#910);
#909 = CARTESIAN_POINT('',(0.,0.));
#910 = VECTOR('',#911,1.);
#911 = DIRECTION('',(1.,0.));
#912 = ( GEOMETRIC_REPRESENTATION_CONTEXT(2) 
PARAMETRIC_REPRESENTATION_CONTEXT() REPRESENTATION_CONTEXT('2D SPACE',''
  ) );
#913 = PCURVE('',#690,#914);
#914 = DEFINITIONAL_REPRESENTATION('',(#915),#919);
#915 = LINE('',#916,#917);
#916 = CARTESIAN_POINT('',(-4.678544521252E-04,-8.639873327898E-02));
#917 = VECTOR('',#918,1.);
#918 = DIRECTION('',(5.414982084783E-03,0.999985338877));
#919 = ( GEOMETRIC_REPRESENTATION_CONTEXT(2) 
PARAMETRIC_REPRESENTATION_CONTEXT() REPRESENTATION_CONTEXT('2D SPACE',''
  ) );
#920 = ORIENTED_EDGE('',*,*,#530,.F.);
#921 = ADVANCED_FACE('',(#922,#926),#690,.F.);
#922 = FACE_BOUND('',#923,.F.);
#923 = EDGE_LOOP('',(#924,#925));
#924 = ORIENTED_EDGE('',*,*,#556,.F.);
#925 = ORIENTED_EDGE('',*,*,#900,.F.);
#926 = FACE_BOUND('',#927,.F.);
#927 = EDGE_LOOP('',(#928));
#928 = ORIENTED_EDGE('',*,*,#929,.F.);
#929 = EDGE_CURVE('',#930,#930,#932,.T.);
#930 = VERTEX_POINT('',#931);
#931 = CARTESIAN_POINT('',(19.6,0.7776,24.));
#932 = SURFACE_CURVE('',#933,(#938,#945),.PCURVE_S1.);
#933 = CIRCLE('',#934,1.6);
#934 = AXIS2_PLACEMENT_3D('',#935,#936,#937);
#935 = CARTESIAN_POINT('',(18.,0.7776,24.));
#936 = DIRECTION('',(0.,0.,-1.));
#937 = DIRECTION('',(1.,0.,0.));
#938 = PCURVE('',#690,#939);
#939 = DEFINITIONAL_REPRESENTATION('',(#940),#944);
#940 = CIRCLE('',#941,1.6);
#941 = AXIS2_PLACEMENT_2D('',#942,#943);
#942 = CARTESIAN_POINT('',(54.037098992892,0.441056440527));
#943 = DIRECTION('',(-0.998797376212,4.902857607779E-02));
#944 = ( GEOMETRIC_REPRESENTATION_CONTEXT(2) 
PARAMETRIC_REPRESENTATION_CONTEXT() REPRESENTATION_CONTEXT('2D SPACE',''
  ) );
#945 = PCURVE('',#883,#946);
#946 = DEFINITIONAL_REPRESENTATION('',(#947),#951);
#947 = LINE('',#948,#949);
#948 = CARTESIAN_POINT('',(-6.28318530718,-25.));
#949 = VECTOR('',#950,1.);
#950 = DIRECTION('',(1.,-0.));
#951 = ( GEOMETRIC_REPRESENTATION_CONTEXT(2) 
PARAMETRIC_REPRESENTATION_CONTEXT() REPRESENTATION_CONTEXT('2D SPACE',''
  ) );
#952 = ADVANCED_FACE('',(#953),#883,.F.);
#953 = FACE_BOUND('',#954,.T.);
#954 = EDGE_LOOP('',(#955,#956,#977,#978));
#955 = ORIENTED_EDGE('',*,*,#866,.T.);
#956 = ORIENTED_EDGE('',*,*,#957,.T.);
#957 = EDGE_CURVE('',#867,#930,#958,.T.);
#958 = SEAM_CURVE('',#959,(#963,#970),.PCURVE_S1.);
#959 = LINE('',#960,#961);
#960 = CARTESIAN_POINT('',(19.6,0.7776,-1.));
#961 = VECTOR('',#962,1.);
#962 = DIRECTION('',(0.,0.,1.));
#963 = PCURVE('',#883,#964);
#964 = DEFINITIONAL_REPRESENTATION('',(#965),#969);
#965 = LINE('',#966,#967);
#966 = CARTESIAN_POINT('',(-6.28318530718,0.));
#967 = VECTOR('',#968,1.);
#968 = DIRECTION('',(-0.,-1.));
#969 = ( GEOMETRIC_REPRESENTATION_CONTEXT(2) 
PARAMETRIC_REPRESENTATION_CONTEXT() REPRESENTATION_CONTEXT('2D SPACE',''
  ) );
#970 = PCURVE('',#883,#971);
#971 = DEFINITIONAL_REPRESENTATION('',(#972),#976);
#972 = LINE('',#973,#974);
#973 = CARTESIAN_POINT('',(-0.,0.));
#974 = VECTOR('',#975,1.);
#975 = DIRECTION('',(-0.,-1.));
#976 = ( GEOMETRIC_REPRESENTATION_CONTEXT(2) 
PARAMETRIC_REPRESENTATION_CONTEXT() REPRESENTATION_CONTEXT('2D SPACE',''
  ) );
#977 = ORIENTED_EDGE('',*,*,#929,.F.);
#978 = ORIENTED_EDGE('',*,*,#957,.F.);
#979 = ( GEOMETRIC_REPRESENTATION_CONTEXT(3) 
GLOBAL_UNCERTAINTY_ASSIGNED_CONTEXT((#983)) GLOBAL_UNIT_ASSIGNED_CONTEXT
((#980,#981,#982)) REPRESENTATION_CONTEXT('Context #1',
  '3D Context with UNIT and UNCERTAINTY') );
#980 = ( LENGTH_UNIT() NAMED_UNIT(*) SI_UNIT(.MILLI.,.METRE.) );
#981 = ( NAMED_UNIT(*) PLANE_ANGLE_UNIT() SI_UNIT($,.RADIAN.) );
#982 = ( NAMED_UNIT(*) SI_UNIT($,.STERADIAN.) SOLID_ANGLE_UNIT() );
#983 = UNCERTAINTY_MEASURE_WITH_UNIT(LENGTH_MEASURE(1.E-07),#980,
  'distance_accuracy_value','confusion accuracy');
#984 = PRODUCT_RELATED_PRODUCT_CATEGORY('part',$,(#7));
ENDSEC;
END-ISO-10303-21;
